<?xml version="1.0" encoding="utf-8"?>
<!-- Generator: Adobe Illustrator 27.7.0, SVG Export Plug-In . SVG Version: 6.00 Build 0)  -->
<svg version="1.1" id="레이어_1" xmlns="http://www.w3.org/2000/svg" xmlns:xlink="http://www.w3.org/1999/xlink" x="0px"
	 y="0px" viewBox="0 0 500 700" style="enable-background:new 0 0 500 700;" xml:space="preserve">
<style type="text/css">
	.st0{fill:#FFFFFF;}
	.st1{fill:#D5646D;}
	.st2{fill:#606161;}
	.st3{clip-path:url(#SVGID_00000076572271745008580550000004462751718358484115_);fill:#606161;}
	.st4{clip-path:url(#SVGID_00000144334773424936532840000000983999610998697641_);fill:#606161;}
	.st5{clip-path:url(#SVGID_00000183946544562351178340000007619339544468651194_);fill:#606161;}
	.st6{clip-path:url(#SVGID_00000133504093950958202220000015270195353041801663_);fill:#606161;}
	.st7{clip-path:url(#SVGID_00000152953849678458014930000001097117088372078242_);fill:#606161;}
	.st8{clip-path:url(#SVGID_00000127002125804150772780000008156697908858858144_);fill:#606161;}
	.st9{clip-path:url(#SVGID_00000083054284683251941720000013220083983882713488_);fill:#606161;}
	.st10{clip-path:url(#SVGID_00000042715057142783046300000006639479441354914956_);}
	.st11{clip-path:url(#SVGID_00000096763541158848689890000009018953368199483551_);}
	.st12{clip-path:url(#SVGID_00000136394817766722447000000017979312545920496018_);}
	.st13{clip-path:url(#SVGID_00000108302232183665480100000005075497478792331687_);}
	.st14{clip-path:url(#SVGID_00000180331323293540677480000015189692698929322113_);}
	.st15{clip-path:url(#SVGID_00000177465460391216989920000010891512996071015593_);}
	.st16{clip-path:url(#SVGID_00000057861146872944685780000012919089779867756674_);}
	.st17{clip-path:url(#SVGID_00000016046429349744588080000010055907256774291863_);}
	.st18{fill:#5B5C5F;}
	.st19{fill:#D8AAA4;}
	.st20{fill:#EFB7AD;}
	.st21{fill:#D6D6D6;}
	.st22{fill:none;stroke:#5B5C5F;stroke-miterlimit:10;}
</style>
<g>
	<path class="st0" d="M203.7,382.3c-0.4,3.2-2.4,45.4-2.4,45.4l51.1,20.4l31.1-17.6l3.1-42.8L213,375.6L203.7,382.3z"/>
	<polyline class="st1" points="224.9,386.6 224.9,391.2 242.9,404.2 251.7,398.7 253,393.6 226.2,384.7 224.7,387.3 224.8,387.5 
		227.2,389.3 	"/>
	<g>
		<g>
			<path id="XMLID_00000006683778280894843800000009606652453253386425_" class="st2" d="M217.9,319.9c0,0-88.4,34.2-108.8,49.3
				c0,0-15.3,211.2,24.5,266.4l96.8,54.1L217.9,319.9z"/>
		</g>
		<g>
			<defs>
				<path id="SVGID_1_" d="M217.9,319.9c0,0-88.4,34.2-108.8,49.3c0,0-15.3,211.2,24.5,266.4l96.8,54.1L217.9,319.9z"/>
			</defs>
			<clipPath id="SVGID_00000165916067273140777450000013584415661857907084_">
				<use xlink:href="#SVGID_1_"  style="overflow:visible;"/>
			</clipPath>
			<path style="clip-path:url(#SVGID_00000165916067273140777450000013584415661857907084_);fill:#606161;" d="M-238.4,155.6
				c-10.5,71.2-12.6,143.6-6.3,215.2"/>
		</g>
		<g>
			<defs>
				<path id="SVGID_00000166675826261655383770000001765552460629352370_" d="M217.9,319.9c0,0-88.4,34.2-108.8,49.3
					c0,0-15.3,211.2,24.5,266.4l96.8,54.1L217.9,319.9z"/>
			</defs>
			<clipPath id="SVGID_00000161607918685403530820000004973977907160954514_">
				<use xlink:href="#SVGID_00000166675826261655383770000001765552460629352370_"  style="overflow:visible;"/>
			</clipPath>
			<path style="clip-path:url(#SVGID_00000161607918685403530820000004973977907160954514_);fill:#606161;" d="M-284.9,285.1
				c-8.9,86.7-21.4,173-37.3,258.7"/>
		</g>
		<g>
			<defs>
				<path id="SVGID_00000093164470456031693020000015333149680747495320_" d="M217.9,319.9c0,0-88.4,34.2-108.8,49.3
					c0,0-15.3,211.2,24.5,266.4l96.8,54.1L217.9,319.9z"/>
			</defs>
			<clipPath id="SVGID_00000018209384723451717630000004552400755630887606_">
				<use xlink:href="#SVGID_00000093164470456031693020000015333149680747495320_"  style="overflow:visible;"/>
			</clipPath>
			<path style="clip-path:url(#SVGID_00000018209384723451717630000004552400755630887606_);fill:#606161;" d="M-314.7,177.8
				c2.7,38.1,5.3,76.1,8,114.2"/>
		</g>
		<g>
			<defs>
				<path id="SVGID_00000083773730833883303690000006255512831740957592_" d="M217.9,319.9c0,0-88.4,34.2-108.8,49.3
					c0,0-15.3,211.2,24.5,266.4l96.8,54.1L217.9,319.9z"/>
			</defs>
			<clipPath id="SVGID_00000090295114867649220520000011357570426438627469_">
				<use xlink:href="#SVGID_00000083773730833883303690000006255512831740957592_"  style="overflow:visible;"/>
			</clipPath>
			<path style="clip-path:url(#SVGID_00000090295114867649220520000011357570426438627469_);fill:#606161;" d="M-280.7,186.9
				c19.6,25.8,34.1,55.2,46.5,85.1c12.9,30.9,24,64.3,18.3,97.2"/>
		</g>
		<g>
			<defs>
				<path id="SVGID_00000116924067713613887380000014102617591511264687_" d="M217.9,319.9c0,0-88.4,34.2-108.8,49.3
					c0,0-15.3,211.2,24.5,266.4l96.8,54.1L217.9,319.9z"/>
			</defs>
			<clipPath id="SVGID_00000147926600930690155660000010276306459722788252_">
				<use xlink:href="#SVGID_00000116924067713613887380000014102617591511264687_"  style="overflow:visible;"/>
			</clipPath>
			<path style="clip-path:url(#SVGID_00000147926600930690155660000010276306459722788252_);fill:#606161;" d="M-96.8,239.9
				c-1.4,51.6-2.9,103.1-4.3,154.7"/>
		</g>
		<g>
			<defs>
				<path id="SVGID_00000169543592235372848910000007836744529510577028_" d="M217.9,319.9c0,0-88.4,34.2-108.8,49.3
					c0,0-15.3,211.2,24.5,266.4l96.8,54.1L217.9,319.9z"/>
			</defs>
			<clipPath id="SVGID_00000078006698337672714350000001280961827828375709_">
				<use xlink:href="#SVGID_00000169543592235372848910000007836744529510577028_"  style="overflow:visible;"/>
			</clipPath>
			<path style="clip-path:url(#SVGID_00000078006698337672714350000001280961827828375709_);fill:#606161;" d="M-101.7,308.1
				c-14.8,59.5-22,120.9-21.5,182.3"/>
		</g>
		<g>
			<defs>
				<path id="SVGID_00000025406645113184145540000003469430831490692523_" d="M217.9,319.9c0,0-88.4,34.2-108.8,49.3
					c0,0-15.3,211.2,24.5,266.4l96.8,54.1L217.9,319.9z"/>
			</defs>
			<clipPath id="SVGID_00000052821149594465406500000014917235429278843575_">
				<use xlink:href="#SVGID_00000025406645113184145540000003469430831490692523_"  style="overflow:visible;"/>
			</clipPath>
			<path style="clip-path:url(#SVGID_00000052821149594465406500000014917235429278843575_);fill:#606161;" d="M-101.6,226.9
				c-2.7,61.1-6.7,122.1-11.8,183"/>
		</g>
		<g>
			<defs>
				<path id="SVGID_00000105407522828305152760000016333387984216279196_" d="M217.9,319.9c0,0-88.4,34.2-108.8,49.3
					c0,0-15.3,211.2,24.5,266.4l96.8,54.1L217.9,319.9z"/>
			</defs>
			<clipPath id="SVGID_00000088127658935260659150000015203898499801633184_">
				<use xlink:href="#SVGID_00000105407522828305152760000016333387984216279196_"  style="overflow:visible;"/>
			</clipPath>
			<g style="clip-path:url(#SVGID_00000088127658935260659150000015203898499801633184_);">
				<path class="st2" d="M-236.1,165.6c-1.2,47.6,1.5,95.3,8.1,142.4"/>
			</g>
		</g>
		<g>
			<defs>
				<path id="SVGID_00000033338519103904729340000008991997886835750564_" d="M217.9,319.9c0,0-88.4,34.2-108.8,49.3
					c0,0-15.3,211.2,24.5,266.4l96.8,54.1L217.9,319.9z"/>
			</defs>
			<clipPath id="SVGID_00000182486576067565648510000001579268513156088973_">
				<use xlink:href="#SVGID_00000033338519103904729340000008991997886835750564_"  style="overflow:visible;"/>
			</clipPath>
			<g style="clip-path:url(#SVGID_00000182486576067565648510000001579268513156088973_);">
				<path class="st2" d="M-196.9,275.9c-6.5,54.9-0.8,111.3,16.5,163.8"/>
			</g>
		</g>
		<g>
			<defs>
				<path id="SVGID_00000013890894432415269980000007916040132489418416_" d="M217.9,319.9c0,0-88.4,34.2-108.8,49.3
					c0,0-15.3,211.2,24.5,266.4l96.8,54.1L217.9,319.9z"/>
			</defs>
			<clipPath id="SVGID_00000075877227205660832130000007925965489820602038_">
				<use xlink:href="#SVGID_00000013890894432415269980000007916040132489418416_"  style="overflow:visible;"/>
			</clipPath>
			<g style="clip-path:url(#SVGID_00000075877227205660832130000007925965489820602038_);">
				<path class="st2" d="M-73.8,311.8c-14,77-14.5,156.4-1.6,233.6"/>
			</g>
		</g>
		<g>
			<defs>
				<path id="SVGID_00000094591023805778706340000008503734153670609838_" d="M217.9,319.9c0,0-88.4,34.2-108.8,49.3
					c0,0-15.3,211.2,24.5,266.4l96.8,54.1L217.9,319.9z"/>
			</defs>
			<clipPath id="SVGID_00000108298287468905996940000007333104100549917079_">
				<use xlink:href="#SVGID_00000094591023805778706340000008503734153670609838_"  style="overflow:visible;"/>
			</clipPath>
			<g style="clip-path:url(#SVGID_00000108298287468905996940000007333104100549917079_);">
				<path class="st2" d="M-33.6,393.1c-6.8,59.5-9.2,119.4-7.2,179.2"/>
			</g>
		</g>
		<g>
			<defs>
				<path id="SVGID_00000122692081149189824680000014060231553054997413_" d="M217.9,319.9c0,0-88.4,34.2-108.8,49.3
					c0,0-15.3,211.2,24.5,266.4l96.8,54.1L217.9,319.9z"/>
			</defs>
			<clipPath id="SVGID_00000039104334409240336400000011851658749600576384_">
				<use xlink:href="#SVGID_00000122692081149189824680000014060231553054997413_"  style="overflow:visible;"/>
			</clipPath>
			<g style="clip-path:url(#SVGID_00000039104334409240336400000011851658749600576384_);">
				<path class="st2" d="M127.7,337c-11,21.7-12,46.9-12,71.2c0.1,89.7,11.9,179.4,34.9,266.1"/>
			</g>
		</g>
		<g>
			<defs>
				<path id="SVGID_00000120537408630609359730000009053845095118313905_" d="M217.9,319.9c0,0-88.4,34.2-108.8,49.3
					c0,0-15.3,211.2,24.5,266.4l96.8,54.1L217.9,319.9z"/>
			</defs>
			<clipPath id="SVGID_00000178885145747463861920000011959667159099723189_">
				<use xlink:href="#SVGID_00000120537408630609359730000009053845095118313905_"  style="overflow:visible;"/>
			</clipPath>
			<g style="clip-path:url(#SVGID_00000178885145747463861920000011959667159099723189_);">
				<path class="st2" d="M136.8,346.2c-5.1,56.6,5.9,113.2,11.1,169.8c3.5,38.3,4.3,76.8,10.1,114.8c7.4,49,23,96.4,38.4,143.6"/>
			</g>
		</g>
		<g>
			<defs>
				<path id="SVGID_00000106830107645952442830000010315017634140789411_" d="M217.9,319.9c0,0-88.4,34.2-108.8,49.3
					c0,0-15.3,211.2,24.5,266.4l96.8,54.1L217.9,319.9z"/>
			</defs>
			<clipPath id="SVGID_00000151514609606610840300000002992202136282680704_">
				<use xlink:href="#SVGID_00000106830107645952442830000010315017634140789411_"  style="overflow:visible;"/>
			</clipPath>
			<g style="clip-path:url(#SVGID_00000151514609606610840300000002992202136282680704_);">
				<path class="st2" d="M171.8,320.3c-11.7,75-5,151.4-0.4,227.1c5,81.5,7.5,163.1,7.6,244.7"/>
			</g>
		</g>
		<g>
			<defs>
				<path id="SVGID_00000112610834115150193460000016027421549828327087_" d="M217.9,319.9c0,0-88.4,34.2-108.8,49.3
					c0,0-15.3,211.2,24.5,266.4l96.8,54.1L217.9,319.9z"/>
			</defs>
			<clipPath id="SVGID_00000072987010668935311770000001081746304645780904_">
				<use xlink:href="#SVGID_00000112610834115150193460000016027421549828327087_"  style="overflow:visible;"/>
			</clipPath>
			<g style="clip-path:url(#SVGID_00000072987010668935311770000001081746304645780904_);">
				<path class="st2" d="M193.7,313.4c-0.7,96.2,6.3,192.2,8.8,288.4c1.7,65.7,1.4,131.5-0.9,197.2"/>
			</g>
		</g>
	</g>
	<path class="st18" d="M289.2,322.2l-4.9,43.9c-26.3,48.1-75.2,138.3-78.7,152.3l-20.9,54.9l40.7,117.5l22.4-1.1l0,0.2l100.7-46.4
		c44-51.8,45.3-263.6,45.3-263.6C374.7,363.2,289.2,322.2,289.2,322.2z"/>
	<path class="st19" d="M222.9,280.3l-1.5,11.2l19.8,8.2l20.7-14.2c0,0,1.5-12.6-2-12.6c-3.5-0.1-27.5-0.3-28.5,0
		C230.3,273.2,222.9,280.3,222.9,280.3z"/>
	<path class="st19" d="M342.3,194l-8.3-12.3l-5.6,11.4l1.3,3.4c-0.1-0.1-0.2-0.1-0.3-0.2c2.7,12.3-3,35.1-3.1,35.6
		c2.5-4.2,4.8-8.6,6.9-13.1c0.1-0.1,0.1-0.3,0.2-0.4c0.1-0.3,0.3-0.7,0.4-1c2.2-5.1,3.9-9.7,4.9-12.9c0.4-1.4,0.9-2.8,1.3-4.3
		L342.3,194z"/>
	<path class="st18" d="M150.1,109.6l-5.1-5.5l-3.6-6.9l6.9-8.8c0,0,7.4,3.6,7.4,3.8s1.6,7.8,1.6,7.8v8.1L150.1,109.6z"/>
	<path class="st18" d="M353.2,65.3c-7.8-7.8-18-12.8-28.6-13.2c-1-1.5-2.2-2.8-3.2-4.3c-0.1-0.2-0.2-0.3-0.4-0.4
		c-23-28.7-60.6-39.9-95.8-37.9c-20.7,1.2-40.9,6.2-60.5,13C150,27.6,132.6,34.1,126,50c-8.3,20.2,6.7,40.2,19.2,54.4l-1.3-3.3
		l0.3-0.1l1.3,3.3c2.1,2.4,5.3,1.5,7-0.6c0.3-0.7,0.6-1.4,0.9-2.1c0.1-0.1,0.1-0.3,0.2-0.4c0.3-0.3,0.5-0.7,0.6-1.1
		c0.1-0.2,0.3-0.3,0.4-0.5c-0.3,0.7-0.6,1.3-1,2l0.3,0.5c3-4.2,6.3-8.1,9.9-11.7c6.6-6.8,14.1-12.6,22.2-17.3
		c5.4-3.1,16.1-10.5,19.3-1.6c2.2,6.1,4,12,7.2,17.7c12.8,22.9,37.3,38.7,63.1,39.9c6.5,0.3,15.9-1.7,20.8,3.8
		c4.1,4.5,4,12.2,5.5,17.8c1.9,7.2,6.1,12.8,11.8,16.1v-0.9c-0.2-18.7,12.1-33.8,27.4-33.8c0.5,0,1,0,1.5,0.1c0,0,0,0,0,0
		c7.1,0.5,13.5,4.4,18.2,10.3c4.7-11,7.1-23.5,7.4-33.7C368.8,93,364.4,76.6,353.2,65.3z"/>
	<path class="st20" d="M360.9,142.5c-0.1,0.1-0.1,0.2-0.2,0.4c0,0,0,0,0,0C360.8,142.7,360.9,142.6,360.9,142.5
		c-4.6-5.9-11-9.8-18.2-10.3c-0.6,0-1.1-0.1-1.7-0.1c-15.2,0-27.6,15.1-27.6,33.7v0.8c-5.6-3.3-9.8-8.8-11.7-16
		c-1.5-5.7-1.4-13.3-5.5-17.8c-4.9-5.5-14.4-3.5-20.8-3.8c-25.8-1.1-50.3-16.9-63.1-39.9c-3.2-5.7-4.9-11.6-7.2-17.7
		c-3.2-8.9-14-1.5-19.3,1.6c-8.1,4.7-15.6,10.6-22.2,17.3c-3.6,3.7-6.9,7.6-9.9,11.7l0.1,0.1c0,0,0,0,0,0l0,0c0,0-0.1,0.1-0.1,0.1
		c-0.2,0.1-0.3,0.3-0.4,0.5c0,0,0,0.1,0,0.1c-0.2,0.2-0.3,0.4-0.5,0.6c-0.1,0.1-0.2,0.2-0.2,0.3c-0.8,1.9-1.6,3.8-2.4,5.7l0.1,0.1
		c-1.2,3-2.2,6.1-3.2,9.2c4.7-0.6,11,0,17.5,1.9c12.5,3.8,21.4,11.3,19.7,16.7l-39.1-11.9c-2.7,11-4.2,22.7-4.2,34.7
		c0,59.3,35.2,108.7,82,120l0.1-0.6c0,0,0,0,0,0l-0.1,0.7l0.1-0.7c0,0,0,0,0,0l-0.1,0.8c6.6,1.6,13.4,2.4,20.3,2.4
		c4,0,8-0.3,11.9-0.8c0.1,0,0.1-0.1,0.2-0.1c0.1,0,0.3,0,0.4-0.1c0,0,0,0.1,0,0.1c-0.2,0-0.4,0.1-0.6,0.1
		c-18,11.1-33.7,9.6-33.7,9.6l-3.8,28.4c4.6,10.5,8.2,19.6,11,27.6c4.8,13.9,7.2,24.4,8.2,32l0-0.1c0.2,1.7,0.4,3.2,0.5,4.6
		c0.4,5.3,0,9-0.5,11.2c1.1-2.7,2.9-5.8,5.1-9.2c6.3-9.5,16.5-20.9,26.5-31.3c0,0,0,0.1,0,0.1c3-3.1,6-6.1,8.9-9l-0.3-0.3
		c0,0,0.1-0.1,0.1-0.1l0.3,0.3c11.8-11.6,21.4-20.2,21.4-20.2l7.3-53.9c4.4-17.3,14.8-31.5,14.8-31.5c-0.3,0.4-0.5,0.7-0.8,1
		c0.4-0.6,0.8-1.2,1.1-1.8c1.7-2.4,3.4-4.9,5-7.5c0.1-0.5,5.8-23.3,3.1-35.6c3.3,1.9,7,3,10.8,3.2h0l0,0c0,0,0,0,0,0c0,0,0,0,0,0
		c0,0,0,0,0,0h1c15.2,0,27.6-15.1,27.6-33.7C368.6,156.8,365.7,148.5,360.9,142.5z"/>
	<path class="st18" d="M231.7,138.5c-0.7-5.6,10.2-11.6,24.3-13.4c14.1-1.8,26.2,1.3,26.9,6.9L231.7,138.5z"/>
	<path class="st0" d="M224.4,409.1c-2.9-6-1.3-15.1-0.2-19.9c-9.1-5.9-12.2-4.3-12.2-4.3l0.1-0.4c-2.4,13.4-5.7,35.4-7.2,60.6
		c0.1-1.9,0.2-2.9,0.2-2.9C206.9,430.8,224.4,409.1,224.4,409.1z"/>
	<path class="st0" d="M208.5,520.9L208.5,520.9L208.5,520.9z"/>
	<path class="st0" d="M251.7,398.7c-1.9,9.9-12.3,15-12.3,15c1.4,17.5,0.3,35.6,0.3,35.6c-1,2.1-2.6,5.3-4.4,9.4
		c9.7-20.9,20.4-42.2,29.4-55.3v0.1C264.7,403.4,263.2,400,251.7,398.7z"/>
	<path class="st0" d="M267.7,399.3C267.7,399.3,267.7,399.2,267.7,399.3C267.7,399.2,267.7,399.2,267.7,399.3L267.7,399.3z"/>
	<path class="st1" d="M205,445.1c-0.7,10.2-2.5,45.5,3.5,75.8l0,0C204,495.9,203.6,469.1,205,445.1z"/>
	<path class="st1" d="M235.3,458.7c-14.6,31.5-26.7,62-26.8,62.2C208.7,520.6,225.9,479.4,235.3,458.7z"/>
	<path class="st1" d="M239.4,413.7c-7.5,0.2-15-4.6-15-4.6s-17.5,21.7-19.2,33.2c0,0-0.1,1-0.2,2.9c-1.4,23.9-1,50.8,3.5,75.8l0,0
		c0.1-0.2,12.2-30.8,26.8-62.2c1.8-4,3.4-7.3,4.4-9.4C239.7,449.3,240.8,431.2,239.4,413.7z"/>
	<path class="st18" d="M145.5,104.4l4.6,5.1c0.7-1.9,1.5-3.9,2.4-5.7C150.8,105.8,147.6,106.7,145.5,104.4z"/>
	<path class="st20" d="M333.3,218.3c-0.1,0.1-0.1,0.3-0.2,0.4C333.1,218.6,333.2,218.5,333.3,218.3z"/>
	<path class="st20" d="M338.6,204.4c-1.1,3.2-2.7,7.8-4.9,12.9C335.5,213.1,337.2,208.8,338.6,204.4z"/>
	<path class="st20" d="M340.1,199.5L340.1,199.5L340.1,199.5L340.1,199.5z"/>
	<path class="st18" d="M152.5,103.7c0.1-0.1,0.2-0.2,0.2-0.3c0.3-0.4,0.6-0.9,1-1.3l-0.3-0.5C153.1,102.3,152.8,103,152.5,103.7z"/>
	<path class="st19" d="M340.1,199.5L340.1,199.5c-0.5,1.6-1,3.2-1.5,4.8C339.6,201.4,340.1,199.5,340.1,199.5z"/>
	<path class="st19" d="M333.7,217.3c-0.1,0.3-0.3,0.7-0.4,1C333.4,218,333.6,217.7,333.7,217.3z"/>
	<path class="st19" d="M326.2,231.9c2.7-4.4,5-8.9,6.9-13.2C331,223.3,328.7,227.7,326.2,231.9L326.2,231.9z"/>
	<path class="st21" d="M267.7,399.3c-1,1.3-2,2.6-3,4.1L267.7,399.3z"/>
	<path class="st21" d="M252,396.3c0,0.8-0.1,1.6-0.3,2.3c11.5,1.3,13,4.8,13,4.8v-0.1c1-1.5,2-2.9,3-4.1v-0.1
		C262.2,397.2,256.8,396.4,252,396.3z"/>
	<path class="st21" d="M212.8,380.2l-0.1,0.4l-0.5,3.9c0.3-1.6,0.5-3,0.8-4.3C212.9,380.2,212.9,380.2,212.8,380.2z"/>
	<path class="st21" d="M224.3,389.2c0.2-0.9,0.4-1.6,0.6-2.1c-4-3.1-8-5.3-11.9-6.8c-0.2,1.3-0.5,2.8-0.8,4.3l-0.1,0.4
		C212.1,385,215.2,383.3,224.3,389.2z"/>
	<path class="st1" d="M252,396.4c-9.3-0.3-16.1,2-16.1,2c-0.3-0.3-0.7-0.6-1-0.9c0,0,0,0,0,0c0,0-0.1-0.1-0.1-0.1
		c0.3,0.3,0.7,0.6,1,0.9c-3.5-4.6-7.2-8.3-11-11.2c-0.2,0.5-0.3,1.3-0.6,2.1c0.1,0,0.1,0.1,0.2,0.1c0,0,0,0,0,0c0,0,0,0,0,0
		c-1.1,4.7-2.7,13.8,0.1,19.8l0,0c0,0,0,0,0.1,0c0,0,0,0,0,0.1l0,0c0.9,0.6,7,4.2,13.5,4.5c0.1,0,0.2,0.1,0.3,0.1
		c0.5,0.1,1.1,0.1,1.5-0.2c0.1-0.1,0.2-0.2,0.3-0.3c2.3-1.3,10-6.3,11.6-14.6c0,0-0.1,0-0.1,0C251.8,397.9,251.9,397.2,252,396.4z"
		/>
	<path class="st0" d="M251.5,388c-0.7-0.1-1.4-0.1-2.1-0.2h-0.1l0.6,1.4L251.5,388z"/>
	<path class="st0" d="M237.2,396l11.1-8.4c-2.2-0.4-4.3-0.9-6.4-1.6c-2.2,3.4-4,6.5-5,9.2c0,0.1-0.1,0.3-0.1,0.4L237.2,396z"/>
	<path class="st0" d="M251.5,388c4.2,0.3,8.3,0,12.2-0.9l-2-6L251.5,388z"/>
	<path class="st0" d="M235.9,398.4l13.9-9.2l-0.6-1.4c-0.1,0-0.1,0-0.2,0C242,393.5,235.9,398.4,235.9,398.4z"/>
	<path class="st0" d="M249.3,387.8l-0.1-0.1l-0.1,0.1C249.1,387.7,249.2,387.7,249.3,387.8z"/>
	<path class="st0" d="M248.3,387.6c0.3,0,0.5,0.1,0.8,0.1l0.1-0.1l-0.2-0.5L248.3,387.6z"/>
	<path class="st0" d="M299.2,324.9c0,0-9.6,8.6-21.4,20.2l0,0.1c-3,2.9-6,5.9-8.9,8.9c0,0.1,0.1,0.2,0.1,0.3
		c-9.9,10.3-20,21.6-26.2,31c2.1,0.7,4.2,1.2,6.4,1.6l0.7-0.5l0.1,0.3c-0.1,0.1-0.2,0.2-0.3,0.2l0.1,0.1h0.1
		c0.7,0.1,1.4,0.2,2.1,0.2l10.3-6.8l2,6c3.6-0.8,7.1-2.2,10.3-3.9c-0.3,0.4-0.2,0.9,0,1.2c-3.1,1.6-6.4,2.8-9.8,3.7l-0.3-1
		c-3.8,0.9-7.9,1.2-12.1,0.9l-1.7,1.1v0l-13.2,8.7c1.8-1.4,6.7-5.4,12.5-10c-0.3-0.1-0.5-0.2-0.8-0.2l-11.1,8.4l-0.4-0.3
		c-0.3,1.4-0.7,2.2-0.8,2.5l-0.1,0.1c0,0,0,0,0.1,0c0,0.1-0.1,0.1-0.1,0.1s0.1-0.1,0.2-0.2c1.1-0.3,7.4-2.1,15.8-1.9c0,0,0,0,0,0
		c4.7,0.1,10.1,0.8,15.5,2.8c0,0,0,0.1-0.1,0.1c0.1,0,0.1,0,0.2,0.1l0.3,0.9c0.2-0.2,0.3-0.4,0.5-0.6c8.6,3.4,17.2,10,23.4,22.2
		C292.6,421.2,313,375.6,299.2,324.9z"/>
	<path class="st0" d="M236.7,395.6c0-0.1,0.1-0.2,0.1-0.4c0.4-2.2,0.8-5.8,0.4-11.1c-0.2-0.1-0.4-0.2-0.7-0.3L236,395L236.7,395.6z"
		/>
	<path class="st0" d="M236.7,379.5l-0.2,4.3c0.2,0.1,0.4,0.2,0.7,0.3C237.1,382.7,237,381.2,236.7,379.5z"/>
	<path class="st0" d="M214.9,370.9L214.9,370.9l-2.1,9.3c0.1,0,0.1,0,0.2,0.1C214.1,374.3,214.9,370.9,214.9,370.9z"/>
	<path class="st0" d="M226.6,376.6l-2.5-5.9l-3.8-2C222,371.6,224.1,374.3,226.6,376.6z"/>
	<path class="st0" d="M236.1,395l-0.1,3.3c0.2-0.9,0.5-1.8,0.8-2.8L236.1,395z"/>
	<path class="st0" d="M236.7,379.8c-1-7.7-3.4-18.1-8.2-32l-0.3,0.4v0l0.3-0.4c-2.8-8-6.4-17.2-11-27.6v0c0,0-34.7,49.9-35.8,60.1
		c0,0,14.2-6.3,31,0.2l0-0.1c0.1,0,0.1,0,0.2,0c3.9,1.5,7.9,3.7,11.9,6.8c0.2-0.6,0.3-1,0.3-1l0.5,0.4c0.2,0.2,0.3,0.5,0.5,0.7
		l-1-0.8c0,0-0.1,0.4-0.3,1c3.8,2.8,7.5,6.5,11.1,11.2l-1.9-4.3c0,0,0.1-0.1,0.1-0.1l1.7,4.1l0.2-3.4l0.5-11.2c0,0-0.1,0-0.1,0
		L236.7,379.8z"/>
	<path class="st0" d="M236.9,395.2c0,0.1-0.1,0.2-0.1,0.4h0.1C236.8,395.5,236.8,395.4,236.9,395.2z"/>
	<path class="st0" d="M236.7,395.6c-0.4,1-0.6,1.9-0.8,2.8C235.9,398.4,236.4,397.5,236.7,395.6L236.7,395.6z"/>
	<path class="st18" d="M164.5,120.8c-6.5-2-12.8-2.6-17.5-1.9c-0.7,2.2-1.3,4.5-1.8,6.7l39.1,11.9
		C185.9,132.1,177,124.6,164.5,120.8z"/>
	<ellipse class="st18" cx="237" cy="161" rx="5.4" ry="5.7"/>
	<ellipse class="st18" cx="179.1" cy="158.1" rx="5.4" ry="5.7"/>
	<path class="st22" d="M220.8,246.1c0,0-21,2.2-31.6-5.7"/>
	<path class="st19" d="M203,210.3c-8.5,0-15.3-7.8-15.3-17.4c0-3.6,1-7,2.6-9.7c-2.9,3.2-4.7,7.6-4.7,12.5c0,9.6,6.9,17.4,15.3,17.4
		c5.3,0,9.9-3,12.7-7.6C210.9,208.5,207.2,210.3,203,210.3z"/>
	<path class="st19" d="M321.4,176.8c0,0,8.3-8.9,18-7C339.4,169.8,325.5,162.4,321.4,176.8z"/>
	<path class="st0" d="M268.9,354.1c0,0-32.4,32.3-33,44.3c0,0,15.3-5.4,31.8,0.8c16.5,6.2,24.9,22,24.9,22s22.4-36.9,6.6-96.3
		C299.2,324.9,275.2,346.6,268.9,354.1z"/>
	<path class="st0" d="M217.6,319.9c0,0,27.3,56.4,18.3,78.5c0,0-11.7-14.5-23.2-17.9c-11.5-3.4-18.7-3.9-31-0.2
		C181.7,380.3,195.8,348.8,217.6,319.9z"/>
	<path class="st21" d="M212.7,380.5L212,385l0.1-0.1l3.5-1.4l-0.3-2.1C215.3,381.4,213.4,380.6,212.7,380.5z"/>
</g>
</svg>
