<?xml version="1.0" encoding="utf-8"?>
<!-- Generator: Adobe Illustrator 27.7.0, SVG Export Plug-In . SVG Version: 6.00 Build 0)  -->
<svg version="1.1" id="레이어_1" xmlns="http://www.w3.org/2000/svg" xmlns:xlink="http://www.w3.org/1999/xlink" x="0px"
	 y="0px" viewBox="0 0 500 700" style="enable-background:new 0 0 500 700;" xml:space="preserve">
<style type="text/css">
	.st0{fill:#5E4126;}
	.st1{fill:#EFB7AD;}
	.st2{clip-path:url(#SVGID_00000125569841146129988610000016937607914277824954_);fill:#D1949E;}
	.st3{clip-path:url(#SVGID_00000072981335677024781390000017308887630882035119_);fill:#F5DBEA;}
	.st4{clip-path:url(#SVGID_00000036226615431753718140000016850984611504797071_);fill:#F5DBEA;}
	.st5{clip-path:url(#SVGID_00000016055012841179939730000006929206465766144652_);fill:#F5DBEA;}
	.st6{clip-path:url(#SVGID_00000049217433731392648990000002370062250793075368_);fill:#F5DBEA;}
	.st7{clip-path:url(#SVGID_00000002357709881652048450000015067643452491715730_);fill:#F5DBEA;}
	.st8{clip-path:url(#SVGID_00000015318892547643087430000018429351773958462345_);fill:#F5DBEA;}
	.st9{clip-path:url(#SVGID_00000078016353214718061700000009417295007682515385_);fill:#F5DBEA;}
	.st10{clip-path:url(#SVGID_00000065779281478559176410000015855864107080370048_);fill:#F5DBEA;}
	.st11{clip-path:url(#SVGID_00000063604341322836031230000007326476265988331955_);fill:#F4E9BE;}
	.st12{clip-path:url(#SVGID_00000099626567097660287560000014879533723019209384_);fill:#F4E9BE;}
	.st13{clip-path:url(#SVGID_00000180326609554552209420000007314034730593849003_);fill:#F4E9BE;}
	.st14{clip-path:url(#SVGID_00000006706122724094484810000016988173014406083714_);fill:#F4E9BE;}
	.st15{clip-path:url(#SVGID_00000015323362888672701680000012229249660464318638_);fill:#F4E9BE;}
	.st16{clip-path:url(#SVGID_00000137814291024283153850000014820629960620078246_);fill:#F4E9BE;}
	.st17{clip-path:url(#SVGID_00000034047419059362357290000015809381905727497649_);fill:#F4E9BE;}
	.st18{clip-path:url(#SVGID_00000065797374842849420040000002203415695977000855_);fill:#F4E9BE;}
	.st19{clip-path:url(#SVGID_00000052074662307027399820000011416217577443201708_);fill:#F5DBEA;}
	.st20{clip-path:url(#SVGID_00000087411273997902175990000010186511277454385053_);fill:#F5DBEA;}
	.st21{clip-path:url(#SVGID_00000010308102996590652710000009647075205417316001_);fill:#F5DBEA;}
	.st22{clip-path:url(#SVGID_00000155841105883095459850000005055357542426567867_);fill:#F5DBEA;}
	.st23{clip-path:url(#SVGID_00000016759840244649106460000002877329301364284826_);fill:#F5DBEA;}
	.st24{clip-path:url(#SVGID_00000086651352506598483700000013697091478020693659_);fill:#F5DBEA;}
	.st25{clip-path:url(#SVGID_00000003064323858406069310000017650245864269417915_);fill:#F5DBEA;}
	.st26{clip-path:url(#SVGID_00000017482448069441169620000005904361279083300280_);fill:#F5DBEA;}
	.st27{clip-path:url(#SVGID_00000102508348700939918900000009884242555392769689_);fill:#F4E9BE;}
	.st28{clip-path:url(#SVGID_00000043443915140009023490000017914237941029886107_);fill:#F4E9BE;}
	.st29{clip-path:url(#SVGID_00000142163818113000510230000015665496910042998409_);fill:#F4E9BE;}
	.st30{clip-path:url(#SVGID_00000040542439663142740980000012159206305774436273_);fill:#F4E9BE;}
	.st31{clip-path:url(#SVGID_00000085245534472372950530000008962098847735226505_);fill:#F4E9BE;}
	.st32{clip-path:url(#SVGID_00000178896254859241458610000009331519639132612259_);fill:#F4E9BE;}
	.st33{clip-path:url(#SVGID_00000142175368444421206650000001312331283613780363_);fill:#F4E9BE;}
	.st34{clip-path:url(#SVGID_00000020375279456304383320000013736647685661734585_);fill:#F4E9BE;}
	.st35{clip-path:url(#SVGID_00000079450598269056074840000007455643073761362816_);fill:#F5DBEA;}
	.st36{clip-path:url(#SVGID_00000090288616386679710890000001925586224544351406_);fill:#F5DBEA;}
	.st37{clip-path:url(#SVGID_00000110442639959303926310000009103504539673156788_);fill:#F5DBEA;}
	.st38{clip-path:url(#SVGID_00000067922872655125036480000012435142073310450314_);fill:#F5DBEA;}
	.st39{clip-path:url(#SVGID_00000132797210116784506650000002385614527628194970_);fill:#F5DBEA;}
	.st40{clip-path:url(#SVGID_00000040577004060999920640000007184934657547673998_);fill:#F5DBEA;}
	.st41{clip-path:url(#SVGID_00000089534599714145100270000001245963291720034228_);fill:#F5DBEA;}
	.st42{clip-path:url(#SVGID_00000070103491707753921570000015614350173175488434_);fill:#F5DBEA;}
	.st43{clip-path:url(#SVGID_00000097491460233159072750000008540857638531631804_);fill:#F4E9BE;}
	.st44{clip-path:url(#SVGID_00000147182227292634868440000011383311834521232822_);fill:#F4E9BE;}
	.st45{clip-path:url(#SVGID_00000032633417855265023320000012054151288091628960_);fill:#F4E9BE;}
	.st46{clip-path:url(#SVGID_00000046304844646455573440000016183694720387733905_);fill:#F4E9BE;}
	.st47{clip-path:url(#SVGID_00000084510305137579665990000013254798932360105657_);fill:#F4E9BE;}
	.st48{clip-path:url(#SVGID_00000011021948528043762970000008780410358328630694_);fill:#F4E9BE;}
	.st49{clip-path:url(#SVGID_00000057854024436291658720000006232737526882652550_);fill:#F4E9BE;}
	.st50{clip-path:url(#SVGID_00000109721262974953797820000014615670158975518854_);fill:#F4E9BE;}
	.st51{clip-path:url(#SVGID_00000004535380279176323380000011374902938619701944_);fill:#F5DBEA;}
	.st52{clip-path:url(#SVGID_00000152261842650173447200000004248254162911542203_);fill:#F5DBEA;}
	.st53{clip-path:url(#SVGID_00000175305287961932903200000007265482416502410430_);fill:#F5DBEA;}
	.st54{clip-path:url(#SVGID_00000065034116420066608450000006549870772477547656_);fill:#F5DBEA;}
	.st55{clip-path:url(#SVGID_00000035506859533408122800000018141130613970915485_);fill:#F5DBEA;}
	.st56{clip-path:url(#SVGID_00000041267272703896140140000010785875107988272553_);fill:#F5DBEA;}
	.st57{clip-path:url(#SVGID_00000008107858663848843670000012936606958285878963_);fill:#F5DBEA;}
	.st58{clip-path:url(#SVGID_00000005951006537312037360000012286743112333960620_);fill:#F5DBEA;}
	.st59{clip-path:url(#SVGID_00000152981933439573737120000006647911359988214958_);fill:#F4E9BE;}
	.st60{clip-path:url(#SVGID_00000070820006516214954730000014189299839663808692_);fill:#F4E9BE;}
	.st61{clip-path:url(#SVGID_00000014619964549502938500000010842555939215574683_);fill:#F4E9BE;}
	.st62{clip-path:url(#SVGID_00000088098343182420558740000012673182013628705949_);fill:#F4E9BE;}
	.st63{clip-path:url(#SVGID_00000118378512363001864750000008684281333315330441_);fill:#F4E9BE;}
	.st64{clip-path:url(#SVGID_00000176041118008002029100000008449309515734729652_);fill:#F4E9BE;}
	.st65{clip-path:url(#SVGID_00000013190219869170433150000013727304251517894580_);fill:#F4E9BE;}
	.st66{clip-path:url(#SVGID_00000170960267348336802420000013597029346657215388_);fill:#F4E9BE;}
	.st67{clip-path:url(#SVGID_00000088114198925263330610000007151755892090905505_);fill:#F5DBEA;}
	.st68{clip-path:url(#SVGID_00000158714249743592338160000001494635498119042445_);fill:#F5DBEA;}
	.st69{clip-path:url(#SVGID_00000028297848125741261600000014338790723169903805_);fill:#F5DBEA;}
	.st70{clip-path:url(#SVGID_00000165939340155306361400000011316493655961443220_);fill:#F5DBEA;}
	.st71{clip-path:url(#SVGID_00000035527838828346547470000009608990551140677551_);fill:#F5DBEA;}
	.st72{clip-path:url(#SVGID_00000143575554478409714870000000890950107337763982_);fill:#F5DBEA;}
	.st73{clip-path:url(#SVGID_00000078026239143715823920000004235772597974705536_);fill:#F5DBEA;}
	.st74{clip-path:url(#SVGID_00000072981398935249018170000005175097926918961309_);fill:#F5DBEA;}
	.st75{clip-path:url(#SVGID_00000119093881316567282640000004702695924340703663_);fill:#F4E9BE;}
	.st76{clip-path:url(#SVGID_00000015330793259632105040000018149115255870570899_);fill:#F4E9BE;}
	.st77{clip-path:url(#SVGID_00000016795782458960485220000008155326289600910011_);fill:#F4E9BE;}
	.st78{clip-path:url(#SVGID_00000139267244679932549990000001947391787527815614_);fill:#F4E9BE;}
	.st79{clip-path:url(#SVGID_00000018222731262397389510000005236362300538667197_);fill:#F4E9BE;}
	.st80{clip-path:url(#SVGID_00000021821180203175445800000017002044991479779495_);fill:#F4E9BE;}
	.st81{clip-path:url(#SVGID_00000138555145870749067500000000105188908257311419_);fill:#F4E9BE;}
	.st82{clip-path:url(#SVGID_00000166648760195567969020000013857438423065159557_);fill:#F4E9BE;}
	.st83{clip-path:url(#SVGID_00000136380571279282998730000003082493872635071913_);fill:#F5DBEA;}
	.st84{clip-path:url(#SVGID_00000162320164367429965560000014713850640500490412_);fill:#F5DBEA;}
	.st85{clip-path:url(#SVGID_00000122719908227250258530000008575526147985844098_);fill:#F5DBEA;}
	.st86{clip-path:url(#SVGID_00000014611633822212635790000002213123402316479918_);fill:#F5DBEA;}
	.st87{clip-path:url(#SVGID_00000036951472504065056950000009835322401633926537_);fill:#F5DBEA;}
	.st88{clip-path:url(#SVGID_00000050644463730396139490000003168894759523369631_);fill:#F5DBEA;}
	.st89{clip-path:url(#SVGID_00000044875890692036724800000004519412296731868054_);fill:#F5DBEA;}
	.st90{clip-path:url(#SVGID_00000100340390452448799910000011190708498946110617_);fill:#F5DBEA;}
	.st91{clip-path:url(#SVGID_00000013168173374157201270000014728339690820652479_);fill:#F4E9BE;}
	.st92{clip-path:url(#SVGID_00000097495933095303271990000013686936196576784546_);fill:#F4E9BE;}
	.st93{clip-path:url(#SVGID_00000101103916501883428070000006388467771614975913_);fill:#F4E9BE;}
	.st94{clip-path:url(#SVGID_00000150782716321637453110000011888228947303571642_);fill:#F4E9BE;}
	.st95{clip-path:url(#SVGID_00000062892832648090195120000000774631403714094720_);fill:#F4E9BE;}
	.st96{clip-path:url(#SVGID_00000090272190407917945500000009856923914018834592_);fill:#F4E9BE;}
	.st97{clip-path:url(#SVGID_00000132057015157423911190000007825422481065775239_);fill:#F4E9BE;}
	.st98{clip-path:url(#SVGID_00000062903865994558526060000008698639872661434792_);fill:#F4E9BE;}
	.st99{fill:#FFFFFF;}
	.st100{fill:#D8AAA4;}
	.st101{fill:#5B5C5F;}
	.st102{fill:#C38A94;}
	.st103{fill:none;stroke:#5B5C5F;stroke-miterlimit:10;}
	.st104{fill:#D5646D;}
</style>
<g>
	<path class="st0" d="M404.8,32.6c-7.9,3.1-15.9,5-24.2,5.7c2.6-4.4,4.8-9.1,6.5-14c0.9-2.7-2.1-6.1-4.9-4.9
		c-10.3,4.3-21.3,5.9-32.2,4.4c1.8-3,3.5-6.1,5-9.4c1.3-2.8-0.9-7.3-4.5-5.9c-27.2,10.7-56.3,15-85.4,12.3c-0.7-0.1-1.3,0-1.8,0.3
		c-33-0.1-66.9,11.4-88.4,38.1c-0.1,0.1-0.3,0.3-0.4,0.4c-1,1.5-2.1,2.8-3.2,4.3c-10.6,0.4-20.9,5.4-28.6,13.2
		c-11.2,11.3-15.6,27.7-15,43.5c0.4,10.2,2.7,22.6,7.4,33.7c4.7-5.9,11-9.7,18.2-10.3c0.6,0,1.1-0.1,1.7-0.1
		c15.2,0,27.6,15.1,27.6,33.7c0,0.3,0,0.6,0,0.9c5.7-3.3,9.9-8.8,11.8-16.1c1.5-5.7,1.4-13.3,5.5-17.8c4.9-5.5,14.4-3.5,20.8-3.8
		c25.8-1.1,50.3-16.9,63.1-39.9c3.2-5.7,4.9-11.6,7.2-17.7c3.2-8.9,14-1.5,19.3,1.6c5.8,3.4,11.2,7.3,16.2,11.7
		c0.8,1.2,1.6,2.4,2.6,3.4c1.3,1.4,2.7,2.4,4.3,3.2c0.4,0.5,0.9,0.9,1.3,1.4c-1.7,5.6,1,12.6,8.2,13.2l-3.1,12.7
		c15.7-0.6,61.8-78.4,61.8-78.4l0,0c2.8-4.5,5.5-9,8.1-13.6C410.9,35.7,408.2,31.2,404.8,32.6z"/>
	<path class="st1" d="M350.9,137.4c-0.6-2.3-1.2-4.5-1.8-6.7c-1-3.2-2-6.3-3.2-9.3c-0.7-1.9-1.5-3.9-2.4-5.7
		c-0.1-0.1-0.2-0.2-0.2-0.3c-0.3-0.4-0.6-0.9-1-1.3c-3-4.2-6.3-8.1-9.9-11.7l0,0c-6.6-6.8-14.1-12.6-22.2-17.3
		c-5.4-3.1-16.1-10.5-19.3-1.6c-2.2,6.1-4,12-7.2,17.7c-12.8,22.9-37.3,38.7-63.1,39.9c-6.5,0.3-15.9-1.7-20.8,3.8
		c-4.1,4.5-4,12.2-5.5,17.8c-1.9,7.2-6.1,12.8-11.8,16.1v0.1l0,0v-0.1c0-0.3,0-0.6,0-0.9c0-18.6-12.3-33.7-27.6-33.7
		c-0.6,0-1.1,0-1.7,0.1c-7.1,0.5-13.5,4.4-18.2,10.3c-4.8,6.1-7.7,14.3-7.7,23.4c0,18.6,12.3,33.7,27.6,33.7c0.3,0,0.6,0,1,0l0,0
		c3.9-0.2,7.5-1.3,10.8-3.2c0.4-0.2,0.7-0.4,1.1-0.7l0,0c-0.4,0.2-0.7,0.5-1.1,0.7l0,0c-2.7,12.3,3,35.1,3.1,35.6
		c1.7,2.8,3.5,5.5,5.4,8.1l0,0c16.3,22.8,39.5,38.2,65.7,41.9c3.9,0.5,7.8,0.8,11.9,0.8c7,0,13.7-0.8,20.3-2.4L273,292l0,0l0.1,0.5
		c46.7-11.3,82-60.7,82-120C355.1,160.1,353.7,148.4,350.9,137.4z"/>
	<g>
		<g>
			<defs>
				<path id="SVGID_1_" d="M278.8,327.9l-5,44c-5.3,9.7-11.5,21.1-18.1,33.2c-2.7-0.4-6.3-0.8-10.4-0.7c-4.4,0.1-9.4,0.8-14.5,2.5
					c-6.5-11.9-12.6-23.1-17.8-32.6l-5-44c0,0-85.5,41-104.6,57.7c0,0,1.3,211.8,45.3,263.6l60.2,27.7l29.3,12.6l11.2-14.4l0,0
					l9.2,14.4l21.1-15.8l58.2-26.8c44-51.9,45.3-263.6,45.3-263.6C364.3,368.9,278.8,327.9,278.8,327.9z"/>
			</defs>
			<clipPath id="SVGID_00000025416164241151252190000001538771702969478786_">
				<use xlink:href="#SVGID_1_"  style="overflow:visible;"/>
			</clipPath>
			<path style="clip-path:url(#SVGID_00000025416164241151252190000001538771702969478786_);fill:#D1949E;" d="M278.8,327.9l-5,44
				c-5.3,9.7-11.5,21.1-18.1,33.2c-2.7-0.4-6.3-0.8-10.4-0.7c-4.4,0.1-9.4,0.8-14.5,2.5c-6.5-11.9-12.6-23.1-17.8-32.6l-5-44
				c0,0-85.5,41-104.6,57.7c0,0,1.3,211.8,45.3,263.6l60.2,27.7l29.3,12.6l11.2-14.4l0,0l9.2,14.4l21.1-15.8l58.2-26.8
				c44-51.9,45.3-263.6,45.3-263.6C364.3,368.9,278.8,327.9,278.8,327.9z"/>
		</g>
		<g>
			<defs>
				<path id="SVGID_00000062875404325206565040000018366364626093062024_" d="M278.8,327.9l-5,44c-5.3,9.7-11.5,21.1-18.1,33.2
					c-2.7-0.4-6.3-0.8-10.4-0.7c-4.4,0.1-9.4,0.8-14.5,2.5c-6.5-11.9-12.6-23.1-17.8-32.6l-5-44c0,0-85.5,41-104.6,57.7
					c0,0,1.3,211.8,45.3,263.6l60.2,27.7l29.3,12.6l11.2-14.4l0,0l9.2,14.4l21.1-15.8l58.2-26.8c44-51.9,45.3-263.6,45.3-263.6
					C364.3,368.9,278.8,327.9,278.8,327.9z"/>
			</defs>
			<clipPath id="SVGID_00000064342934451396814190000018044383478257133734_">
				<use xlink:href="#SVGID_00000062875404325206565040000018366364626093062024_"  style="overflow:visible;"/>
			</clipPath>
			<path style="clip-path:url(#SVGID_00000064342934451396814190000018044383478257133734_);fill:#F5DBEA;" d="M145.8,358.9
				c0,13.2-5.1,23.9-5.1,23.9s-5.1-10.7-5.1-23.9s5.1-23.9,5.1-23.9S145.8,345.7,145.8,358.9z"/>
		</g>
		<g>
			<defs>
				<path id="SVGID_00000080203587800102012060000017454305178760913331_" d="M278.8,327.9l-5,44c-5.3,9.7-11.5,21.1-18.1,33.2
					c-2.7-0.4-6.3-0.8-10.4-0.7c-4.4,0.1-9.4,0.8-14.5,2.5c-6.5-11.9-12.6-23.1-17.8-32.6l-5-44c0,0-85.5,41-104.6,57.7
					c0,0,1.3,211.8,45.3,263.6l60.2,27.7l29.3,12.6l11.2-14.4l0,0l9.2,14.4l21.1-15.8l58.2-26.8c44-51.9,45.3-263.6,45.3-263.6
					C364.3,368.9,278.8,327.9,278.8,327.9z"/>
			</defs>
			<clipPath id="SVGID_00000047782518008136390320000003030374271015706535_">
				<use xlink:href="#SVGID_00000080203587800102012060000017454305178760913331_"  style="overflow:visible;"/>
			</clipPath>
			<path style="clip-path:url(#SVGID_00000047782518008136390320000003030374271015706535_);fill:#F5DBEA;" d="M161.2,369.5
				c-9.3,9.3-20.5,13.3-20.5,13.3s3.9-11.2,13.3-20.5c9.3-9.3,20.5-13.3,20.5-13.3S170.5,360.2,161.2,369.5z"/>
		</g>
		<g>
			<defs>
				<path id="SVGID_00000113315002232414842150000006814738059698792853_" d="M278.8,327.9l-5,44c-5.3,9.7-11.5,21.1-18.1,33.2
					c-2.7-0.4-6.3-0.8-10.4-0.7c-4.4,0.1-9.4,0.8-14.5,2.5c-6.5-11.9-12.6-23.1-17.8-32.6l-5-44c0,0-85.5,41-104.6,57.7
					c0,0,1.3,211.8,45.3,263.6l60.2,27.7l29.3,12.6l11.2-14.4l0,0l9.2,14.4l21.1-15.8l58.2-26.8c44-51.9,45.3-263.6,45.3-263.6
					C364.3,368.9,278.8,327.9,278.8,327.9z"/>
			</defs>
			<clipPath id="SVGID_00000046330483752775919900000017296481994281732539_">
				<use xlink:href="#SVGID_00000113315002232414842150000006814738059698792853_"  style="overflow:visible;"/>
			</clipPath>
			<path style="clip-path:url(#SVGID_00000046330483752775919900000017296481994281732539_);fill:#F5DBEA;" d="M164.6,387.9
				c-13.2,0-23.9-5.1-23.9-5.1s10.7-5.1,23.9-5.1s23.9,5.1,23.9,5.1S177.8,387.9,164.6,387.9z"/>
		</g>
		<g>
			<defs>
				<path id="SVGID_00000010293668179052901770000001792486262284577169_" d="M278.8,327.9l-5,44c-5.3,9.7-11.5,21.1-18.1,33.2
					c-2.7-0.4-6.3-0.8-10.4-0.7c-4.4,0.1-9.4,0.8-14.5,2.5c-6.5-11.9-12.6-23.1-17.8-32.6l-5-44c0,0-85.5,41-104.6,57.7
					c0,0,1.3,211.8,45.3,263.6l60.2,27.7l29.3,12.6l11.2-14.4l0,0l9.2,14.4l21.1-15.8l58.2-26.8c44-51.9,45.3-263.6,45.3-263.6
					C364.3,368.9,278.8,327.9,278.8,327.9z"/>
			</defs>
			<clipPath id="SVGID_00000072258190283832757660000012068933316390969740_">
				<use xlink:href="#SVGID_00000010293668179052901770000001792486262284577169_"  style="overflow:visible;"/>
			</clipPath>
			<path style="clip-path:url(#SVGID_00000072258190283832757660000012068933316390969740_);fill:#F5DBEA;" d="M154,403.3
				c-9.3-9.3-13.3-20.5-13.3-20.5s11.2,3.9,20.5,13.3c9.3,9.3,13.3,20.5,13.3,20.5S163.3,412.6,154,403.3z"/>
		</g>
		<g>
			<defs>
				<path id="SVGID_00000096743967502275167100000012951686665161392534_" d="M278.8,327.9l-5,44c-5.3,9.7-11.5,21.1-18.1,33.2
					c-2.7-0.4-6.3-0.8-10.4-0.7c-4.4,0.1-9.4,0.8-14.5,2.5c-6.5-11.9-12.6-23.1-17.8-32.6l-5-44c0,0-85.5,41-104.6,57.7
					c0,0,1.3,211.8,45.3,263.6l60.2,27.7l29.3,12.6l11.2-14.4l0,0l9.2,14.4l21.1-15.8l58.2-26.8c44-51.9,45.3-263.6,45.3-263.6
					C364.3,368.9,278.8,327.9,278.8,327.9z"/>
			</defs>
			<clipPath id="SVGID_00000026150428165678821390000017623806524343211666_">
				<use xlink:href="#SVGID_00000096743967502275167100000012951686665161392534_"  style="overflow:visible;"/>
			</clipPath>
			<path style="clip-path:url(#SVGID_00000026150428165678821390000017623806524343211666_);fill:#F5DBEA;" d="M135.6,406.7
				c0-13.2,5.1-23.9,5.1-23.9s5.1,10.7,5.1,23.9c0,13.2-5.1,23.9-5.1,23.9S135.6,419.8,135.6,406.7z"/>
		</g>
		<g>
			<defs>
				<path id="SVGID_00000053546463477034090510000017869103418222424718_" d="M278.8,327.9l-5,44c-5.3,9.7-11.5,21.1-18.1,33.2
					c-2.7-0.4-6.3-0.8-10.4-0.7c-4.4,0.1-9.4,0.8-14.5,2.5c-6.5-11.9-12.6-23.1-17.8-32.6l-5-44c0,0-85.5,41-104.6,57.7
					c0,0,1.3,211.8,45.3,263.6l60.2,27.7l29.3,12.6l11.2-14.4l0,0l9.2,14.4l21.1-15.8l58.2-26.8c44-51.9,45.3-263.6,45.3-263.6
					C364.3,368.9,278.8,327.9,278.8,327.9z"/>
			</defs>
			<clipPath id="SVGID_00000046342035615089381100000010888894825403475605_">
				<use xlink:href="#SVGID_00000053546463477034090510000017869103418222424718_"  style="overflow:visible;"/>
			</clipPath>
			<path style="clip-path:url(#SVGID_00000046342035615089381100000010888894825403475605_);fill:#F5DBEA;" d="M120.2,396
				c9.3-9.3,20.5-13.3,20.5-13.3s-3.9,11.2-13.3,20.5c-9.3,9.3-20.5,13.3-20.5,13.3S110.9,405.4,120.2,396z"/>
		</g>
		<g>
			<defs>
				<path id="SVGID_00000159451816897521823760000010739930417455990189_" d="M278.8,327.9l-5,44c-5.3,9.7-11.5,21.1-18.1,33.2
					c-2.7-0.4-6.3-0.8-10.4-0.7c-4.4,0.1-9.4,0.8-14.5,2.5c-6.5-11.9-12.6-23.1-17.8-32.6l-5-44c0,0-85.5,41-104.6,57.7
					c0,0,1.3,211.8,45.3,263.6l60.2,27.7l29.3,12.6l11.2-14.4l0,0l9.2,14.4l21.1-15.8l58.2-26.8c44-51.9,45.3-263.6,45.3-263.6
					C364.3,368.9,278.8,327.9,278.8,327.9z"/>
			</defs>
			<clipPath id="SVGID_00000117675505912607468350000015530809955762938549_">
				<use xlink:href="#SVGID_00000159451816897521823760000010739930417455990189_"  style="overflow:visible;"/>
			</clipPath>
			<path style="clip-path:url(#SVGID_00000117675505912607468350000015530809955762938549_);fill:#F5DBEA;" d="M116.8,377.7
				c13.2,0,23.9,5.1,23.9,5.1s-10.7,5.1-23.9,5.1S93,382.8,93,382.8S103.7,377.7,116.8,377.7z"/>
		</g>
		<g>
			<defs>
				<path id="SVGID_00000065043528186768242940000017079676515189827005_" d="M278.8,327.9l-5,44c-5.3,9.7-11.5,21.1-18.1,33.2
					c-2.7-0.4-6.3-0.8-10.4-0.7c-4.4,0.1-9.4,0.8-14.5,2.5c-6.5-11.9-12.6-23.1-17.8-32.6l-5-44c0,0-85.5,41-104.6,57.7
					c0,0,1.3,211.8,45.3,263.6l60.2,27.7l29.3,12.6l11.2-14.4l0,0l9.2,14.4l21.1-15.8l58.2-26.8c44-51.9,45.3-263.6,45.3-263.6
					C364.3,368.9,278.8,327.9,278.8,327.9z"/>
			</defs>
			<clipPath id="SVGID_00000167370860874436427290000017836413135288511132_">
				<use xlink:href="#SVGID_00000065043528186768242940000017079676515189827005_"  style="overflow:visible;"/>
			</clipPath>
			<path style="clip-path:url(#SVGID_00000167370860874436427290000017836413135288511132_);fill:#F5DBEA;" d="M127.5,362.3
				c9.3,9.3,13.3,20.5,13.3,20.5s-11.2-3.9-20.5-13.3C110.9,360.2,107,349,107,349S118.1,353,127.5,362.3z"/>
		</g>
		<g>
			<defs>
				<path id="SVGID_00000177460043834344114070000003213917421353344662_" d="M278.8,327.9l-5,44c-5.3,9.7-11.5,21.1-18.1,33.2
					c-2.7-0.4-6.3-0.8-10.4-0.7c-4.4,0.1-9.4,0.8-14.5,2.5c-6.5-11.9-12.6-23.1-17.8-32.6l-5-44c0,0-85.5,41-104.6,57.7
					c0,0,1.3,211.8,45.3,263.6l60.2,27.7l29.3,12.6l11.2-14.4l0,0l9.2,14.4l21.1-15.8l58.2-26.8c44-51.9,45.3-263.6,45.3-263.6
					C364.3,368.9,278.8,327.9,278.8,327.9z"/>
			</defs>
			<clipPath id="SVGID_00000022522324774104543170000001151233710032273051_">
				<use xlink:href="#SVGID_00000177460043834344114070000003213917421353344662_"  style="overflow:visible;"/>
			</clipPath>
			<path style="clip-path:url(#SVGID_00000022522324774104543170000001151233710032273051_);fill:#F4E9BE;" d="M198.7,398.9
				c0,8.3-3.2,15-3.2,15s-3.2-6.7-3.2-15s3.2-15,3.2-15S198.7,390.6,198.7,398.9z"/>
		</g>
		<g>
			<defs>
				<path id="SVGID_00000120516364886605743360000006497173793018707107_" d="M278.8,327.9l-5,44c-5.3,9.7-11.5,21.1-18.1,33.2
					c-2.7-0.4-6.3-0.8-10.4-0.7c-4.4,0.1-9.4,0.8-14.5,2.5c-6.5-11.9-12.6-23.1-17.8-32.6l-5-44c0,0-85.5,41-104.6,57.7
					c0,0,1.3,211.8,45.3,263.6l60.2,27.7l29.3,12.6l11.2-14.4l0,0l9.2,14.4l21.1-15.8l58.2-26.8c44-51.9,45.3-263.6,45.3-263.6
					C364.3,368.9,278.8,327.9,278.8,327.9z"/>
			</defs>
			<clipPath id="SVGID_00000083088376269195745850000018213996173763786672_">
				<use xlink:href="#SVGID_00000120516364886605743360000006497173793018707107_"  style="overflow:visible;"/>
			</clipPath>
			<path style="clip-path:url(#SVGID_00000083088376269195745850000018213996173763786672_);fill:#F4E9BE;" d="M208.4,405.6
				c-5.9,5.9-12.9,8.3-12.9,8.3s2.5-7,8.3-12.9s12.9-8.3,12.9-8.3S214.2,399.7,208.4,405.6z"/>
		</g>
		<g>
			<defs>
				<path id="SVGID_00000173845690885262654580000007175712436204254121_" d="M278.8,327.9l-5,44c-5.3,9.7-11.5,21.1-18.1,33.2
					c-2.7-0.4-6.3-0.8-10.4-0.7c-4.4,0.1-9.4,0.8-14.5,2.5c-6.5-11.9-12.6-23.1-17.8-32.6l-5-44c0,0-85.5,41-104.6,57.7
					c0,0,1.3,211.8,45.3,263.6l60.2,27.7l29.3,12.6l11.2-14.4l0,0l9.2,14.4l21.1-15.8l58.2-26.8c44-51.9,45.3-263.6,45.3-263.6
					C364.3,368.9,278.8,327.9,278.8,327.9z"/>
			</defs>
			<clipPath id="SVGID_00000127732071224755045320000002438899978662582155_">
				<use xlink:href="#SVGID_00000173845690885262654580000007175712436204254121_"  style="overflow:visible;"/>
			</clipPath>
			<path style="clip-path:url(#SVGID_00000127732071224755045320000002438899978662582155_);fill:#F4E9BE;" d="M210.5,417.1
				c-8.3,0-15-3.2-15-3.2s6.7-3.2,15-3.2s15,3.2,15,3.2S218.8,417.1,210.5,417.1z"/>
		</g>
		<g>
			<defs>
				<path id="SVGID_00000091015223924185528440000009115435411310272150_" d="M278.8,327.9l-5,44c-5.3,9.7-11.5,21.1-18.1,33.2
					c-2.7-0.4-6.3-0.8-10.4-0.7c-4.4,0.1-9.4,0.8-14.5,2.5c-6.5-11.9-12.6-23.1-17.8-32.6l-5-44c0,0-85.5,41-104.6,57.7
					c0,0,1.3,211.8,45.3,263.6l60.2,27.7l29.3,12.6l11.2-14.4l0,0l9.2,14.4l21.1-15.8l58.2-26.8c44-51.9,45.3-263.6,45.3-263.6
					C364.3,368.9,278.8,327.9,278.8,327.9z"/>
			</defs>
			<clipPath id="SVGID_00000175319198087488028020000015058636018227289219_">
				<use xlink:href="#SVGID_00000091015223924185528440000009115435411310272150_"  style="overflow:visible;"/>
			</clipPath>
			<path style="clip-path:url(#SVGID_00000175319198087488028020000015058636018227289219_);fill:#F4E9BE;" d="M203.8,426.8
				c-5.9-5.9-8.3-12.9-8.3-12.9s7,2.5,12.9,8.3c5.9,5.9,8.3,12.9,8.3,12.9S209.7,432.7,203.8,426.8z"/>
		</g>
		<g>
			<defs>
				<path id="SVGID_00000183214481553740883640000001943589782304378300_" d="M278.8,327.9l-5,44c-5.3,9.7-11.5,21.1-18.1,33.2
					c-2.7-0.4-6.3-0.8-10.4-0.7c-4.4,0.1-9.4,0.8-14.5,2.5c-6.5-11.9-12.6-23.1-17.8-32.6l-5-44c0,0-85.5,41-104.6,57.7
					c0,0,1.3,211.8,45.3,263.6l60.2,27.7l29.3,12.6l11.2-14.4l0,0l9.2,14.4l21.1-15.8l58.2-26.8c44-51.9,45.3-263.6,45.3-263.6
					C364.3,368.9,278.8,327.9,278.8,327.9z"/>
			</defs>
			<clipPath id="SVGID_00000097477085798830075860000010055539031142030499_">
				<use xlink:href="#SVGID_00000183214481553740883640000001943589782304378300_"  style="overflow:visible;"/>
			</clipPath>
			<path style="clip-path:url(#SVGID_00000097477085798830075860000010055539031142030499_);fill:#F4E9BE;" d="M192.3,428.9
				c0-8.3,3.2-15,3.2-15s3.2,6.7,3.2,15s-3.2,15-3.2,15S192.3,437.2,192.3,428.9z"/>
		</g>
		<g>
			<defs>
				<path id="SVGID_00000126324768845631715380000006685020596107737762_" d="M278.8,327.9l-5,44c-5.3,9.7-11.5,21.1-18.1,33.2
					c-2.7-0.4-6.3-0.8-10.4-0.7c-4.4,0.1-9.4,0.8-14.5,2.5c-6.5-11.9-12.6-23.1-17.8-32.6l-5-44c0,0-85.5,41-104.6,57.7
					c0,0,1.3,211.8,45.3,263.6l60.2,27.7l29.3,12.6l11.2-14.4l0,0l9.2,14.4l21.1-15.8l58.2-26.8c44-51.9,45.3-263.6,45.3-263.6
					C364.3,368.9,278.8,327.9,278.8,327.9z"/>
			</defs>
			<clipPath id="SVGID_00000026160091205160922240000002479158936617534593_">
				<use xlink:href="#SVGID_00000126324768845631715380000006685020596107737762_"  style="overflow:visible;"/>
			</clipPath>
			<path style="clip-path:url(#SVGID_00000026160091205160922240000002479158936617534593_);fill:#F4E9BE;" d="M182.6,422.3
				c5.9-5.9,12.9-8.3,12.9-8.3s-2.5,7-8.3,12.9c-5.9,5.9-12.9,8.3-12.9,8.3S176.7,428.1,182.6,422.3z"/>
		</g>
		<g>
			<defs>
				<path id="SVGID_00000140706905500990484820000007047989410671494841_" d="M278.8,327.9l-5,44c-5.3,9.7-11.5,21.1-18.1,33.2
					c-2.7-0.4-6.3-0.8-10.4-0.7c-4.4,0.1-9.4,0.8-14.5,2.5c-6.5-11.9-12.6-23.1-17.8-32.6l-5-44c0,0-85.5,41-104.6,57.7
					c0,0,1.3,211.8,45.3,263.6l60.2,27.7l29.3,12.6l11.2-14.4l0,0l9.2,14.4l21.1-15.8l58.2-26.8c44-51.9,45.3-263.6,45.3-263.6
					C364.3,368.9,278.8,327.9,278.8,327.9z"/>
			</defs>
			<clipPath id="SVGID_00000095310410238158434390000000421861783607568813_">
				<use xlink:href="#SVGID_00000140706905500990484820000007047989410671494841_"  style="overflow:visible;"/>
			</clipPath>
			<path style="clip-path:url(#SVGID_00000095310410238158434390000000421861783607568813_);fill:#F4E9BE;" d="M180.5,410.7
				c8.3,0,15,3.2,15,3.2s-6.7,3.2-15,3.2s-15-3.2-15-3.2S172.2,410.7,180.5,410.7z"/>
		</g>
		<g>
			<defs>
				<path id="SVGID_00000162329630675375882480000005559100740380647552_" d="M278.8,327.9l-5,44c-5.3,9.7-11.5,21.1-18.1,33.2
					c-2.7-0.4-6.3-0.8-10.4-0.7c-4.4,0.1-9.4,0.8-14.5,2.5c-6.5-11.9-12.6-23.1-17.8-32.6l-5-44c0,0-85.5,41-104.6,57.7
					c0,0,1.3,211.8,45.3,263.6l60.2,27.7l29.3,12.6l11.2-14.4l0,0l9.2,14.4l21.1-15.8l58.2-26.8c44-51.9,45.3-263.6,45.3-263.6
					C364.3,368.9,278.8,327.9,278.8,327.9z"/>
			</defs>
			<clipPath id="SVGID_00000101791396857947821620000004221009840987500161_">
				<use xlink:href="#SVGID_00000162329630675375882480000005559100740380647552_"  style="overflow:visible;"/>
			</clipPath>
			<path style="clip-path:url(#SVGID_00000101791396857947821620000004221009840987500161_);fill:#F4E9BE;" d="M187.1,401
				c5.9,5.9,8.3,12.9,8.3,12.9s-7-2.5-12.9-8.3c-5.9-5.9-8.3-12.9-8.3-12.9S181.3,395.2,187.1,401z"/>
		</g>
		<g>
			<defs>
				<path id="SVGID_00000162336429934457100800000010148751292417472929_" d="M278.8,327.9l-5,44c-5.3,9.7-11.5,21.1-18.1,33.2
					c-2.7-0.4-6.3-0.8-10.4-0.7c-4.4,0.1-9.4,0.8-14.5,2.5c-6.5-11.9-12.6-23.1-17.8-32.6l-5-44c0,0-85.5,41-104.6,57.7
					c0,0,1.3,211.8,45.3,263.6l60.2,27.7l29.3,12.6l11.2-14.4l0,0l9.2,14.4l21.1-15.8l58.2-26.8c44-51.9,45.3-263.6,45.3-263.6
					C364.3,368.9,278.8,327.9,278.8,327.9z"/>
			</defs>
			<clipPath id="SVGID_00000015323862637775368140000011393818545771897503_">
				<use xlink:href="#SVGID_00000162336429934457100800000010148751292417472929_"  style="overflow:visible;"/>
			</clipPath>
			<path style="clip-path:url(#SVGID_00000015323862637775368140000011393818545771897503_);fill:#F5DBEA;" d="M315.1,441
				c0,13.2-5.1,23.9-5.1,23.9s-5.1-10.7-5.1-23.9s5.1-23.9,5.1-23.9S315.1,427.8,315.1,441z"/>
		</g>
		<g>
			<defs>
				<path id="SVGID_00000108303796068690969310000010729481654665068164_" d="M278.8,327.9l-5,44c-5.3,9.7-11.5,21.1-18.1,33.2
					c-2.7-0.4-6.3-0.8-10.4-0.7c-4.4,0.1-9.4,0.8-14.5,2.5c-6.5-11.9-12.6-23.1-17.8-32.6l-5-44c0,0-85.5,41-104.6,57.7
					c0,0,1.3,211.8,45.3,263.6l60.2,27.7l29.3,12.6l11.2-14.4l0,0l9.2,14.4l21.1-15.8l58.2-26.8c44-51.9,45.3-263.6,45.3-263.6
					C364.3,368.9,278.8,327.9,278.8,327.9z"/>
			</defs>
			<clipPath id="SVGID_00000182526431791137678680000005322390023850468264_">
				<use xlink:href="#SVGID_00000108303796068690969310000010729481654665068164_"  style="overflow:visible;"/>
			</clipPath>
			<path style="clip-path:url(#SVGID_00000182526431791137678680000005322390023850468264_);fill:#F5DBEA;" d="M330.4,451.6
				c-9.3,9.3-20.5,13.3-20.5,13.3s3.9-11.2,13.3-20.5c9.3-9.3,20.5-13.3,20.5-13.3S339.8,442.3,330.4,451.6z"/>
		</g>
		<g>
			<defs>
				<path id="SVGID_00000137826083896514895750000003069608922118010267_" d="M278.8,327.9l-5,44c-5.3,9.7-11.5,21.1-18.1,33.2
					c-2.7-0.4-6.3-0.8-10.4-0.7c-4.4,0.1-9.4,0.8-14.5,2.5c-6.5-11.9-12.6-23.1-17.8-32.6l-5-44c0,0-85.5,41-104.6,57.7
					c0,0,1.3,211.8,45.3,263.6l60.2,27.7l29.3,12.6l11.2-14.4l0,0l9.2,14.4l21.1-15.8l58.2-26.8c44-51.9,45.3-263.6,45.3-263.6
					C364.3,368.9,278.8,327.9,278.8,327.9z"/>
			</defs>
			<clipPath id="SVGID_00000094585353358678117380000015446095320479660945_">
				<use xlink:href="#SVGID_00000137826083896514895750000003069608922118010267_"  style="overflow:visible;"/>
			</clipPath>
			<path style="clip-path:url(#SVGID_00000094585353358678117380000015446095320479660945_);fill:#F5DBEA;" d="M333.8,470
				c-13.2,0-23.9-5.1-23.9-5.1s10.7-5.1,23.9-5.1s23.9,5.1,23.9,5.1S347,470,333.8,470z"/>
		</g>
		<g>
			<defs>
				<path id="SVGID_00000058551979823327275900000005840806405892026780_" d="M278.8,327.9l-5,44c-5.3,9.7-11.5,21.1-18.1,33.2
					c-2.7-0.4-6.3-0.8-10.4-0.7c-4.4,0.1-9.4,0.8-14.5,2.5c-6.5-11.9-12.6-23.1-17.8-32.6l-5-44c0,0-85.5,41-104.6,57.7
					c0,0,1.3,211.8,45.3,263.6l60.2,27.7l29.3,12.6l11.2-14.4l0,0l9.2,14.4l21.1-15.8l58.2-26.8c44-51.9,45.3-263.6,45.3-263.6
					C364.3,368.9,278.8,327.9,278.8,327.9z"/>
			</defs>
			<clipPath id="SVGID_00000070105431716381601010000001487029713054869653_">
				<use xlink:href="#SVGID_00000058551979823327275900000005840806405892026780_"  style="overflow:visible;"/>
			</clipPath>
			<path style="clip-path:url(#SVGID_00000070105431716381601010000001487029713054869653_);fill:#F5DBEA;" d="M323.2,485.4
				c-9.3-9.3-13.3-20.5-13.3-20.5s11.2,3.9,20.5,13.3c9.3,9.3,13.3,20.5,13.3,20.5S332.5,494.7,323.2,485.4z"/>
		</g>
		<g>
			<defs>
				<path id="SVGID_00000128462043949794389900000000846226829151700924_" d="M278.8,327.9l-5,44c-5.3,9.7-11.5,21.1-18.1,33.2
					c-2.7-0.4-6.3-0.8-10.4-0.7c-4.4,0.1-9.4,0.8-14.5,2.5c-6.5-11.9-12.6-23.1-17.8-32.6l-5-44c0,0-85.5,41-104.6,57.7
					c0,0,1.3,211.8,45.3,263.6l60.2,27.7l29.3,12.6l11.2-14.4l0,0l9.2,14.4l21.1-15.8l58.2-26.8c44-51.9,45.3-263.6,45.3-263.6
					C364.3,368.9,278.8,327.9,278.8,327.9z"/>
			</defs>
			<clipPath id="SVGID_00000177469996499519930040000005577666860007789987_">
				<use xlink:href="#SVGID_00000128462043949794389900000000846226829151700924_"  style="overflow:visible;"/>
			</clipPath>
			<path style="clip-path:url(#SVGID_00000177469996499519930040000005577666860007789987_);fill:#F5DBEA;" d="M304.8,488.8
				c0-13.2,5.1-23.9,5.1-23.9s5.1,10.7,5.1,23.9s-5.1,23.9-5.1,23.9S304.8,502,304.8,488.8z"/>
		</g>
		<g>
			<defs>
				<path id="SVGID_00000112627248278052535610000006498954353983952798_" d="M278.8,327.9l-5,44c-5.3,9.7-11.5,21.1-18.1,33.2
					c-2.7-0.4-6.3-0.8-10.4-0.7c-4.4,0.1-9.4,0.8-14.5,2.5c-6.5-11.9-12.6-23.1-17.8-32.6l-5-44c0,0-85.5,41-104.6,57.7
					c0,0,1.3,211.8,45.3,263.6l60.2,27.7l29.3,12.6l11.2-14.4l0,0l9.2,14.4l21.1-15.8l58.2-26.8c44-51.9,45.3-263.6,45.3-263.6
					C364.3,368.9,278.8,327.9,278.8,327.9z"/>
			</defs>
			<clipPath id="SVGID_00000038403488436760867440000004218768163760209339_">
				<use xlink:href="#SVGID_00000112627248278052535610000006498954353983952798_"  style="overflow:visible;"/>
			</clipPath>
			<path style="clip-path:url(#SVGID_00000038403488436760867440000004218768163760209339_);fill:#F5DBEA;" d="M289.4,478.2
				c9.3-9.3,20.5-13.3,20.5-13.3s-3.9,11.2-13.3,20.5c-9.3,9.3-20.5,13.3-20.5,13.3S280.1,487.5,289.4,478.2z"/>
		</g>
		<g>
			<defs>
				<path id="SVGID_00000133525386813432849970000012603188363969267588_" d="M278.8,327.9l-5,44c-5.3,9.7-11.5,21.1-18.1,33.2
					c-2.7-0.4-6.3-0.8-10.4-0.7c-4.4,0.1-9.4,0.8-14.5,2.5c-6.5-11.9-12.6-23.1-17.8-32.6l-5-44c0,0-85.5,41-104.6,57.7
					c0,0,1.3,211.8,45.3,263.6l60.2,27.7l29.3,12.6l11.2-14.4l0,0l9.2,14.4l21.1-15.8l58.2-26.8c44-51.9,45.3-263.6,45.3-263.6
					C364.3,368.9,278.8,327.9,278.8,327.9z"/>
			</defs>
			<clipPath id="SVGID_00000080205668087714679610000017756728732065433787_">
				<use xlink:href="#SVGID_00000133525386813432849970000012603188363969267588_"  style="overflow:visible;"/>
			</clipPath>
			<path style="clip-path:url(#SVGID_00000080205668087714679610000017756728732065433787_);fill:#F5DBEA;" d="M286.1,459.8
				c13.2,0,23.9,5.1,23.9,5.1s-10.7,5.1-23.9,5.1c-13.2,0-23.9-5.1-23.9-5.1S272.9,459.8,286.1,459.8z"/>
		</g>
		<g>
			<defs>
				<path id="SVGID_00000048494056100555553290000009873138602213684374_" d="M278.8,327.9l-5,44c-5.3,9.7-11.5,21.1-18.1,33.2
					c-2.7-0.4-6.3-0.8-10.4-0.7c-4.4,0.1-9.4,0.8-14.5,2.5c-6.5-11.9-12.6-23.1-17.8-32.6l-5-44c0,0-85.5,41-104.6,57.7
					c0,0,1.3,211.8,45.3,263.6l60.2,27.7l29.3,12.6l11.2-14.4l0,0l9.2,14.4l21.1-15.8l58.2-26.8c44-51.9,45.3-263.6,45.3-263.6
					C364.3,368.9,278.8,327.9,278.8,327.9z"/>
			</defs>
			<clipPath id="SVGID_00000145028140484746817560000014684818414252044179_">
				<use xlink:href="#SVGID_00000048494056100555553290000009873138602213684374_"  style="overflow:visible;"/>
			</clipPath>
			<path style="clip-path:url(#SVGID_00000145028140484746817560000014684818414252044179_);fill:#F5DBEA;" d="M296.7,444.4
				c9.3,9.3,13.3,20.5,13.3,20.5s-11.2-3.9-20.5-13.3c-9.3-9.3-13.3-20.5-13.3-20.5S287.3,435.1,296.7,444.4z"/>
		</g>
		<g>
			<defs>
				<path id="SVGID_00000102507600401998702630000005157836199273869497_" d="M278.8,327.9l-5,44c-5.3,9.7-11.5,21.1-18.1,33.2
					c-2.7-0.4-6.3-0.8-10.4-0.7c-4.4,0.1-9.4,0.8-14.5,2.5c-6.5-11.9-12.6-23.1-17.8-32.6l-5-44c0,0-85.5,41-104.6,57.7
					c0,0,1.3,211.8,45.3,263.6l60.2,27.7l29.3,12.6l11.2-14.4l0,0l9.2,14.4l21.1-15.8l58.2-26.8c44-51.9,45.3-263.6,45.3-263.6
					C364.3,368.9,278.8,327.9,278.8,327.9z"/>
			</defs>
			<clipPath id="SVGID_00000183946236834105472380000007651108731600325814_">
				<use xlink:href="#SVGID_00000102507600401998702630000005157836199273869497_"  style="overflow:visible;"/>
			</clipPath>
			<path style="clip-path:url(#SVGID_00000183946236834105472380000007651108731600325814_);fill:#F4E9BE;" d="M367.9,481
				c0,8.3-3.2,15-3.2,15s-3.2-6.7-3.2-15s3.2-15,3.2-15S367.9,472.7,367.9,481z"/>
		</g>
		<g>
			<defs>
				<path id="SVGID_00000021110372507897982310000011579894118645360292_" d="M278.8,327.9l-5,44c-5.3,9.7-11.5,21.1-18.1,33.2
					c-2.7-0.4-6.3-0.8-10.4-0.7c-4.4,0.1-9.4,0.8-14.5,2.5c-6.5-11.9-12.6-23.1-17.8-32.6l-5-44c0,0-85.5,41-104.6,57.7
					c0,0,1.3,211.8,45.3,263.6l60.2,27.7l29.3,12.6l11.2-14.4l0,0l9.2,14.4l21.1-15.8l58.2-26.8c44-51.9,45.3-263.6,45.3-263.6
					C364.3,368.9,278.8,327.9,278.8,327.9z"/>
			</defs>
			<clipPath id="SVGID_00000014602025804761092980000008342762003900184502_">
				<use xlink:href="#SVGID_00000021110372507897982310000011579894118645360292_"  style="overflow:visible;"/>
			</clipPath>
			<path style="clip-path:url(#SVGID_00000014602025804761092980000008342762003900184502_);fill:#F4E9BE;" d="M377.6,487.7
				c-5.9,5.9-12.9,8.3-12.9,8.3s2.5-7,8.3-12.9c5.9-5.9,12.9-8.3,12.9-8.3S383.5,481.8,377.6,487.7z"/>
		</g>
		<g>
			<defs>
				<path id="SVGID_00000023255497173182962470000008050640941699340450_" d="M278.8,327.9l-5,44c-5.3,9.7-11.5,21.1-18.1,33.2
					c-2.7-0.4-6.3-0.8-10.4-0.7c-4.4,0.1-9.4,0.8-14.5,2.5c-6.5-11.9-12.6-23.1-17.8-32.6l-5-44c0,0-85.5,41-104.6,57.7
					c0,0,1.3,211.8,45.3,263.6l60.2,27.7l29.3,12.6l11.2-14.4l0,0l9.2,14.4l21.1-15.8l58.2-26.8c44-51.9,45.3-263.6,45.3-263.6
					C364.3,368.9,278.8,327.9,278.8,327.9z"/>
			</defs>
			<clipPath id="SVGID_00000119806124681636594320000001727950741861710755_">
				<use xlink:href="#SVGID_00000023255497173182962470000008050640941699340450_"  style="overflow:visible;"/>
			</clipPath>
			<path style="clip-path:url(#SVGID_00000119806124681636594320000001727950741861710755_);fill:#F4E9BE;" d="M379.7,499.3
				c-8.3,0-15-3.2-15-3.2s6.7-3.2,15-3.2s15,3.2,15,3.2S388,499.3,379.7,499.3z"/>
		</g>
		<g>
			<defs>
				<path id="SVGID_00000165923673711200134220000003636028223861969333_" d="M278.8,327.9l-5,44c-5.3,9.7-11.5,21.1-18.1,33.2
					c-2.7-0.4-6.3-0.8-10.4-0.7c-4.4,0.1-9.4,0.8-14.5,2.5c-6.5-11.9-12.6-23.1-17.8-32.6l-5-44c0,0-85.5,41-104.6,57.7
					c0,0,1.3,211.8,45.3,263.6l60.2,27.7l29.3,12.6l11.2-14.4l0,0l9.2,14.4l21.1-15.8l58.2-26.8c44-51.9,45.3-263.6,45.3-263.6
					C364.3,368.9,278.8,327.9,278.8,327.9z"/>
			</defs>
			<clipPath id="SVGID_00000020400511441934991920000009040484278354361990_">
				<use xlink:href="#SVGID_00000165923673711200134220000003636028223861969333_"  style="overflow:visible;"/>
			</clipPath>
			<path style="clip-path:url(#SVGID_00000020400511441934991920000009040484278354361990_);fill:#F4E9BE;" d="M373,508.9
				c-5.9-5.9-8.3-12.9-8.3-12.9s7,2.5,12.9,8.3s8.3,12.9,8.3,12.9S378.9,514.8,373,508.9z"/>
		</g>
		<g>
			<defs>
				<path id="SVGID_00000091723517413036332390000012064335201762865816_" d="M278.8,327.9l-5,44c-5.3,9.7-11.5,21.1-18.1,33.2
					c-2.7-0.4-6.3-0.8-10.4-0.7c-4.4,0.1-9.4,0.8-14.5,2.5c-6.5-11.9-12.6-23.1-17.8-32.6l-5-44c0,0-85.5,41-104.6,57.7
					c0,0,1.3,211.8,45.3,263.6l60.2,27.7l29.3,12.6l11.2-14.4l0,0l9.2,14.4l21.1-15.8l58.2-26.8c44-51.9,45.3-263.6,45.3-263.6
					C364.3,368.9,278.8,327.9,278.8,327.9z"/>
			</defs>
			<clipPath id="SVGID_00000181794580689182511090000006174725921425876902_">
				<use xlink:href="#SVGID_00000091723517413036332390000012064335201762865816_"  style="overflow:visible;"/>
			</clipPath>
			<path style="clip-path:url(#SVGID_00000181794580689182511090000006174725921425876902_);fill:#F4E9BE;" d="M361.5,511.1
				c0-8.3,3.2-15,3.2-15s3.2,6.7,3.2,15c0,8.3-3.2,15-3.2,15S361.5,519.4,361.5,511.1z"/>
		</g>
		<g>
			<defs>
				<path id="SVGID_00000160153389247492607690000008821359582939002301_" d="M278.8,327.9l-5,44c-5.3,9.7-11.5,21.1-18.1,33.2
					c-2.7-0.4-6.3-0.8-10.4-0.7c-4.4,0.1-9.4,0.8-14.5,2.5c-6.5-11.9-12.6-23.1-17.8-32.6l-5-44c0,0-85.5,41-104.6,57.7
					c0,0,1.3,211.8,45.3,263.6l60.2,27.7l29.3,12.6l11.2-14.4l0,0l9.2,14.4l21.1-15.8l58.2-26.8c44-51.9,45.3-263.6,45.3-263.6
					C364.3,368.9,278.8,327.9,278.8,327.9z"/>
			</defs>
			<clipPath id="SVGID_00000021094739007002212810000005764718085531506049_">
				<use xlink:href="#SVGID_00000160153389247492607690000008821359582939002301_"  style="overflow:visible;"/>
			</clipPath>
			<path style="clip-path:url(#SVGID_00000021094739007002212810000005764718085531506049_);fill:#F4E9BE;" d="M351.8,504.4
				c5.9-5.9,12.9-8.3,12.9-8.3s-2.5,7-8.3,12.9c-5.9,5.9-12.9,8.3-12.9,8.3S345.9,510.3,351.8,504.4z"/>
		</g>
		<g>
			<defs>
				<path id="SVGID_00000016063287906495660990000015276028953234869134_" d="M278.8,327.9l-5,44c-5.3,9.7-11.5,21.1-18.1,33.2
					c-2.7-0.4-6.3-0.8-10.4-0.7c-4.4,0.1-9.4,0.8-14.5,2.5c-6.5-11.9-12.6-23.1-17.8-32.6l-5-44c0,0-85.5,41-104.6,57.7
					c0,0,1.3,211.8,45.3,263.6l60.2,27.7l29.3,12.6l11.2-14.4l0,0l9.2,14.4l21.1-15.8l58.2-26.8c44-51.9,45.3-263.6,45.3-263.6
					C364.3,368.9,278.8,327.9,278.8,327.9z"/>
			</defs>
			<clipPath id="SVGID_00000009569721252194574860000012309097164479489692_">
				<use xlink:href="#SVGID_00000016063287906495660990000015276028953234869134_"  style="overflow:visible;"/>
			</clipPath>
			<path style="clip-path:url(#SVGID_00000009569721252194574860000012309097164479489692_);fill:#F4E9BE;" d="M349.7,492.8
				c8.3,0,15,3.2,15,3.2s-6.7,3.2-15,3.2s-15-3.2-15-3.2S341.4,492.8,349.7,492.8z"/>
		</g>
		<g>
			<defs>
				<path id="SVGID_00000064353556967279189920000012214568527005801622_" d="M278.8,327.9l-5,44c-5.3,9.7-11.5,21.1-18.1,33.2
					c-2.7-0.4-6.3-0.8-10.4-0.7c-4.4,0.1-9.4,0.8-14.5,2.5c-6.5-11.9-12.6-23.1-17.8-32.6l-5-44c0,0-85.5,41-104.6,57.7
					c0,0,1.3,211.8,45.3,263.6l60.2,27.7l29.3,12.6l11.2-14.4l0,0l9.2,14.4l21.1-15.8l58.2-26.8c44-51.9,45.3-263.6,45.3-263.6
					C364.3,368.9,278.8,327.9,278.8,327.9z"/>
			</defs>
			<clipPath id="SVGID_00000075138938139501284520000018356499048181436338_">
				<use xlink:href="#SVGID_00000064353556967279189920000012214568527005801622_"  style="overflow:visible;"/>
			</clipPath>
			<path style="clip-path:url(#SVGID_00000075138938139501284520000018356499048181436338_);fill:#F4E9BE;" d="M356.3,483.2
				c5.9,5.9,8.3,12.9,8.3,12.9s-7-2.5-12.9-8.3c-5.9-5.9-8.3-12.9-8.3-12.9S350.5,477.3,356.3,483.2z"/>
		</g>
		<g>
			<defs>
				<path id="SVGID_00000143618663918761173630000003552985660975238552_" d="M278.8,327.9l-5,44c-5.3,9.7-11.5,21.1-18.1,33.2
					c-2.7-0.4-6.3-0.8-10.4-0.7c-4.4,0.1-9.4,0.8-14.5,2.5c-6.5-11.9-12.6-23.1-17.8-32.6l-5-44c0,0-85.5,41-104.6,57.7
					c0,0,1.3,211.8,45.3,263.6l60.2,27.7l29.3,12.6l11.2-14.4l0,0l9.2,14.4l21.1-15.8l58.2-26.8c44-51.9,45.3-263.6,45.3-263.6
					C364.3,368.9,278.8,327.9,278.8,327.9z"/>
			</defs>
			<clipPath id="SVGID_00000183964316037100095180000017750425003933666950_">
				<use xlink:href="#SVGID_00000143618663918761173630000003552985660975238552_"  style="overflow:visible;"/>
			</clipPath>
			<path style="clip-path:url(#SVGID_00000183964316037100095180000017750425003933666950_);fill:#F5DBEA;" d="M175.1,476.1
				c0,13.2-5.1,23.9-5.1,23.9s-5.1-10.7-5.1-23.9c0-13.2,5.1-23.9,5.1-23.9S175.1,462.9,175.1,476.1z"/>
		</g>
		<g>
			<defs>
				<path id="SVGID_00000060020339598365888550000001355346432941548968_" d="M278.8,327.9l-5,44c-5.3,9.7-11.5,21.1-18.1,33.2
					c-2.7-0.4-6.3-0.8-10.4-0.7c-4.4,0.1-9.4,0.8-14.5,2.5c-6.5-11.9-12.6-23.1-17.8-32.6l-5-44c0,0-85.5,41-104.6,57.7
					c0,0,1.3,211.8,45.3,263.6l60.2,27.7l29.3,12.6l11.2-14.4l0,0l9.2,14.4l21.1-15.8l58.2-26.8c44-51.9,45.3-263.6,45.3-263.6
					C364.3,368.9,278.8,327.9,278.8,327.9z"/>
			</defs>
			<clipPath id="SVGID_00000070119335633727908660000014800025601715105197_">
				<use xlink:href="#SVGID_00000060020339598365888550000001355346432941548968_"  style="overflow:visible;"/>
			</clipPath>
			<path style="clip-path:url(#SVGID_00000070119335633727908660000014800025601715105197_);fill:#F5DBEA;" d="M190.5,486.7
				C181.1,496,170,500,170,500s3.9-11.2,13.3-20.5c9.3-9.3,20.5-13.3,20.5-13.3S199.8,477.4,190.5,486.7z"/>
		</g>
		<g>
			<defs>
				<path id="SVGID_00000072999100340276340210000014900170480336376737_" d="M278.8,327.9l-5,44c-5.3,9.7-11.5,21.1-18.1,33.2
					c-2.7-0.4-6.3-0.8-10.4-0.7c-4.4,0.1-9.4,0.8-14.5,2.5c-6.5-11.9-12.6-23.1-17.8-32.6l-5-44c0,0-85.5,41-104.6,57.7
					c0,0,1.3,211.8,45.3,263.6l60.2,27.7l29.3,12.6l11.2-14.4l0,0l9.2,14.4l21.1-15.8l58.2-26.8c44-51.9,45.3-263.6,45.3-263.6
					C364.3,368.9,278.8,327.9,278.8,327.9z"/>
			</defs>
			<clipPath id="SVGID_00000003813951403803404910000006386928486125594251_">
				<use xlink:href="#SVGID_00000072999100340276340210000014900170480336376737_"  style="overflow:visible;"/>
			</clipPath>
			<path style="clip-path:url(#SVGID_00000003813951403803404910000006386928486125594251_);fill:#F5DBEA;" d="M193.8,505.1
				c-13.2,0-23.9-5.1-23.9-5.1s10.7-5.1,23.9-5.1s23.9,5.1,23.9,5.1S207,505.1,193.8,505.1z"/>
		</g>
		<g>
			<defs>
				<path id="SVGID_00000088126967501943110320000000754676935654021777_" d="M278.8,327.9l-5,44c-5.3,9.7-11.5,21.1-18.1,33.2
					c-2.7-0.4-6.3-0.8-10.4-0.7c-4.4,0.1-9.4,0.8-14.5,2.5c-6.5-11.9-12.6-23.1-17.8-32.6l-5-44c0,0-85.5,41-104.6,57.7
					c0,0,1.3,211.8,45.3,263.6l60.2,27.7l29.3,12.6l11.2-14.4l0,0l9.2,14.4l21.1-15.8l58.2-26.8c44-51.9,45.3-263.6,45.3-263.6
					C364.3,368.9,278.8,327.9,278.8,327.9z"/>
			</defs>
			<clipPath id="SVGID_00000146487821918544235290000012923685694363042696_">
				<use xlink:href="#SVGID_00000088126967501943110320000000754676935654021777_"  style="overflow:visible;"/>
			</clipPath>
			<path style="clip-path:url(#SVGID_00000146487821918544235290000012923685694363042696_);fill:#F5DBEA;" d="M183.2,520.5
				C173.9,511.1,170,500,170,500s11.2,3.9,20.5,13.3c9.3,9.3,13.3,20.5,13.3,20.5S192.6,529.8,183.2,520.5z"/>
		</g>
		<g>
			<defs>
				<path id="SVGID_00000039846810777091532910000009724012474905096889_" d="M278.8,327.9l-5,44c-5.3,9.7-11.5,21.1-18.1,33.2
					c-2.7-0.4-6.3-0.8-10.4-0.7c-4.4,0.1-9.4,0.8-14.5,2.5c-6.5-11.9-12.6-23.1-17.8-32.6l-5-44c0,0-85.5,41-104.6,57.7
					c0,0,1.3,211.8,45.3,263.6l60.2,27.7l29.3,12.6l11.2-14.4l0,0l9.2,14.4l21.1-15.8l58.2-26.8c44-51.9,45.3-263.6,45.3-263.6
					C364.3,368.9,278.8,327.9,278.8,327.9z"/>
			</defs>
			<clipPath id="SVGID_00000183936332972436523840000009396874670122937530_">
				<use xlink:href="#SVGID_00000039846810777091532910000009724012474905096889_"  style="overflow:visible;"/>
			</clipPath>
			<path style="clip-path:url(#SVGID_00000183936332972436523840000009396874670122937530_);fill:#F5DBEA;" d="M164.9,523.8
				c0-13.2,5.1-23.9,5.1-23.9s5.1,10.7,5.1,23.9c0,13.2-5.1,23.9-5.1,23.9S164.9,537,164.9,523.8z"/>
		</g>
		<g>
			<defs>
				<path id="SVGID_00000018199954771474528130000008039878050017597114_" d="M278.8,327.9l-5,44c-5.3,9.7-11.5,21.1-18.1,33.2
					c-2.7-0.4-6.3-0.8-10.4-0.7c-4.4,0.1-9.4,0.8-14.5,2.5c-6.5-11.9-12.6-23.1-17.8-32.6l-5-44c0,0-85.5,41-104.6,57.7
					c0,0,1.3,211.8,45.3,263.6l60.2,27.7l29.3,12.6l11.2-14.4l0,0l9.2,14.4l21.1-15.8l58.2-26.8c44-51.9,45.3-263.6,45.3-263.6
					C364.3,368.9,278.8,327.9,278.8,327.9z"/>
			</defs>
			<clipPath id="SVGID_00000069358674103650430150000007407592664160882332_">
				<use xlink:href="#SVGID_00000018199954771474528130000008039878050017597114_"  style="overflow:visible;"/>
			</clipPath>
			<path style="clip-path:url(#SVGID_00000069358674103650430150000007407592664160882332_);fill:#F5DBEA;" d="M149.5,513.2
				c9.3-9.3,20.5-13.3,20.5-13.3s-3.9,11.2-13.3,20.5c-9.3,9.3-20.5,13.3-20.5,13.3S140.1,522.6,149.5,513.2z"/>
		</g>
		<g>
			<defs>
				<path id="SVGID_00000147203463232170467350000012777643111565780391_" d="M278.8,327.9l-5,44c-5.3,9.7-11.5,21.1-18.1,33.2
					c-2.7-0.4-6.3-0.8-10.4-0.7c-4.4,0.1-9.4,0.8-14.5,2.5c-6.5-11.9-12.6-23.1-17.8-32.6l-5-44c0,0-85.5,41-104.6,57.7
					c0,0,1.3,211.8,45.3,263.6l60.2,27.7l29.3,12.6l11.2-14.4l0,0l9.2,14.4l21.1-15.8l58.2-26.8c44-51.9,45.3-263.6,45.3-263.6
					C364.3,368.9,278.8,327.9,278.8,327.9z"/>
			</defs>
			<clipPath id="SVGID_00000067936732192780873240000016791711062867463051_">
				<use xlink:href="#SVGID_00000147203463232170467350000012777643111565780391_"  style="overflow:visible;"/>
			</clipPath>
			<path style="clip-path:url(#SVGID_00000067936732192780873240000016791711062867463051_);fill:#F5DBEA;" d="M146.1,494.8
				c13.2,0,23.9,5.1,23.9,5.1s-10.7,5.1-23.9,5.1s-23.9-5.1-23.9-5.1S132.9,494.8,146.1,494.8z"/>
		</g>
		<g>
			<defs>
				<path id="SVGID_00000181072770407983467370000014000329970590846360_" d="M278.8,327.9l-5,44c-5.3,9.7-11.5,21.1-18.1,33.2
					c-2.7-0.4-6.3-0.8-10.4-0.7c-4.4,0.1-9.4,0.8-14.5,2.5c-6.5-11.9-12.6-23.1-17.8-32.6l-5-44c0,0-85.5,41-104.6,57.7
					c0,0,1.3,211.8,45.3,263.6l60.2,27.7l29.3,12.6l11.2-14.4l0,0l9.2,14.4l21.1-15.8l58.2-26.8c44-51.9,45.3-263.6,45.3-263.6
					C364.3,368.9,278.8,327.9,278.8,327.9z"/>
			</defs>
			<clipPath id="SVGID_00000012448934084561547550000014159209812821040528_">
				<use xlink:href="#SVGID_00000181072770407983467370000014000329970590846360_"  style="overflow:visible;"/>
			</clipPath>
			<path style="clip-path:url(#SVGID_00000012448934084561547550000014159209812821040528_);fill:#F5DBEA;" d="M156.7,479.5
				C166,488.8,170,500,170,500s-11.2-3.9-20.5-13.3c-9.3-9.3-13.3-20.5-13.3-20.5S147.4,470.1,156.7,479.5z"/>
		</g>
		<g>
			<defs>
				<path id="SVGID_00000079443499610578242360000003049050386022289542_" d="M278.8,327.9l-5,44c-5.3,9.7-11.5,21.1-18.1,33.2
					c-2.7-0.4-6.3-0.8-10.4-0.7c-4.4,0.1-9.4,0.8-14.5,2.5c-6.5-11.9-12.6-23.1-17.8-32.6l-5-44c0,0-85.5,41-104.6,57.7
					c0,0,1.3,211.8,45.3,263.6l60.2,27.7l29.3,12.6l11.2-14.4l0,0l9.2,14.4l21.1-15.8l58.2-26.8c44-51.9,45.3-263.6,45.3-263.6
					C364.3,368.9,278.8,327.9,278.8,327.9z"/>
			</defs>
			<clipPath id="SVGID_00000163075107494876934880000015335660400251919252_">
				<use xlink:href="#SVGID_00000079443499610578242360000003049050386022289542_"  style="overflow:visible;"/>
			</clipPath>
			<path style="clip-path:url(#SVGID_00000163075107494876934880000015335660400251919252_);fill:#F4E9BE;" d="M227.9,516.1
				c0,8.3-3.2,15-3.2,15s-3.2-6.7-3.2-15s3.2-15,3.2-15S227.9,507.8,227.9,516.1z"/>
		</g>
		<g>
			<defs>
				<path id="SVGID_00000105408538049737824730000007066968495541329850_" d="M278.8,327.9l-5,44c-5.3,9.7-11.5,21.1-18.1,33.2
					c-2.7-0.4-6.3-0.8-10.4-0.7c-4.4,0.1-9.4,0.8-14.5,2.5c-6.5-11.9-12.6-23.1-17.8-32.6l-5-44c0,0-85.5,41-104.6,57.7
					c0,0,1.3,211.8,45.3,263.6l60.2,27.7l29.3,12.6l11.2-14.4l0,0l9.2,14.4l21.1-15.8l58.2-26.8c44-51.9,45.3-263.6,45.3-263.6
					C364.3,368.9,278.8,327.9,278.8,327.9z"/>
			</defs>
			<clipPath id="SVGID_00000057862333420150556530000005134557732682943676_">
				<use xlink:href="#SVGID_00000105408538049737824730000007066968495541329850_"  style="overflow:visible;"/>
			</clipPath>
			<path style="clip-path:url(#SVGID_00000057862333420150556530000005134557732682943676_);fill:#F4E9BE;" d="M237.6,522.8
				c-5.9,5.9-12.9,8.3-12.9,8.3s2.5-7,8.3-12.9s12.9-8.3,12.9-8.3S243.5,516.9,237.6,522.8z"/>
		</g>
		<g>
			<defs>
				<path id="SVGID_00000040553489622826890630000003280639373348871610_" d="M278.8,327.9l-5,44c-5.3,9.7-11.5,21.1-18.1,33.2
					c-2.7-0.4-6.3-0.8-10.4-0.7c-4.4,0.1-9.4,0.8-14.5,2.5c-6.5-11.9-12.6-23.1-17.8-32.6l-5-44c0,0-85.5,41-104.6,57.7
					c0,0,1.3,211.8,45.3,263.6l60.2,27.7l29.3,12.6l11.2-14.4l0,0l9.2,14.4l21.1-15.8l58.2-26.8c44-51.9,45.3-263.6,45.3-263.6
					C364.3,368.9,278.8,327.9,278.8,327.9z"/>
			</defs>
			<clipPath id="SVGID_00000134950669200375614470000013431634258126840710_">
				<use xlink:href="#SVGID_00000040553489622826890630000003280639373348871610_"  style="overflow:visible;"/>
			</clipPath>
			<path style="clip-path:url(#SVGID_00000134950669200375614470000013431634258126840710_);fill:#F4E9BE;" d="M239.7,534.3
				c-8.3,0-15-3.2-15-3.2s6.7-3.2,15-3.2s15,3.2,15,3.2S248,534.3,239.7,534.3z"/>
		</g>
		<g>
			<defs>
				<path id="SVGID_00000169557085168193388370000002350745711301547937_" d="M278.8,327.9l-5,44c-5.3,9.7-11.5,21.1-18.1,33.2
					c-2.7-0.4-6.3-0.8-10.4-0.7c-4.4,0.1-9.4,0.8-14.5,2.5c-6.5-11.9-12.6-23.1-17.8-32.6l-5-44c0,0-85.5,41-104.6,57.7
					c0,0,1.3,211.8,45.3,263.6l60.2,27.7l29.3,12.6l11.2-14.4l0,0l9.2,14.4l21.1-15.8l58.2-26.8c44-51.9,45.3-263.6,45.3-263.6
					C364.3,368.9,278.8,327.9,278.8,327.9z"/>
			</defs>
			<clipPath id="SVGID_00000163035752303446398110000010408864275895033002_">
				<use xlink:href="#SVGID_00000169557085168193388370000002350745711301547937_"  style="overflow:visible;"/>
			</clipPath>
			<path style="clip-path:url(#SVGID_00000163035752303446398110000010408864275895033002_);fill:#F4E9BE;" d="M233.1,544
				c-5.9-5.9-8.3-12.9-8.3-12.9s7,2.5,12.9,8.3c5.9,5.9,8.3,12.9,8.3,12.9S238.9,549.9,233.1,544z"/>
		</g>
		<g>
			<defs>
				<path id="SVGID_00000125593921166820333550000008211798955081163447_" d="M278.8,327.9l-5,44c-5.3,9.7-11.5,21.1-18.1,33.2
					c-2.7-0.4-6.3-0.8-10.4-0.7c-4.4,0.1-9.4,0.8-14.5,2.5c-6.5-11.9-12.6-23.1-17.8-32.6l-5-44c0,0-85.5,41-104.6,57.7
					c0,0,1.3,211.8,45.3,263.6l60.2,27.7l29.3,12.6l11.2-14.4l0,0l9.2,14.4l21.1-15.8l58.2-26.8c44-51.9,45.3-263.6,45.3-263.6
					C364.3,368.9,278.8,327.9,278.8,327.9z"/>
			</defs>
			<clipPath id="SVGID_00000020393701693792198460000012236226571077621160_">
				<use xlink:href="#SVGID_00000125593921166820333550000008211798955081163447_"  style="overflow:visible;"/>
			</clipPath>
			<path style="clip-path:url(#SVGID_00000020393701693792198460000012236226571077621160_);fill:#F4E9BE;" d="M221.5,546.1
				c0-8.3,3.2-15,3.2-15s3.2,6.7,3.2,15s-3.2,15-3.2,15S221.5,554.4,221.5,546.1z"/>
		</g>
		<g>
			<defs>
				<path id="SVGID_00000113335811407386357950000013726853215306405533_" d="M278.8,327.9l-5,44c-5.3,9.7-11.5,21.1-18.1,33.2
					c-2.7-0.4-6.3-0.8-10.4-0.7c-4.4,0.1-9.4,0.8-14.5,2.5c-6.5-11.9-12.6-23.1-17.8-32.6l-5-44c0,0-85.5,41-104.6,57.7
					c0,0,1.3,211.8,45.3,263.6l60.2,27.7l29.3,12.6l11.2-14.4l0,0l9.2,14.4l21.1-15.8l58.2-26.8c44-51.9,45.3-263.6,45.3-263.6
					C364.3,368.9,278.8,327.9,278.8,327.9z"/>
			</defs>
			<clipPath id="SVGID_00000065793798897751380170000010311702640455911353_">
				<use xlink:href="#SVGID_00000113335811407386357950000013726853215306405533_"  style="overflow:visible;"/>
			</clipPath>
			<path style="clip-path:url(#SVGID_00000065793798897751380170000010311702640455911353_);fill:#F4E9BE;" d="M211.8,539.5
				c5.9-5.9,12.9-8.3,12.9-8.3s-2.5,7-8.3,12.9c-5.9,5.9-12.9,8.3-12.9,8.3S206,545.3,211.8,539.5z"/>
		</g>
		<g>
			<defs>
				<path id="SVGID_00000182524943459600168370000015717251431880325820_" d="M278.8,327.9l-5,44c-5.3,9.7-11.5,21.1-18.1,33.2
					c-2.7-0.4-6.3-0.8-10.4-0.7c-4.4,0.1-9.4,0.8-14.5,2.5c-6.5-11.9-12.6-23.1-17.8-32.6l-5-44c0,0-85.5,41-104.6,57.7
					c0,0,1.3,211.8,45.3,263.6l60.2,27.7l29.3,12.6l11.2-14.4l0,0l9.2,14.4l21.1-15.8l58.2-26.8c44-51.9,45.3-263.6,45.3-263.6
					C364.3,368.9,278.8,327.9,278.8,327.9z"/>
			</defs>
			<clipPath id="SVGID_00000146464290099652520010000004995230308853934725_">
				<use xlink:href="#SVGID_00000182524943459600168370000015717251431880325820_"  style="overflow:visible;"/>
			</clipPath>
			<path style="clip-path:url(#SVGID_00000146464290099652520010000004995230308853934725_);fill:#F4E9BE;" d="M209.7,527.9
				c8.3,0,15,3.2,15,3.2s-6.7,3.2-15,3.2s-15-3.2-15-3.2S201.4,527.9,209.7,527.9z"/>
		</g>
		<g>
			<defs>
				<path id="SVGID_00000007428269337489104510000011182587053864781697_" d="M278.8,327.9l-5,44c-5.3,9.7-11.5,21.1-18.1,33.2
					c-2.7-0.4-6.3-0.8-10.4-0.7c-4.4,0.1-9.4,0.8-14.5,2.5c-6.5-11.9-12.6-23.1-17.8-32.6l-5-44c0,0-85.5,41-104.6,57.7
					c0,0,1.3,211.8,45.3,263.6l60.2,27.7l29.3,12.6l11.2-14.4l0,0l9.2,14.4l21.1-15.8l58.2-26.8c44-51.9,45.3-263.6,45.3-263.6
					C364.3,368.9,278.8,327.9,278.8,327.9z"/>
			</defs>
			<clipPath id="SVGID_00000083770742367511014110000006645153673074720132_">
				<use xlink:href="#SVGID_00000007428269337489104510000011182587053864781697_"  style="overflow:visible;"/>
			</clipPath>
			<path style="clip-path:url(#SVGID_00000083770742367511014110000006645153673074720132_);fill:#F4E9BE;" d="M216.4,518.2
				c5.9,5.9,8.3,12.9,8.3,12.9s-7-2.5-12.9-8.3c-5.9-5.9-8.3-12.9-8.3-12.9S210.5,512.3,216.4,518.2z"/>
		</g>
		<g>
			<defs>
				<path id="SVGID_00000175296111630951108180000018440748879526116745_" d="M278.8,327.9l-5,44c-5.3,9.7-11.5,21.1-18.1,33.2
					c-2.7-0.4-6.3-0.8-10.4-0.7c-4.4,0.1-9.4,0.8-14.5,2.5c-6.5-11.9-12.6-23.1-17.8-32.6l-5-44c0,0-85.5,41-104.6,57.7
					c0,0,1.3,211.8,45.3,263.6l60.2,27.7l29.3,12.6l11.2-14.4l0,0l9.2,14.4l21.1-15.8l58.2-26.8c44-51.9,45.3-263.6,45.3-263.6
					C364.3,368.9,278.8,327.9,278.8,327.9z"/>
			</defs>
			<clipPath id="SVGID_00000109021363385604855110000006869491984996006564_">
				<use xlink:href="#SVGID_00000175296111630951108180000018440748879526116745_"  style="overflow:visible;"/>
			</clipPath>
			<path style="clip-path:url(#SVGID_00000109021363385604855110000006869491984996006564_);fill:#F5DBEA;" d="M127.3,573.6
				c0,13.2-5.1,23.9-5.1,23.9s-5.1-10.7-5.1-23.9s5.1-23.9,5.1-23.9S127.3,560.4,127.3,573.6z"/>
		</g>
		<g>
			<defs>
				<path id="SVGID_00000121976734311344586740000005349633160789143970_" d="M278.8,327.9l-5,44c-5.3,9.7-11.5,21.1-18.1,33.2
					c-2.7-0.4-6.3-0.8-10.4-0.7c-4.4,0.1-9.4,0.8-14.5,2.5c-6.5-11.9-12.6-23.1-17.8-32.6l-5-44c0,0-85.5,41-104.6,57.7
					c0,0,1.3,211.8,45.3,263.6l60.2,27.7l29.3,12.6l11.2-14.4l0,0l9.2,14.4l21.1-15.8l58.2-26.8c44-51.9,45.3-263.6,45.3-263.6
					C364.3,368.9,278.8,327.9,278.8,327.9z"/>
			</defs>
			<clipPath id="SVGID_00000124121311082161595900000006072208167860498849_">
				<use xlink:href="#SVGID_00000121976734311344586740000005349633160789143970_"  style="overflow:visible;"/>
			</clipPath>
			<path style="clip-path:url(#SVGID_00000124121311082161595900000006072208167860498849_);fill:#F5DBEA;" d="M142.7,584.2
				c-9.3,9.3-20.5,13.3-20.5,13.3s3.9-11.2,13.3-20.5c9.3-9.3,20.5-13.3,20.5-13.3S152,574.9,142.7,584.2z"/>
		</g>
		<g>
			<defs>
				<path id="SVGID_00000173864333901199464160000009362018364576134800_" d="M278.8,327.9l-5,44c-5.3,9.7-11.5,21.1-18.1,33.2
					c-2.7-0.4-6.3-0.8-10.4-0.7c-4.4,0.1-9.4,0.8-14.5,2.5c-6.5-11.9-12.6-23.1-17.8-32.6l-5-44c0,0-85.5,41-104.6,57.7
					c0,0,1.3,211.8,45.3,263.6l60.2,27.7l29.3,12.6l11.2-14.4l0,0l9.2,14.4l21.1-15.8l58.2-26.8c44-51.9,45.3-263.6,45.3-263.6
					C364.3,368.9,278.8,327.9,278.8,327.9z"/>
			</defs>
			<clipPath id="SVGID_00000155836124624310468090000007317326231668528575_">
				<use xlink:href="#SVGID_00000173864333901199464160000009362018364576134800_"  style="overflow:visible;"/>
			</clipPath>
			<path style="clip-path:url(#SVGID_00000155836124624310468090000007317326231668528575_);fill:#F5DBEA;" d="M146.1,602.6
				c-13.2,0-23.9-5.1-23.9-5.1s10.7-5.1,23.9-5.1s23.9,5.1,23.9,5.1S159.3,602.6,146.1,602.6z"/>
		</g>
		<g>
			<defs>
				<path id="SVGID_00000182489613401695376430000015174163784657112759_" d="M278.8,327.9l-5,44c-5.3,9.7-11.5,21.1-18.1,33.2
					c-2.7-0.4-6.3-0.8-10.4-0.7c-4.4,0.1-9.4,0.8-14.5,2.5c-6.5-11.9-12.6-23.1-17.8-32.6l-5-44c0,0-85.5,41-104.6,57.7
					c0,0,1.3,211.8,45.3,263.6l60.2,27.7l29.3,12.6l11.2-14.4l0,0l9.2,14.4l21.1-15.8l58.2-26.8c44-51.9,45.3-263.6,45.3-263.6
					C364.3,368.9,278.8,327.9,278.8,327.9z"/>
			</defs>
			<clipPath id="SVGID_00000173846489264751075440000003517323896625861786_">
				<use xlink:href="#SVGID_00000182489613401695376430000015174163784657112759_"  style="overflow:visible;"/>
			</clipPath>
			<path style="clip-path:url(#SVGID_00000173846489264751075440000003517323896625861786_);fill:#F5DBEA;" d="M135.5,618
				c-9.3-9.3-13.3-20.5-13.3-20.5s11.2,3.9,20.5,13.3c9.3,9.3,13.3,20.5,13.3,20.5S144.8,627.3,135.5,618z"/>
		</g>
		<g>
			<defs>
				<path id="SVGID_00000073707926480504474630000013700592071768523137_" d="M278.8,327.9l-5,44c-5.3,9.7-11.5,21.1-18.1,33.2
					c-2.7-0.4-6.3-0.8-10.4-0.7c-4.4,0.1-9.4,0.8-14.5,2.5c-6.5-11.9-12.6-23.1-17.8-32.6l-5-44c0,0-85.5,41-104.6,57.7
					c0,0,1.3,211.8,45.3,263.6l60.2,27.7l29.3,12.6l11.2-14.4l0,0l9.2,14.4l21.1-15.8l58.2-26.8c44-51.9,45.3-263.6,45.3-263.6
					C364.3,368.9,278.8,327.9,278.8,327.9z"/>
			</defs>
			<clipPath id="SVGID_00000183213358458106764130000008957167230841037496_">
				<use xlink:href="#SVGID_00000073707926480504474630000013700592071768523137_"  style="overflow:visible;"/>
			</clipPath>
			<path style="clip-path:url(#SVGID_00000183213358458106764130000008957167230841037496_);fill:#F5DBEA;" d="M117.1,621.4
				c0-13.2,5.1-23.9,5.1-23.9s5.1,10.7,5.1,23.9s-5.1,23.9-5.1,23.9S117.1,634.6,117.1,621.4z"/>
		</g>
		<g>
			<defs>
				<path id="SVGID_00000103247489250818053090000005306302667199729835_" d="M278.8,327.9l-5,44c-5.3,9.7-11.5,21.1-18.1,33.2
					c-2.7-0.4-6.3-0.8-10.4-0.7c-4.4,0.1-9.4,0.8-14.5,2.5c-6.5-11.9-12.6-23.1-17.8-32.6l-5-44c0,0-85.5,41-104.6,57.7
					c0,0,1.3,211.8,45.3,263.6l60.2,27.7l29.3,12.6l11.2-14.4l0,0l9.2,14.4l21.1-15.8l58.2-26.8c44-51.9,45.3-263.6,45.3-263.6
					C364.3,368.9,278.8,327.9,278.8,327.9z"/>
			</defs>
			<clipPath id="SVGID_00000073710307924287371140000018031555964124779182_">
				<use xlink:href="#SVGID_00000103247489250818053090000005306302667199729835_"  style="overflow:visible;"/>
			</clipPath>
			<path style="clip-path:url(#SVGID_00000073710307924287371140000018031555964124779182_);fill:#F5DBEA;" d="M101.7,610.8
				c9.3-9.3,20.5-13.3,20.5-13.3s-3.9,11.2-13.3,20.5c-9.3,9.3-20.5,13.3-20.5,13.3S92.4,620.1,101.7,610.8z"/>
		</g>
		<g>
			<defs>
				<path id="SVGID_00000091716606745248784020000008831452736588670140_" d="M278.8,327.9l-5,44c-5.3,9.7-11.5,21.1-18.1,33.2
					c-2.7-0.4-6.3-0.8-10.4-0.7c-4.4,0.1-9.4,0.8-14.5,2.5c-6.5-11.9-12.6-23.1-17.8-32.6l-5-44c0,0-85.5,41-104.6,57.7
					c0,0,1.3,211.8,45.3,263.6l60.2,27.7l29.3,12.6l11.2-14.4l0,0l9.2,14.4l21.1-15.8l58.2-26.8c44-51.9,45.3-263.6,45.3-263.6
					C364.3,368.9,278.8,327.9,278.8,327.9z"/>
			</defs>
			<clipPath id="SVGID_00000019680068706017923640000016624988950366102164_">
				<use xlink:href="#SVGID_00000091716606745248784020000008831452736588670140_"  style="overflow:visible;"/>
			</clipPath>
			<path style="clip-path:url(#SVGID_00000019680068706017923640000016624988950366102164_);fill:#F5DBEA;" d="M98.3,592.4
				c13.2,0,23.9,5.1,23.9,5.1s-10.7,5.1-23.9,5.1s-23.9-5.1-23.9-5.1S85.1,592.4,98.3,592.4z"/>
		</g>
		<g>
			<defs>
				<path id="SVGID_00000085211513199827016150000015843853540270584250_" d="M278.8,327.9l-5,44c-5.3,9.7-11.5,21.1-18.1,33.2
					c-2.7-0.4-6.3-0.8-10.4-0.7c-4.4,0.1-9.4,0.8-14.5,2.5c-6.5-11.9-12.6-23.1-17.8-32.6l-5-44c0,0-85.5,41-104.6,57.7
					c0,0,1.3,211.8,45.3,263.6l60.2,27.7l29.3,12.6l11.2-14.4l0,0l9.2,14.4l21.1-15.8l58.2-26.8c44-51.9,45.3-263.6,45.3-263.6
					C364.3,368.9,278.8,327.9,278.8,327.9z"/>
			</defs>
			<clipPath id="SVGID_00000127045128109603024280000000002576898085139131_">
				<use xlink:href="#SVGID_00000085211513199827016150000015843853540270584250_"  style="overflow:visible;"/>
			</clipPath>
			<path style="clip-path:url(#SVGID_00000127045128109603024280000000002576898085139131_);fill:#F5DBEA;" d="M108.9,577
				c9.3,9.3,13.3,20.5,13.3,20.5s-11.2-3.9-20.5-13.3c-9.3-9.3-13.3-20.5-13.3-20.5S99.6,567.7,108.9,577z"/>
		</g>
		<g>
			<defs>
				<path id="SVGID_00000167359009164895206090000010377550551133650858_" d="M278.8,327.9l-5,44c-5.3,9.7-11.5,21.1-18.1,33.2
					c-2.7-0.4-6.3-0.8-10.4-0.7c-4.4,0.1-9.4,0.8-14.5,2.5c-6.5-11.9-12.6-23.1-17.8-32.6l-5-44c0,0-85.5,41-104.6,57.7
					c0,0,1.3,211.8,45.3,263.6l60.2,27.7l29.3,12.6l11.2-14.4l0,0l9.2,14.4l21.1-15.8l58.2-26.8c44-51.9,45.3-263.6,45.3-263.6
					C364.3,368.9,278.8,327.9,278.8,327.9z"/>
			</defs>
			<clipPath id="SVGID_00000145741849009819368590000013539117197077863353_">
				<use xlink:href="#SVGID_00000167359009164895206090000010377550551133650858_"  style="overflow:visible;"/>
			</clipPath>
			<path style="clip-path:url(#SVGID_00000145741849009819368590000013539117197077863353_);fill:#F4E9BE;" d="M180.2,613.6
				c0,8.3-3.2,15-3.2,15s-3.2-6.7-3.2-15s3.2-15,3.2-15S180.2,605.3,180.2,613.6z"/>
		</g>
		<g>
			<defs>
				<path id="SVGID_00000095329889084444133090000015840449910627365805_" d="M278.8,327.9l-5,44c-5.3,9.7-11.5,21.1-18.1,33.2
					c-2.7-0.4-6.3-0.8-10.4-0.7c-4.4,0.1-9.4,0.8-14.5,2.5c-6.5-11.9-12.6-23.1-17.8-32.6l-5-44c0,0-85.5,41-104.6,57.7
					c0,0,1.3,211.8,45.3,263.6l60.2,27.7l29.3,12.6l11.2-14.4l0,0l9.2,14.4l21.1-15.8l58.2-26.8c44-51.9,45.3-263.6,45.3-263.6
					C364.3,368.9,278.8,327.9,278.8,327.9z"/>
			</defs>
			<clipPath id="SVGID_00000022556425727381473590000015400296951744789164_">
				<use xlink:href="#SVGID_00000095329889084444133090000015840449910627365805_"  style="overflow:visible;"/>
			</clipPath>
			<path style="clip-path:url(#SVGID_00000022556425727381473590000015400296951744789164_);fill:#F4E9BE;" d="M189.9,620.3
				c-5.9,5.9-12.9,8.3-12.9,8.3s2.5-7,8.3-12.9c5.9-5.9,12.9-8.3,12.9-8.3S195.7,614.4,189.9,620.3z"/>
		</g>
		<g>
			<defs>
				<path id="SVGID_00000070117824450967403910000017386935944336356783_" d="M278.8,327.9l-5,44c-5.3,9.7-11.5,21.1-18.1,33.2
					c-2.7-0.4-6.3-0.8-10.4-0.7c-4.4,0.1-9.4,0.8-14.5,2.5c-6.5-11.9-12.6-23.1-17.8-32.6l-5-44c0,0-85.5,41-104.6,57.7
					c0,0,1.3,211.8,45.3,263.6l60.2,27.7l29.3,12.6l11.2-14.4l0,0l9.2,14.4l21.1-15.8l58.2-26.8c44-51.9,45.3-263.6,45.3-263.6
					C364.3,368.9,278.8,327.9,278.8,327.9z"/>
			</defs>
			<clipPath id="SVGID_00000001641707288019910340000009804270822314743998_">
				<use xlink:href="#SVGID_00000070117824450967403910000017386935944336356783_"  style="overflow:visible;"/>
			</clipPath>
			<path style="clip-path:url(#SVGID_00000001641707288019910340000009804270822314743998_);fill:#F4E9BE;" d="M192,631.9
				c-8.3,0-15-3.2-15-3.2s6.7-3.2,15-3.2s15,3.2,15,3.2S200.3,631.9,192,631.9z"/>
		</g>
		<g>
			<defs>
				<path id="SVGID_00000011720718219040732520000014234880363541455537_" d="M278.8,327.9l-5,44c-5.3,9.7-11.5,21.1-18.1,33.2
					c-2.7-0.4-6.3-0.8-10.4-0.7c-4.4,0.1-9.4,0.8-14.5,2.5c-6.5-11.9-12.6-23.1-17.8-32.6l-5-44c0,0-85.5,41-104.6,57.7
					c0,0,1.3,211.8,45.3,263.6l60.2,27.7l29.3,12.6l11.2-14.4l0,0l9.2,14.4l21.1-15.8l58.2-26.8c44-51.9,45.3-263.6,45.3-263.6
					C364.3,368.9,278.8,327.9,278.8,327.9z"/>
			</defs>
			<clipPath id="SVGID_00000121271892176383884680000004472186506190941110_">
				<use xlink:href="#SVGID_00000011720718219040732520000014234880363541455537_"  style="overflow:visible;"/>
			</clipPath>
			<path style="clip-path:url(#SVGID_00000121271892176383884680000004472186506190941110_);fill:#F4E9BE;" d="M185.3,641.5
				c-5.9-5.9-8.3-12.9-8.3-12.9s7,2.5,12.9,8.3c5.9,5.9,8.3,12.9,8.3,12.9S191.2,647.4,185.3,641.5z"/>
		</g>
		<g>
			<defs>
				<path id="SVGID_00000109748736537677584660000016236334350709153983_" d="M278.8,327.9l-5,44c-5.3,9.7-11.5,21.1-18.1,33.2
					c-2.7-0.4-6.3-0.8-10.4-0.7c-4.4,0.1-9.4,0.8-14.5,2.5c-6.5-11.9-12.6-23.1-17.8-32.6l-5-44c0,0-85.5,41-104.6,57.7
					c0,0,1.3,211.8,45.3,263.6l60.2,27.7l29.3,12.6l11.2-14.4l0,0l9.2,14.4l21.1-15.8l58.2-26.8c44-51.9,45.3-263.6,45.3-263.6
					C364.3,368.9,278.8,327.9,278.8,327.9z"/>
			</defs>
			<clipPath id="SVGID_00000104699263067326233470000010914456225785683389_">
				<use xlink:href="#SVGID_00000109748736537677584660000016236334350709153983_"  style="overflow:visible;"/>
			</clipPath>
			<path style="clip-path:url(#SVGID_00000104699263067326233470000010914456225785683389_);fill:#F4E9BE;" d="M173.7,643.7
				c0-8.3,3.2-15,3.2-15s3.2,6.7,3.2,15s-3.2,15-3.2,15S173.7,652,173.7,643.7z"/>
		</g>
		<g>
			<defs>
				<path id="SVGID_00000031912093170045586880000014599953481552396682_" d="M278.8,327.9l-5,44c-5.3,9.7-11.5,21.1-18.1,33.2
					c-2.7-0.4-6.3-0.8-10.4-0.7c-4.4,0.1-9.4,0.8-14.5,2.5c-6.5-11.9-12.6-23.1-17.8-32.6l-5-44c0,0-85.5,41-104.6,57.7
					c0,0,1.3,211.8,45.3,263.6l60.2,27.7l29.3,12.6l11.2-14.4l0,0l9.2,14.4l21.1-15.8l58.2-26.8c44-51.9,45.3-263.6,45.3-263.6
					C364.3,368.9,278.8,327.9,278.8,327.9z"/>
			</defs>
			<clipPath id="SVGID_00000080189492933592904060000009006649937469653395_">
				<use xlink:href="#SVGID_00000031912093170045586880000014599953481552396682_"  style="overflow:visible;"/>
			</clipPath>
			<path style="clip-path:url(#SVGID_00000080189492933592904060000009006649937469653395_);fill:#F4E9BE;" d="M164.1,637
				c5.9-5.9,12.9-8.3,12.9-8.3s-2.5,7-8.3,12.9s-12.9,8.3-12.9,8.3S158.2,642.9,164.1,637z"/>
		</g>
		<g>
			<defs>
				<path id="SVGID_00000041256770407783273530000009305842111220307843_" d="M278.8,327.9l-5,44c-5.3,9.7-11.5,21.1-18.1,33.2
					c-2.7-0.4-6.3-0.8-10.4-0.7c-4.4,0.1-9.4,0.8-14.5,2.5c-6.5-11.9-12.6-23.1-17.8-32.6l-5-44c0,0-85.5,41-104.6,57.7
					c0,0,1.3,211.8,45.3,263.6l60.2,27.7l29.3,12.6l11.2-14.4l0,0l9.2,14.4l21.1-15.8l58.2-26.8c44-51.9,45.3-263.6,45.3-263.6
					C364.3,368.9,278.8,327.9,278.8,327.9z"/>
			</defs>
			<clipPath id="SVGID_00000026139196906787743980000000772812797367988874_">
				<use xlink:href="#SVGID_00000041256770407783273530000009305842111220307843_"  style="overflow:visible;"/>
			</clipPath>
			<path style="clip-path:url(#SVGID_00000026139196906787743980000000772812797367988874_);fill:#F4E9BE;" d="M161.9,625.4
				c8.3,0,15,3.2,15,3.2s-6.7,3.2-15,3.2s-15-3.2-15-3.2S153.6,625.4,161.9,625.4z"/>
		</g>
		<g>
			<defs>
				<path id="SVGID_00000164479594541580281020000008873893585816040334_" d="M278.8,327.9l-5,44c-5.3,9.7-11.5,21.1-18.1,33.2
					c-2.7-0.4-6.3-0.8-10.4-0.7c-4.4,0.1-9.4,0.8-14.5,2.5c-6.5-11.9-12.6-23.1-17.8-32.6l-5-44c0,0-85.5,41-104.6,57.7
					c0,0,1.3,211.8,45.3,263.6l60.2,27.7l29.3,12.6l11.2-14.4l0,0l9.2,14.4l21.1-15.8l58.2-26.8c44-51.9,45.3-263.6,45.3-263.6
					C364.3,368.9,278.8,327.9,278.8,327.9z"/>
			</defs>
			<clipPath id="SVGID_00000148658177467208555590000016751288498318900615_">
				<use xlink:href="#SVGID_00000164479594541580281020000008873893585816040334_"  style="overflow:visible;"/>
			</clipPath>
			<path style="clip-path:url(#SVGID_00000148658177467208555590000016751288498318900615_);fill:#F4E9BE;" d="M168.6,615.7
				c5.9,5.9,8.3,12.9,8.3,12.9s-7-2.5-12.9-8.3s-8.3-12.9-8.3-12.9S162.7,609.9,168.6,615.7z"/>
		</g>
		<g>
			<defs>
				<path id="SVGID_00000153678677645546478620000011309745984195490483_" d="M278.8,327.9l-5,44c-5.3,9.7-11.5,21.1-18.1,33.2
					c-2.7-0.4-6.3-0.8-10.4-0.7c-4.4,0.1-9.4,0.8-14.5,2.5c-6.5-11.9-12.6-23.1-17.8-32.6l-5-44c0,0-85.5,41-104.6,57.7
					c0,0,1.3,211.8,45.3,263.6l60.2,27.7l29.3,12.6l11.2-14.4l0,0l9.2,14.4l21.1-15.8l58.2-26.8c44-51.9,45.3-263.6,45.3-263.6
					C364.3,368.9,278.8,327.9,278.8,327.9z"/>
			</defs>
			<clipPath id="SVGID_00000150101245982173385930000012564089154760183184_">
				<use xlink:href="#SVGID_00000153678677645546478620000011309745984195490483_"  style="overflow:visible;"/>
			</clipPath>
			<path style="clip-path:url(#SVGID_00000150101245982173385930000012564089154760183184_);fill:#F5DBEA;" d="M289.6,572.3
				c0,13.2-5.1,23.9-5.1,23.9s-5.1-10.7-5.1-23.9s5.1-23.9,5.1-23.9S289.6,559.1,289.6,572.3z"/>
		</g>
		<g>
			<defs>
				<path id="SVGID_00000165214275248104778120000011488575682000924830_" d="M278.8,327.9l-5,44c-5.3,9.7-11.5,21.1-18.1,33.2
					c-2.7-0.4-6.3-0.8-10.4-0.7c-4.4,0.1-9.4,0.8-14.5,2.5c-6.5-11.9-12.6-23.1-17.8-32.6l-5-44c0,0-85.5,41-104.6,57.7
					c0,0,1.3,211.8,45.3,263.6l60.2,27.7l29.3,12.6l11.2-14.4l0,0l9.2,14.4l21.1-15.8l58.2-26.8c44-51.9,45.3-263.6,45.3-263.6
					C364.3,368.9,278.8,327.9,278.8,327.9z"/>
			</defs>
			<clipPath id="SVGID_00000104697088753886552580000017425609812960993951_">
				<use xlink:href="#SVGID_00000165214275248104778120000011488575682000924830_"  style="overflow:visible;"/>
			</clipPath>
			<path style="clip-path:url(#SVGID_00000104697088753886552580000017425609812960993951_);fill:#F5DBEA;" d="M305,582.9
				c-9.3,9.3-20.5,13.3-20.5,13.3s3.9-11.2,13.3-20.5c9.3-9.3,20.5-13.3,20.5-13.3S314.3,573.6,305,582.9z"/>
		</g>
		<g>
			<defs>
				<path id="SVGID_00000121990234538579972400000014477049217413827212_" d="M278.8,327.9l-5,44c-5.3,9.7-11.5,21.1-18.1,33.2
					c-2.7-0.4-6.3-0.8-10.4-0.7c-4.4,0.1-9.4,0.8-14.5,2.5c-6.5-11.9-12.6-23.1-17.8-32.6l-5-44c0,0-85.5,41-104.6,57.7
					c0,0,1.3,211.8,45.3,263.6l60.2,27.7l29.3,12.6l11.2-14.4l0,0l9.2,14.4l21.1-15.8l58.2-26.8c44-51.9,45.3-263.6,45.3-263.6
					C364.3,368.9,278.8,327.9,278.8,327.9z"/>
			</defs>
			<clipPath id="SVGID_00000173848750289380235010000001045172665563188142_">
				<use xlink:href="#SVGID_00000121990234538579972400000014477049217413827212_"  style="overflow:visible;"/>
			</clipPath>
			<path style="clip-path:url(#SVGID_00000173848750289380235010000001045172665563188142_);fill:#F5DBEA;" d="M308.4,601.3
				c-13.2,0-23.9-5.1-23.9-5.1s10.7-5.1,23.9-5.1c13.2,0,23.9,5.1,23.9,5.1S321.6,601.3,308.4,601.3z"/>
		</g>
		<g>
			<defs>
				<path id="SVGID_00000046305046726219777430000014616581068268926085_" d="M278.8,327.9l-5,44c-5.3,9.7-11.5,21.1-18.1,33.2
					c-2.7-0.4-6.3-0.8-10.4-0.7c-4.4,0.1-9.4,0.8-14.5,2.5c-6.5-11.9-12.6-23.1-17.8-32.6l-5-44c0,0-85.5,41-104.6,57.7
					c0,0,1.3,211.8,45.3,263.6l60.2,27.7l29.3,12.6l11.2-14.4l0,0l9.2,14.4l21.1-15.8l58.2-26.8c44-51.9,45.3-263.6,45.3-263.6
					C364.3,368.9,278.8,327.9,278.8,327.9z"/>
			</defs>
			<clipPath id="SVGID_00000029025082489215290420000012544841012453880759_">
				<use xlink:href="#SVGID_00000046305046726219777430000014616581068268926085_"  style="overflow:visible;"/>
			</clipPath>
			<path style="clip-path:url(#SVGID_00000029025082489215290420000012544841012453880759_);fill:#F5DBEA;" d="M297.8,616.7
				c-9.3-9.3-13.3-20.5-13.3-20.5s11.2,3.9,20.5,13.3c9.3,9.3,13.3,20.5,13.3,20.5S307.1,626,297.8,616.7z"/>
		</g>
		<g>
			<defs>
				<path id="SVGID_00000085242169385132582580000016048981170128417957_" d="M278.8,327.9l-5,44c-5.3,9.7-11.5,21.1-18.1,33.2
					c-2.7-0.4-6.3-0.8-10.4-0.7c-4.4,0.1-9.4,0.8-14.5,2.5c-6.5-11.9-12.6-23.1-17.8-32.6l-5-44c0,0-85.5,41-104.6,57.7
					c0,0,1.3,211.8,45.3,263.6l60.2,27.7l29.3,12.6l11.2-14.4l0,0l9.2,14.4l21.1-15.8l58.2-26.8c44-51.9,45.3-263.6,45.3-263.6
					C364.3,368.9,278.8,327.9,278.8,327.9z"/>
			</defs>
			<clipPath id="SVGID_00000082337320813947949380000005652598465790859688_">
				<use xlink:href="#SVGID_00000085242169385132582580000016048981170128417957_"  style="overflow:visible;"/>
			</clipPath>
			<path style="clip-path:url(#SVGID_00000082337320813947949380000005652598465790859688_);fill:#F5DBEA;" d="M279.4,620.1
				c0-13.2,5.1-23.9,5.1-23.9s5.1,10.7,5.1,23.9s-5.1,23.9-5.1,23.9S279.4,633.3,279.4,620.1z"/>
		</g>
		<g>
			<defs>
				<path id="SVGID_00000113312548911144665170000013381303273489925014_" d="M278.8,327.9l-5,44c-5.3,9.7-11.5,21.1-18.1,33.2
					c-2.7-0.4-6.3-0.8-10.4-0.7c-4.4,0.1-9.4,0.8-14.5,2.5c-6.5-11.9-12.6-23.1-17.8-32.6l-5-44c0,0-85.5,41-104.6,57.7
					c0,0,1.3,211.8,45.3,263.6l60.2,27.7l29.3,12.6l11.2-14.4l0,0l9.2,14.4l21.1-15.8l58.2-26.8c44-51.9,45.3-263.6,45.3-263.6
					C364.3,368.9,278.8,327.9,278.8,327.9z"/>
			</defs>
			<clipPath id="SVGID_00000016766802497781039130000012060811183924361895_">
				<use xlink:href="#SVGID_00000113312548911144665170000013381303273489925014_"  style="overflow:visible;"/>
			</clipPath>
			<path style="clip-path:url(#SVGID_00000016766802497781039130000012060811183924361895_);fill:#F5DBEA;" d="M264,609.5
				c9.3-9.3,20.5-13.3,20.5-13.3s-3.9,11.2-13.3,20.5c-9.3,9.3-20.5,13.3-20.5,13.3S254.7,618.8,264,609.5z"/>
		</g>
		<g>
			<defs>
				<path id="SVGID_00000114037897571741613620000014511577927476283829_" d="M278.8,327.9l-5,44c-5.3,9.7-11.5,21.1-18.1,33.2
					c-2.7-0.4-6.3-0.8-10.4-0.7c-4.4,0.1-9.4,0.8-14.5,2.5c-6.5-11.9-12.6-23.1-17.8-32.6l-5-44c0,0-85.5,41-104.6,57.7
					c0,0,1.3,211.8,45.3,263.6l60.2,27.7l29.3,12.6l11.2-14.4l0,0l9.2,14.4l21.1-15.8l58.2-26.8c44-51.9,45.3-263.6,45.3-263.6
					C364.3,368.9,278.8,327.9,278.8,327.9z"/>
			</defs>
			<clipPath id="SVGID_00000181055806639697383200000005910001760545326472_">
				<use xlink:href="#SVGID_00000114037897571741613620000014511577927476283829_"  style="overflow:visible;"/>
			</clipPath>
			<path style="clip-path:url(#SVGID_00000181055806639697383200000005910001760545326472_);fill:#F5DBEA;" d="M260.6,591.1
				c13.2,0,23.9,5.1,23.9,5.1s-10.7,5.1-23.9,5.1c-13.2,0-23.9-5.1-23.9-5.1S247.4,591.1,260.6,591.1z"/>
		</g>
		<g>
			<defs>
				<path id="SVGID_00000047033010434824169100000015614145229584557246_" d="M278.8,327.9l-5,44c-5.3,9.7-11.5,21.1-18.1,33.2
					c-2.7-0.4-6.3-0.8-10.4-0.7c-4.4,0.1-9.4,0.8-14.5,2.5c-6.5-11.9-12.6-23.1-17.8-32.6l-5-44c0,0-85.5,41-104.6,57.7
					c0,0,1.3,211.8,45.3,263.6l60.2,27.7l29.3,12.6l11.2-14.4l0,0l9.2,14.4l21.1-15.8l58.2-26.8c44-51.9,45.3-263.6,45.3-263.6
					C364.3,368.9,278.8,327.9,278.8,327.9z"/>
			</defs>
			<clipPath id="SVGID_00000160891617392957797200000015105501644641620380_">
				<use xlink:href="#SVGID_00000047033010434824169100000015614145229584557246_"  style="overflow:visible;"/>
			</clipPath>
			<path style="clip-path:url(#SVGID_00000160891617392957797200000015105501644641620380_);fill:#F5DBEA;" d="M271.2,575.7
				c9.3,9.3,13.3,20.5,13.3,20.5s-11.2-3.9-20.5-13.3c-9.3-9.3-13.3-20.5-13.3-20.5S261.9,566.4,271.2,575.7z"/>
		</g>
		<g>
			<defs>
				<path id="SVGID_00000018929795742342885800000010297825124914157211_" d="M278.8,327.9l-5,44c-5.3,9.7-11.5,21.1-18.1,33.2
					c-2.7-0.4-6.3-0.8-10.4-0.7c-4.4,0.1-9.4,0.8-14.5,2.5c-6.5-11.9-12.6-23.1-17.8-32.6l-5-44c0,0-85.5,41-104.6,57.7
					c0,0,1.3,211.8,45.3,263.6l60.2,27.7l29.3,12.6l11.2-14.4l0,0l9.2,14.4l21.1-15.8l58.2-26.8c44-51.9,45.3-263.6,45.3-263.6
					C364.3,368.9,278.8,327.9,278.8,327.9z"/>
			</defs>
			<clipPath id="SVGID_00000146495950767125483030000006497850540576452236_">
				<use xlink:href="#SVGID_00000018929795742342885800000010297825124914157211_"  style="overflow:visible;"/>
			</clipPath>
			<path style="clip-path:url(#SVGID_00000146495950767125483030000006497850540576452236_);fill:#F4E9BE;" d="M342.5,612.3
				c0,8.3-3.2,15-3.2,15s-3.2-6.7-3.2-15s3.2-15,3.2-15S342.5,604,342.5,612.3z"/>
		</g>
		<g>
			<defs>
				<path id="SVGID_00000183951461333957852850000003306423589268017057_" d="M278.8,327.9l-5,44c-5.3,9.7-11.5,21.1-18.1,33.2
					c-2.7-0.4-6.3-0.8-10.4-0.7c-4.4,0.1-9.4,0.8-14.5,2.5c-6.5-11.9-12.6-23.1-17.8-32.6l-5-44c0,0-85.5,41-104.6,57.7
					c0,0,1.3,211.8,45.3,263.6l60.2,27.7l29.3,12.6l11.2-14.4l0,0l9.2,14.4l21.1-15.8l58.2-26.8c44-51.9,45.3-263.6,45.3-263.6
					C364.3,368.9,278.8,327.9,278.8,327.9z"/>
			</defs>
			<clipPath id="SVGID_00000052089724844883563530000016796659040523745459_">
				<use xlink:href="#SVGID_00000183951461333957852850000003306423589268017057_"  style="overflow:visible;"/>
			</clipPath>
			<path style="clip-path:url(#SVGID_00000052089724844883563530000016796659040523745459_);fill:#F4E9BE;" d="M352.1,619
				c-5.9,5.9-12.9,8.3-12.9,8.3s2.5-7,8.3-12.9s12.9-8.3,12.9-8.3S358,613.1,352.1,619z"/>
		</g>
		<g>
			<defs>
				<path id="SVGID_00000097468672348696310630000000278217951430125754_" d="M278.8,327.9l-5,44c-5.3,9.7-11.5,21.1-18.1,33.2
					c-2.7-0.4-6.3-0.8-10.4-0.7c-4.4,0.1-9.4,0.8-14.5,2.5c-6.5-11.9-12.6-23.1-17.8-32.6l-5-44c0,0-85.5,41-104.6,57.7
					c0,0,1.3,211.8,45.3,263.6l60.2,27.7l29.3,12.6l11.2-14.4l0,0l9.2,14.4l21.1-15.8l58.2-26.8c44-51.9,45.3-263.6,45.3-263.6
					C364.3,368.9,278.8,327.9,278.8,327.9z"/>
			</defs>
			<clipPath id="SVGID_00000117652716941427108610000014750149883991136904_">
				<use xlink:href="#SVGID_00000097468672348696310630000000278217951430125754_"  style="overflow:visible;"/>
			</clipPath>
			<path style="clip-path:url(#SVGID_00000117652716941427108610000014750149883991136904_);fill:#F4E9BE;" d="M354.3,630.6
				c-8.3,0-15-3.2-15-3.2s6.7-3.2,15-3.2s15,3.2,15,3.2S362.6,630.6,354.3,630.6z"/>
		</g>
		<g>
			<defs>
				<path id="SVGID_00000089572989123372703780000011455298424002822811_" d="M278.8,327.9l-5,44c-5.3,9.7-11.5,21.1-18.1,33.2
					c-2.7-0.4-6.3-0.8-10.4-0.7c-4.4,0.1-9.4,0.8-14.5,2.5c-6.5-11.9-12.6-23.1-17.8-32.6l-5-44c0,0-85.5,41-104.6,57.7
					c0,0,1.3,211.8,45.3,263.6l60.2,27.7l29.3,12.6l11.2-14.4l0,0l9.2,14.4l21.1-15.8l58.2-26.8c44-51.9,45.3-263.6,45.3-263.6
					C364.3,368.9,278.8,327.9,278.8,327.9z"/>
			</defs>
			<clipPath id="SVGID_00000049220032837826265140000010090641959443715262_">
				<use xlink:href="#SVGID_00000089572989123372703780000011455298424002822811_"  style="overflow:visible;"/>
			</clipPath>
			<path style="clip-path:url(#SVGID_00000049220032837826265140000010090641959443715262_);fill:#F4E9BE;" d="M347.6,640.2
				c-5.9-5.9-8.3-12.9-8.3-12.9s7,2.5,12.9,8.3c5.9,5.9,8.3,12.9,8.3,12.9S353.5,646.1,347.6,640.2z"/>
		</g>
		<g>
			<defs>
				<path id="SVGID_00000051349018642484192990000010331896301418894500_" d="M278.8,327.9l-5,44c-5.3,9.7-11.5,21.1-18.1,33.2
					c-2.7-0.4-6.3-0.8-10.4-0.7c-4.4,0.1-9.4,0.8-14.5,2.5c-6.5-11.9-12.6-23.1-17.8-32.6l-5-44c0,0-85.5,41-104.6,57.7
					c0,0,1.3,211.8,45.3,263.6l60.2,27.7l29.3,12.6l11.2-14.4l0,0l9.2,14.4l21.1-15.8l58.2-26.8c44-51.9,45.3-263.6,45.3-263.6
					C364.3,368.9,278.8,327.9,278.8,327.9z"/>
			</defs>
			<clipPath id="SVGID_00000080925415399212915070000005291352164916300177_">
				<use xlink:href="#SVGID_00000051349018642484192990000010331896301418894500_"  style="overflow:visible;"/>
			</clipPath>
			<path style="clip-path:url(#SVGID_00000080925415399212915070000005291352164916300177_);fill:#F4E9BE;" d="M336,642.4
				c0-8.3,3.2-15,3.2-15s3.2,6.7,3.2,15s-3.2,15-3.2,15S336,650.7,336,642.4z"/>
		</g>
		<g>
			<defs>
				<path id="SVGID_00000029736915717483733430000013711367971257267382_" d="M278.8,327.9l-5,44c-5.3,9.7-11.5,21.1-18.1,33.2
					c-2.7-0.4-6.3-0.8-10.4-0.7c-4.4,0.1-9.4,0.8-14.5,2.5c-6.5-11.9-12.6-23.1-17.8-32.6l-5-44c0,0-85.5,41-104.6,57.7
					c0,0,1.3,211.8,45.3,263.6l60.2,27.7l29.3,12.6l11.2-14.4l0,0l9.2,14.4l21.1-15.8l58.2-26.8c44-51.9,45.3-263.6,45.3-263.6
					C364.3,368.9,278.8,327.9,278.8,327.9z"/>
			</defs>
			<clipPath id="SVGID_00000144314221921331085580000015258898973850009238_">
				<use xlink:href="#SVGID_00000029736915717483733430000013711367971257267382_"  style="overflow:visible;"/>
			</clipPath>
			<path style="clip-path:url(#SVGID_00000144314221921331085580000015258898973850009238_);fill:#F4E9BE;" d="M326.4,635.7
				c5.9-5.9,12.9-8.3,12.9-8.3s-2.5,7-8.3,12.9c-5.9,5.9-12.9,8.3-12.9,8.3S320.5,641.6,326.4,635.7z"/>
		</g>
		<g>
			<defs>
				<path id="SVGID_00000150782966787788334810000016386665017848002204_" d="M278.8,327.9l-5,44c-5.3,9.7-11.5,21.1-18.1,33.2
					c-2.7-0.4-6.3-0.8-10.4-0.7c-4.4,0.1-9.4,0.8-14.5,2.5c-6.5-11.9-12.6-23.1-17.8-32.6l-5-44c0,0-85.5,41-104.6,57.7
					c0,0,1.3,211.8,45.3,263.6l60.2,27.7l29.3,12.6l11.2-14.4l0,0l9.2,14.4l21.1-15.8l58.2-26.8c44-51.9,45.3-263.6,45.3-263.6
					C364.3,368.9,278.8,327.9,278.8,327.9z"/>
			</defs>
			<clipPath id="SVGID_00000141453135566685077610000014124482954853402790_">
				<use xlink:href="#SVGID_00000150782966787788334810000016386665017848002204_"  style="overflow:visible;"/>
			</clipPath>
			<path style="clip-path:url(#SVGID_00000141453135566685077610000014124482954853402790_);fill:#F4E9BE;" d="M324.2,624.1
				c8.3,0,15,3.2,15,3.2s-6.7,3.2-15,3.2s-15-3.2-15-3.2S315.9,624.1,324.2,624.1z"/>
		</g>
		<g>
			<defs>
				<path id="SVGID_00000141427391886508163190000015377876608367548039_" d="M278.8,327.9l-5,44c-5.3,9.7-11.5,21.1-18.1,33.2
					c-2.7-0.4-6.3-0.8-10.4-0.7c-4.4,0.1-9.4,0.8-14.5,2.5c-6.5-11.9-12.6-23.1-17.8-32.6l-5-44c0,0-85.5,41-104.6,57.7
					c0,0,1.3,211.8,45.3,263.6l60.2,27.7l29.3,12.6l11.2-14.4l0,0l9.2,14.4l21.1-15.8l58.2-26.8c44-51.9,45.3-263.6,45.3-263.6
					C364.3,368.9,278.8,327.9,278.8,327.9z"/>
			</defs>
			<clipPath id="SVGID_00000116920166276915099310000007185294915926034309_">
				<use xlink:href="#SVGID_00000141427391886508163190000015377876608367548039_"  style="overflow:visible;"/>
			</clipPath>
			<path style="clip-path:url(#SVGID_00000116920166276915099310000007185294915926034309_);fill:#F4E9BE;" d="M330.9,614.5
				c5.9,5.9,8.3,12.9,8.3,12.9s-7-2.5-12.9-8.3c-5.9-5.9-8.3-12.9-8.3-12.9S325,608.6,330.9,614.5z"/>
		</g>
		<g>
			<defs>
				<path id="SVGID_00000160882214484536978280000005114742371280169120_" d="M278.8,327.9l-5,44c-5.3,9.7-11.5,21.1-18.1,33.2
					c-2.7-0.4-6.3-0.8-10.4-0.7c-4.4,0.1-9.4,0.8-14.5,2.5c-6.5-11.9-12.6-23.1-17.8-32.6l-5-44c0,0-85.5,41-104.6,57.7
					c0,0,1.3,211.8,45.3,263.6l60.2,27.7l29.3,12.6l11.2-14.4l0,0l9.2,14.4l21.1-15.8l58.2-26.8c44-51.9,45.3-263.6,45.3-263.6
					C364.3,368.9,278.8,327.9,278.8,327.9z"/>
			</defs>
			<clipPath id="SVGID_00000121968573974145899190000016145767423287435936_">
				<use xlink:href="#SVGID_00000160882214484536978280000005114742371280169120_"  style="overflow:visible;"/>
			</clipPath>
			<path style="clip-path:url(#SVGID_00000121968573974145899190000016145767423287435936_);fill:#F5DBEA;" d="M330,323.5
				c0,13.2-5.1,23.9-5.1,23.9s-5.1-10.7-5.1-23.9s5.1-23.9,5.1-23.9S330,310.3,330,323.5z"/>
		</g>
		<g>
			<defs>
				<path id="SVGID_00000116949838320111589470000009933054663905157249_" d="M278.8,327.9l-5,44c-5.3,9.7-11.5,21.1-18.1,33.2
					c-2.7-0.4-6.3-0.8-10.4-0.7c-4.4,0.1-9.4,0.8-14.5,2.5c-6.5-11.9-12.6-23.1-17.8-32.6l-5-44c0,0-85.5,41-104.6,57.7
					c0,0,1.3,211.8,45.3,263.6l60.2,27.7l29.3,12.6l11.2-14.4l0,0l9.2,14.4l21.1-15.8l58.2-26.8c44-51.9,45.3-263.6,45.3-263.6
					C364.3,368.9,278.8,327.9,278.8,327.9z"/>
			</defs>
			<clipPath id="SVGID_00000129910752222598719970000002439840310836616616_">
				<use xlink:href="#SVGID_00000116949838320111589470000009933054663905157249_"  style="overflow:visible;"/>
			</clipPath>
			<path style="clip-path:url(#SVGID_00000129910752222598719970000002439840310836616616_);fill:#F5DBEA;" d="M345.4,334.1
				c-9.3,9.3-20.5,13.3-20.5,13.3s3.9-11.2,13.3-20.5c9.3-9.3,20.5-13.3,20.5-13.3S354.8,324.8,345.4,334.1z"/>
		</g>
		<g>
			<defs>
				<path id="SVGID_00000042729520466525471970000004326602915543408308_" d="M278.8,327.9l-5,44c-5.3,9.7-11.5,21.1-18.1,33.2
					c-2.7-0.4-6.3-0.8-10.4-0.7c-4.4,0.1-9.4,0.8-14.5,2.5c-6.5-11.9-12.6-23.1-17.8-32.6l-5-44c0,0-85.5,41-104.6,57.7
					c0,0,1.3,211.8,45.3,263.6l60.2,27.7l29.3,12.6l11.2-14.4l0,0l9.2,14.4l21.1-15.8l58.2-26.8c44-51.9,45.3-263.6,45.3-263.6
					C364.3,368.9,278.8,327.9,278.8,327.9z"/>
			</defs>
			<clipPath id="SVGID_00000106848860279478042700000015220116831086223491_">
				<use xlink:href="#SVGID_00000042729520466525471970000004326602915543408308_"  style="overflow:visible;"/>
			</clipPath>
			<path style="clip-path:url(#SVGID_00000106848860279478042700000015220116831086223491_);fill:#F5DBEA;" d="M348.8,352.5
				c-13.2,0-23.9-5.1-23.9-5.1s10.7-5.1,23.9-5.1s23.9,5.1,23.9,5.1S362,352.5,348.8,352.5z"/>
		</g>
		<g>
			<defs>
				<path id="SVGID_00000091699996904022762970000009154710248446577301_" d="M278.8,327.9l-5,44c-5.3,9.7-11.5,21.1-18.1,33.2
					c-2.7-0.4-6.3-0.8-10.4-0.7c-4.4,0.1-9.4,0.8-14.5,2.5c-6.5-11.9-12.6-23.1-17.8-32.6l-5-44c0,0-85.5,41-104.6,57.7
					c0,0,1.3,211.8,45.3,263.6l60.2,27.7l29.3,12.6l11.2-14.4l0,0l9.2,14.4l21.1-15.8l58.2-26.8c44-51.9,45.3-263.6,45.3-263.6
					C364.3,368.9,278.8,327.9,278.8,327.9z"/>
			</defs>
			<clipPath id="SVGID_00000119833530580188898790000014096343873694667943_">
				<use xlink:href="#SVGID_00000091699996904022762970000009154710248446577301_"  style="overflow:visible;"/>
			</clipPath>
			<path style="clip-path:url(#SVGID_00000119833530580188898790000014096343873694667943_);fill:#F5DBEA;" d="M338.2,367.9
				c-9.3-9.3-13.3-20.5-13.3-20.5s11.2,3.9,20.5,13.3c9.3,9.3,13.3,20.5,13.3,20.5S347.5,377.2,338.2,367.9z"/>
		</g>
		<g>
			<defs>
				<path id="SVGID_00000152232597132526315940000016073131728203004818_" d="M278.8,327.9l-5,44c-5.3,9.7-11.5,21.1-18.1,33.2
					c-2.7-0.4-6.3-0.8-10.4-0.7c-4.4,0.1-9.4,0.8-14.5,2.5c-6.5-11.9-12.6-23.1-17.8-32.6l-5-44c0,0-85.5,41-104.6,57.7
					c0,0,1.3,211.8,45.3,263.6l60.2,27.7l29.3,12.6l11.2-14.4l0,0l9.2,14.4l21.1-15.8l58.2-26.8c44-51.9,45.3-263.6,45.3-263.6
					C364.3,368.9,278.8,327.9,278.8,327.9z"/>
			</defs>
			<clipPath id="SVGID_00000026870200251347929780000005161669946939909781_">
				<use xlink:href="#SVGID_00000152232597132526315940000016073131728203004818_"  style="overflow:visible;"/>
			</clipPath>
			<path style="clip-path:url(#SVGID_00000026870200251347929780000005161669946939909781_);fill:#F5DBEA;" d="M319.8,371.2
				c0-13.2,5.1-23.9,5.1-23.9s5.1,10.7,5.1,23.9s-5.1,23.9-5.1,23.9S319.8,384.4,319.8,371.2z"/>
		</g>
		<g>
			<defs>
				<path id="SVGID_00000011002750177744371530000014568878490336334735_" d="M278.8,327.9l-5,44c-5.3,9.7-11.5,21.1-18.1,33.2
					c-2.7-0.4-6.3-0.8-10.4-0.7c-4.4,0.1-9.4,0.8-14.5,2.5c-6.5-11.9-12.6-23.1-17.8-32.6l-5-44c0,0-85.5,41-104.6,57.7
					c0,0,1.3,211.8,45.3,263.6l60.2,27.7l29.3,12.6l11.2-14.4l0,0l9.2,14.4l21.1-15.8l58.2-26.8c44-51.9,45.3-263.6,45.3-263.6
					C364.3,368.9,278.8,327.9,278.8,327.9z"/>
			</defs>
			<clipPath id="SVGID_00000004538314555069350840000012554395875101532863_">
				<use xlink:href="#SVGID_00000011002750177744371530000014568878490336334735_"  style="overflow:visible;"/>
			</clipPath>
			<path style="clip-path:url(#SVGID_00000004538314555069350840000012554395875101532863_);fill:#F5DBEA;" d="M304.4,360.6
				c9.3-9.3,20.5-13.3,20.5-13.3s-3.9,11.2-13.3,20.5c-9.3,9.3-20.5,13.3-20.5,13.3S295.1,370,304.4,360.6z"/>
		</g>
		<g>
			<defs>
				<path id="SVGID_00000134236051429119613190000000144408741570993562_" d="M278.8,327.9l-5,44c-5.3,9.7-11.5,21.1-18.1,33.2
					c-2.7-0.4-6.3-0.8-10.4-0.7c-4.4,0.1-9.4,0.8-14.5,2.5c-6.5-11.9-12.6-23.1-17.8-32.6l-5-44c0,0-85.5,41-104.6,57.7
					c0,0,1.3,211.8,45.3,263.6l60.2,27.7l29.3,12.6l11.2-14.4l0,0l9.2,14.4l21.1-15.8l58.2-26.8c44-51.9,45.3-263.6,45.3-263.6
					C364.3,368.9,278.8,327.9,278.8,327.9z"/>
			</defs>
			<clipPath id="SVGID_00000094612770948306323240000001070073508823353515_">
				<use xlink:href="#SVGID_00000134236051429119613190000000144408741570993562_"  style="overflow:visible;"/>
			</clipPath>
			<path style="clip-path:url(#SVGID_00000094612770948306323240000001070073508823353515_);fill:#F5DBEA;" d="M301.1,342.2
				c13.2,0,23.9,5.1,23.9,5.1s-10.7,5.1-23.9,5.1s-23.9-5.1-23.9-5.1S287.9,342.2,301.1,342.2z"/>
		</g>
		<g>
			<defs>
				<path id="SVGID_00000129183579803488232470000013431976266242230413_" d="M278.8,327.9l-5,44c-5.3,9.7-11.5,21.1-18.1,33.2
					c-2.7-0.4-6.3-0.8-10.4-0.7c-4.4,0.1-9.4,0.8-14.5,2.5c-6.5-11.9-12.6-23.1-17.8-32.6l-5-44c0,0-85.5,41-104.6,57.7
					c0,0,1.3,211.8,45.3,263.6l60.2,27.7l29.3,12.6l11.2-14.4l0,0l9.2,14.4l21.1-15.8l58.2-26.8c44-51.9,45.3-263.6,45.3-263.6
					C364.3,368.9,278.8,327.9,278.8,327.9z"/>
			</defs>
			<clipPath id="SVGID_00000105389794949914345790000016667547981101410482_">
				<use xlink:href="#SVGID_00000129183579803488232470000013431976266242230413_"  style="overflow:visible;"/>
			</clipPath>
			<path style="clip-path:url(#SVGID_00000105389794949914345790000016667547981101410482_);fill:#F5DBEA;" d="M311.7,326.9
				c9.3,9.3,13.3,20.5,13.3,20.5s-11.2-3.9-20.5-13.3c-9.3-9.3-13.3-20.5-13.3-20.5S302.3,317.5,311.7,326.9z"/>
		</g>
		<g>
			<defs>
				<path id="SVGID_00000095306721781387384800000003165795796173942154_" d="M278.8,327.9l-5,44c-5.3,9.7-11.5,21.1-18.1,33.2
					c-2.7-0.4-6.3-0.8-10.4-0.7c-4.4,0.1-9.4,0.8-14.5,2.5c-6.5-11.9-12.6-23.1-17.8-32.6l-5-44c0,0-85.5,41-104.6,57.7
					c0,0,1.3,211.8,45.3,263.6l60.2,27.7l29.3,12.6l11.2-14.4l0,0l9.2,14.4l21.1-15.8l58.2-26.8c44-51.9,45.3-263.6,45.3-263.6
					C364.3,368.9,278.8,327.9,278.8,327.9z"/>
			</defs>
			<clipPath id="SVGID_00000130627969853675906380000010511239651158910860_">
				<use xlink:href="#SVGID_00000095306721781387384800000003165795796173942154_"  style="overflow:visible;"/>
			</clipPath>
			<path style="clip-path:url(#SVGID_00000130627969853675906380000010511239651158910860_);fill:#F4E9BE;" d="M382.9,363.5
				c0,8.3-3.2,15-3.2,15s-3.2-6.7-3.2-15s3.2-15,3.2-15S382.9,355.2,382.9,363.5z"/>
		</g>
		<g>
			<defs>
				<path id="SVGID_00000004520112470576222080000015742507026765160879_" d="M278.8,327.9l-5,44c-5.3,9.7-11.5,21.1-18.1,33.2
					c-2.7-0.4-6.3-0.8-10.4-0.7c-4.4,0.1-9.4,0.8-14.5,2.5c-6.5-11.9-12.6-23.1-17.8-32.6l-5-44c0,0-85.5,41-104.6,57.7
					c0,0,1.3,211.8,45.3,263.6l60.2,27.7l29.3,12.6l11.2-14.4l0,0l9.2,14.4l21.1-15.8l58.2-26.8c44-51.9,45.3-263.6,45.3-263.6
					C364.3,368.9,278.8,327.9,278.8,327.9z"/>
			</defs>
			<clipPath id="SVGID_00000124875789395965848750000008207011840225653633_">
				<use xlink:href="#SVGID_00000004520112470576222080000015742507026765160879_"  style="overflow:visible;"/>
			</clipPath>
			<path style="clip-path:url(#SVGID_00000124875789395965848750000008207011840225653633_);fill:#F4E9BE;" d="M392.6,370.2
				c-5.9,5.9-12.9,8.3-12.9,8.3s2.5-7,8.3-12.9c5.9-5.9,12.9-8.3,12.9-8.3S398.4,364.3,392.6,370.2z"/>
		</g>
		<g>
			<defs>
				<path id="SVGID_00000084523580451586649010000000256124319598781093_" d="M278.8,327.9l-5,44c-5.3,9.7-11.5,21.1-18.1,33.2
					c-2.7-0.4-6.3-0.8-10.4-0.7c-4.4,0.1-9.4,0.8-14.5,2.5c-6.5-11.9-12.6-23.1-17.8-32.6l-5-44c0,0-85.5,41-104.6,57.7
					c0,0,1.3,211.8,45.3,263.6l60.2,27.7l29.3,12.6l11.2-14.4l0,0l9.2,14.4l21.1-15.8l58.2-26.8c44-51.9,45.3-263.6,45.3-263.6
					C364.3,368.9,278.8,327.9,278.8,327.9z"/>
			</defs>
			<clipPath id="SVGID_00000112634575080156975910000016029179799862692772_">
				<use xlink:href="#SVGID_00000084523580451586649010000000256124319598781093_"  style="overflow:visible;"/>
			</clipPath>
			<path style="clip-path:url(#SVGID_00000112634575080156975910000016029179799862692772_);fill:#F4E9BE;" d="M394.7,381.7
				c-8.3,0-15-3.2-15-3.2s6.7-3.2,15-3.2s15,3.2,15,3.2S403,381.7,394.7,381.7z"/>
		</g>
		<g>
			<defs>
				<path id="SVGID_00000068663161495701420810000002801407418228514455_" d="M278.8,327.9l-5,44c-5.3,9.7-11.5,21.1-18.1,33.2
					c-2.7-0.4-6.3-0.8-10.4-0.7c-4.4,0.1-9.4,0.8-14.5,2.5c-6.5-11.9-12.6-23.1-17.8-32.6l-5-44c0,0-85.5,41-104.6,57.7
					c0,0,1.3,211.8,45.3,263.6l60.2,27.7l29.3,12.6l11.2-14.4l0,0l9.2,14.4l21.1-15.8l58.2-26.8c44-51.9,45.3-263.6,45.3-263.6
					C364.3,368.9,278.8,327.9,278.8,327.9z"/>
			</defs>
			<clipPath id="SVGID_00000028283573410000513690000007684146036831815313_">
				<use xlink:href="#SVGID_00000068663161495701420810000002801407418228514455_"  style="overflow:visible;"/>
			</clipPath>
			<path style="clip-path:url(#SVGID_00000028283573410000513690000007684146036831815313_);fill:#F4E9BE;" d="M388,391.4
				c-5.9-5.9-8.3-12.9-8.3-12.9s7,2.5,12.9,8.3c5.9,5.9,8.3,12.9,8.3,12.9S393.9,397.3,388,391.4z"/>
		</g>
		<g>
			<defs>
				<path id="SVGID_00000120547550465159698100000014309986553840134295_" d="M278.8,327.9l-5,44c-5.3,9.7-11.5,21.1-18.1,33.2
					c-2.7-0.4-6.3-0.8-10.4-0.7c-4.4,0.1-9.4,0.8-14.5,2.5c-6.5-11.9-12.6-23.1-17.8-32.6l-5-44c0,0-85.5,41-104.6,57.7
					c0,0,1.3,211.8,45.3,263.6l60.2,27.7l29.3,12.6l11.2-14.4l0,0l9.2,14.4l21.1-15.8l58.2-26.8c44-51.9,45.3-263.6,45.3-263.6
					C364.3,368.9,278.8,327.9,278.8,327.9z"/>
			</defs>
			<clipPath id="SVGID_00000147936576501995452220000008849323606041043886_">
				<use xlink:href="#SVGID_00000120547550465159698100000014309986553840134295_"  style="overflow:visible;"/>
			</clipPath>
			<path style="clip-path:url(#SVGID_00000147936576501995452220000008849323606041043886_);fill:#F4E9BE;" d="M376.5,393.5
				c0-8.3,3.2-15,3.2-15s3.2,6.7,3.2,15s-3.2,15-3.2,15S376.5,401.8,376.5,393.5z"/>
		</g>
		<g>
			<defs>
				<path id="SVGID_00000165950031085429748220000014827282587576891553_" d="M278.8,327.9l-5,44c-5.3,9.7-11.5,21.1-18.1,33.2
					c-2.7-0.4-6.3-0.8-10.4-0.7c-4.4,0.1-9.4,0.8-14.5,2.5c-6.5-11.9-12.6-23.1-17.8-32.6l-5-44c0,0-85.5,41-104.6,57.7
					c0,0,1.3,211.8,45.3,263.6l60.2,27.7l29.3,12.6l11.2-14.4l0,0l9.2,14.4l21.1-15.8l58.2-26.8c44-51.9,45.3-263.6,45.3-263.6
					C364.3,368.9,278.8,327.9,278.8,327.9z"/>
			</defs>
			<clipPath id="SVGID_00000036225059209497381190000007430686593479070610_">
				<use xlink:href="#SVGID_00000165950031085429748220000014827282587576891553_"  style="overflow:visible;"/>
			</clipPath>
			<path style="clip-path:url(#SVGID_00000036225059209497381190000007430686593479070610_);fill:#F4E9BE;" d="M366.8,386.9
				c5.9-5.9,12.9-8.3,12.9-8.3s-2.5,7-8.3,12.9s-12.9,8.3-12.9,8.3S360.9,392.7,366.8,386.9z"/>
		</g>
		<g>
			<defs>
				<path id="SVGID_00000085209083170946061730000015418531275401518490_" d="M278.8,327.9l-5,44c-5.3,9.7-11.5,21.1-18.1,33.2
					c-2.7-0.4-6.3-0.8-10.4-0.7c-4.4,0.1-9.4,0.8-14.5,2.5c-6.5-11.9-12.6-23.1-17.8-32.6l-5-44c0,0-85.5,41-104.6,57.7
					c0,0,1.3,211.8,45.3,263.6l60.2,27.7l29.3,12.6l11.2-14.4l0,0l9.2,14.4l21.1-15.8l58.2-26.8c44-51.9,45.3-263.6,45.3-263.6
					C364.3,368.9,278.8,327.9,278.8,327.9z"/>
			</defs>
			<clipPath id="SVGID_00000031902444279681929030000012061839733766474920_">
				<use xlink:href="#SVGID_00000085209083170946061730000015418531275401518490_"  style="overflow:visible;"/>
			</clipPath>
			<path style="clip-path:url(#SVGID_00000031902444279681929030000012061839733766474920_);fill:#F4E9BE;" d="M364.7,375.3
				c8.3,0,15,3.2,15,3.2s-6.7,3.2-15,3.2s-15-3.2-15-3.2S356.4,375.3,364.7,375.3z"/>
		</g>
		<g>
			<defs>
				<path id="SVGID_00000092434472579140969560000013786596668419911060_" d="M278.8,327.9l-5,44c-5.3,9.7-11.5,21.1-18.1,33.2
					c-2.7-0.4-6.3-0.8-10.4-0.7c-4.4,0.1-9.4,0.8-14.5,2.5c-6.5-11.9-12.6-23.1-17.8-32.6l-5-44c0,0-85.5,41-104.6,57.7
					c0,0,1.3,211.8,45.3,263.6l60.2,27.7l29.3,12.6l11.2-14.4l0,0l9.2,14.4l21.1-15.8l58.2-26.8c44-51.9,45.3-263.6,45.3-263.6
					C364.3,368.9,278.8,327.9,278.8,327.9z"/>
			</defs>
			<clipPath id="SVGID_00000140721095274459881780000012774389816127301041_">
				<use xlink:href="#SVGID_00000092434472579140969560000013786596668419911060_"  style="overflow:visible;"/>
			</clipPath>
			<path style="clip-path:url(#SVGID_00000140721095274459881780000012774389816127301041_);fill:#F4E9BE;" d="M371.3,365.6
				c5.9,5.9,8.3,12.9,8.3,12.9s-7-2.5-12.9-8.3s-8.3-12.9-8.3-12.9S365.5,359.7,371.3,365.6z"/>
		</g>
	</g>
	<path class="st0" d="M273.2,154.3c0-5.7-11.5-10.2-25.8-10.2s-25.8,4.6-25.8,10.2H273.2z"/>
	<path class="st0" d="M351.1,148.1c-0.8-5.6-11-8.8-22.7-7.1c-11.8,1.7-20.6,7.6-19.8,13.2L351.1,148.1z"/>
	<path class="st99" d="M287.6,532.7L287.6,532.7L287.6,532.7z"/>
	<path class="st1" d="M273.2,292.1l1.2,9.3L273.2,292.1z"/>
	<path class="st1" d="M274.7,303.3c0,0-15.7,1.5-33.7-9.6c-26.2-3.6-49.4-19.1-65.7-41.9l0,0c0,0,10.4,14.3,14.8,31.5l7.3,53.9
		c0,0,9.7,8.6,21.4,20.2c2.9,2.8,5.9,5.9,8.9,9c10,10.4,20.2,21.8,26.5,31.3c2.2,3.4,4,6.5,5,9.2c-0.4-2.2-0.8-5.8-0.4-11.1
		c0.1-1.4,0.3-2.9,0.5-4.6c1-7.7,3.4-18.1,8.2-32c2.8-8,6.4-17.2,11-27.6L274.7,303.3z"/>
	<polygon class="st100" points="274.7,303.3 274.7,303.3 274.4,301.4 	"/>
	<path class="st100" d="M241,293.7c3.9,0.5,7.8,0.8,11.9,0.8c7,0,13.7-0.8,20.3-2.4l1.3,9.3l0.2,1.8
		C274.7,303.3,259,304.7,241,293.7z"/>
	<path class="st1" d="M162.8,230.1c0.1,0.1,0.1,0.3,0.2,0.4C162.9,230.4,162.9,230.3,162.8,230.1z"/>
	<path class="st1" d="M157.5,216.2c1.1,3.2,2.7,7.8,4.9,12.9C160.5,225,158.9,220.6,157.5,216.2z"/>
	<path class="st1" d="M156,211.4C156,211.3,156,211.3,156,211.4C156,211.3,156,211.3,156,211.4L156,211.4z"/>
	<path class="st101" d="M343.6,115.6c-0.1-0.1-0.2-0.2-0.2-0.3c-0.3-0.4-0.6-0.9-1-1.3l0.3-0.5C342.9,114.1,343.3,114.8,343.6,115.6
		z"/>
	<path class="st100" d="M156,211.4L156,211.4c0.5,1.6,1,3.2,1.5,4.8C156.5,213.2,156,211.4,156,211.4z"/>
	<path class="st100" d="M162.4,229.1c0.1,0.3,0.3,0.7,0.4,1C162.7,229.8,162.5,229.5,162.4,229.1z"/>
	<path class="st100" d="M169.9,243.7c-2.7-4.4-5-8.9-6.9-13.2C165.1,235.1,167.4,239.5,169.9,243.7L169.9,243.7z"/>
	<path class="st100" d="M166.8,208.1L166.8,208.1c-2.7,12.3,3,35.1,3.1,35.6c-2.5-4.2-4.8-8.6-6.9-13.1c-0.1-0.1-0.1-0.3-0.2-0.4
		c-0.1-0.3-0.3-0.7-0.4-1c-2.2-5.1-3.9-9.7-4.9-12.9c-0.5-1.6-1-3.2-1.5-4.8l0,0C159.9,211.2,163.5,210,166.8,208.1z"/>
	<path class="st102" d="M278.5,327.9c-4.6,10.5-8.2,19.6-11,27.6c-4.8,13.9-7.2,24.4-8.2,32c-0.2,1.7-0.4,3.2-0.5,4.6
		c-0.4,5.3-0.1,8.9,0.4,11.1c0,0.1,0.1,0.2,0.1,0.4l0,0c0-0.1-0.1-0.2-0.1-0.4c0,0.1,0.1,0.3,0.1,0.4l0,0c0.4,1.9,0.9,2.7,0.9,2.7
		c3.6-4.7,7.4-8.4,11.1-11.3c4-3.1,8-5.3,11.9-6.8c0.1,0,0.1,0,0.2-0.1c16.8-6.5,31-0.2,31-0.2C313.3,377.8,278.5,327.9,278.5,327.9
		z"/>
	<ellipse class="st101" cx="259.1" cy="172.8" rx="5.4" ry="5.7"/>
	<ellipse class="st101" cx="317" cy="171.7" rx="5.4" ry="5.7"/>
	<path class="st103" d="M256.7,238.6c0,0,28.9,13.9,46.7,9.1"/>
	<path class="st100" d="M290.4,208.6c6.3,0,11.5-3.9,11.5-8.7c0-1.8-0.7-3.5-2-4.9c2.2,1.6,3.5,3.8,3.5,6.2c0,4.8-5.1,8.7-11.5,8.7
		c-4,0-7.4-1.5-9.5-3.8C284.5,207.7,287.3,208.6,290.4,208.6z"/>
	<path class="st100" d="M224.7,226.9c0,0,4.4-5.3,2.6-10.7C227.4,216.2,232.6,223.5,224.7,226.9z"/>
	<g>
		<path class="st102" d="M234.3,409C234.4,409,234.4,409,234.3,409L234.3,409L234.3,409z"/>
		<path class="st102" d="M260.2,409.6C260.2,409.6,260.1,409.6,260.2,409.6C260.1,409.6,260.2,409.6,260.2,409.6s-0.5-0.8-0.9-2.7
			c0-0.1-0.1-0.3-0.1-0.4c-1.1-2.7-2.8-5.8-5-9.2c-6.3-9.5-16.5-20.9-26.5-31.3c-3-3.1-6-6.1-8.9-9c-11.8-11.6-21.4-20.2-21.4-20.2
			c-13.8,50.7,6.6,96.3,6.6,96.3c6.5-12.7,15.5-19.3,24.4-22.6l0,0c5.5-2,10.9-2.8,15.7-2.9C253.3,407.4,260.1,409.6,260.2,409.6
			L260.2,409.6L260.2,409.6z"/>
	</g>
	<path class="st104" d="M353.3,439.1c-1.2-5-5.1-8.4-9.3-11c-2.7-1.7-5.5-1.9-8-1c-1.2-3.7-4.5-6.4-8.3-7.2
		c-6.7-1.4-11.5,2.4-13.9,7.6c-5.5,0.2-10,3-13,7.5c-1.3,2-0.7,4.6,0.6,6.5c-1.1,1.9-1.8,4-2,5.9v0.1l54.1-3.6
		C353.8,442.3,353.7,440.7,353.3,439.1z"/>
	
		<rect x="297.1" y="445.5" transform="matrix(0.9975 -7.038247e-02 7.038247e-02 0.9975 -30.7085 24.1394)" class="st102" width="60.2" height="4.7"/>
</g>
</svg>
