<?xml version="1.0" encoding="utf-8"?>
<!-- Generator: Adobe Illustrator 27.7.0, SVG Export Plug-In . SVG Version: 6.00 Build 0)  -->
<svg version="1.1" id="레이어_1" xmlns="http://www.w3.org/2000/svg" xmlns:xlink="http://www.w3.org/1999/xlink" x="0px"
	 y="0px" viewBox="0 0 500 700" style="enable-background:new 0 0 500 700;" xml:space="preserve">
<style type="text/css">
	.st0{fill:#89333A;}
	.st1{clip-path:url(#XMLID_00000168093268528373960210000015883209253182828982_);fill:#89333A;}
	.st2{clip-path:url(#XMLID_00000168093268528373960210000015883209253182828982_);}
	.st3{fill:#EFB7AD;}
	.st4{fill:#D5646D;}
	.st5{fill:#93673A;}
	.st6{fill:#5B5C5F;}
	.st7{fill:#D8AAA4;}
	.st8{fill:#C6606C;}
	.st9{fill:none;}
</style>
<g>
	<path class="st0" d="M378.2,376.7C359,360,273.6,319,273.6,319l-40.3,357.7l0,0l9.3,5.2l10.1-4.6l0,0l0,0l80.3-37
		C376.9,588.4,378.2,376.7,378.2,376.7z"/>
	<path class="st0" d="M277,635.4L277,635.4c-19.8,4-39.3-9-43.3-28.8L203.6,457c-4-19.8,9-39.3,28.8-43.3h0c19.8-4,39.3,9,43.3,28.8
		l30.1,149.7C309.7,612,296.8,631.4,277,635.4z"/>
	<g>
		<defs>
			<path id="XMLID_00000121257085906049389030000017925415070035190400_" d="M242.6,319.3c0,0-88.4,34.2-108.8,49.3
				c0,0-15.3,211.2,24.5,266.4l96.8,54.1L242.6,319.3z"/>
		</defs>
		<use xlink:href="#XMLID_00000121257085906049389030000017925415070035190400_"  style="overflow:visible;fill:#89333A;"/>
		<clipPath id="XMLID_00000152950938959705640570000013925276724780001967_">
			<use xlink:href="#XMLID_00000121257085906049389030000017925415070035190400_"  style="overflow:visible;"/>
		</clipPath>
		<path style="clip-path:url(#XMLID_00000152950938959705640570000013925276724780001967_);fill:#89333A;" d="M-213.7,155
			c-10.5,71.2-12.6,143.6-6.3,215.2"/>
		<path style="clip-path:url(#XMLID_00000152950938959705640570000013925276724780001967_);fill:#89333A;" d="M-260.2,284.5
			c-8.9,86.7-21.4,173-37.3,258.7"/>
		<path style="clip-path:url(#XMLID_00000152950938959705640570000013925276724780001967_);fill:#89333A;" d="M-290,177.2
			c2.7,38.1,5.3,76.1,8,114.2"/>
		<path style="clip-path:url(#XMLID_00000152950938959705640570000013925276724780001967_);fill:#89333A;" d="M-256,186.3
			c19.6,25.8,34.1,55.2,46.5,85.1c12.9,30.9,24,64.3,18.3,97.2"/>
		<path style="clip-path:url(#XMLID_00000152950938959705640570000013925276724780001967_);fill:#89333A;" d="M-72.1,239.3
			c-1.4,51.6-2.9,103.1-4.3,154.7"/>
		<path style="clip-path:url(#XMLID_00000152950938959705640570000013925276724780001967_);fill:#89333A;" d="M-77.1,307.4
			c-14.8,59.5-22,120.9-21.5,182.3"/>
		<path style="clip-path:url(#XMLID_00000152950938959705640570000013925276724780001967_);fill:#89333A;" d="M-76.9,226.2
			c-2.7,61.1-6.7,122.1-11.8,183"/>
		<g style="clip-path:url(#XMLID_00000152950938959705640570000013925276724780001967_);">
			<path class="st0" d="M-211.4,165c-1.2,47.6,1.5,95.3,8.1,142.4"/>
		</g>
		<g style="clip-path:url(#XMLID_00000152950938959705640570000013925276724780001967_);">
			<path class="st0" d="M-172.2,275.2c-6.5,54.9-0.8,111.3,16.5,163.8"/>
		</g>
		<g style="clip-path:url(#XMLID_00000152950938959705640570000013925276724780001967_);">
			<path class="st0" d="M-49.1,311.2c-14,77-14.5,156.4-1.6,233.6"/>
		</g>
		<g style="clip-path:url(#XMLID_00000152950938959705640570000013925276724780001967_);">
			<path class="st0" d="M-8.9,392.5c-6.8,59.5-9.2,119.4-7.2,179.2"/>
		</g>
		<g style="clip-path:url(#XMLID_00000152950938959705640570000013925276724780001967_);">
			<path class="st0" d="M226.3,798.4"/>
		</g>
		<g style="clip-path:url(#XMLID_00000152950938959705640570000013925276724780001967_);">
			<path class="st0" d="M227.2,601.2"/>
		</g>
		<g style="clip-path:url(#XMLID_00000152950938959705640570000013925276724780001967_);">
			<path class="st0" d="M218.4,312.8"/>
		</g>
	</g>
	<path class="st3" d="M307.3,353.6L280,327.3l-1.7-60.4c-0.3-11.6-10.1-20.8-21.6-20.5l-10.1,0.3c-11.6,0.3-20.8,10.1-20.5,21.6
		l1.7,60.5L202,356.7l51.2,126c-0.1,1.5,0.4,3,1.6,4l3.6,8.8l0,0.6l0.1-0.3l0.2,0.5l-0.1-0.9L307.3,353.6z M258.4,491.6l-0.3-4.2
		c0.1,0,0.2,0,0.3,0L258.4,491.6z"/>
	<path class="st4" d="M365.8,75.5c2.1-3.9,2.5-8.5,1.8-12.8c-1.5-8.6-7.8-14.9-14.6-19.9c-4.4-3.2-9.3-3.9-13.6-2.7
		c-1.6-6.4-6.9-11.5-13.4-13.3c-11.3-3.1-19.9,2.7-24.6,11.5c-9.5-0.3-17.4,3.9-23.1,11.4c-2.5,3.3-1.6,7.8,0.4,11.2
		c-2.1,3.2-3.6,6.6-4.1,9.9c-1.5,9.6,4.8,17.9,13.9,20.4c4.7,1.3,9,0.5,13.1-0.7c-1.4,2.1-3.1,4.2-3.7,6.3
		c-2.6,9.4,4.2,18.4,13.8,19c6.5,0.4,13.9-2.6,19.4-6c0.7-0.5,1.4-0.9,2.2-1.5c5.3,0.7,10.6,1,15.9,1c4.9-0.1,8.4-3,9.9-6.9
		c3.9-1.4,7.2-4.1,9.5-8.5C372.2,87.1,370.1,80.5,365.8,75.5z"/>
	<g>
		<g>
			<path class="st4" d="M363.5,93.8c5.9,3.7,8.1,10.8,6.7,17.4c-1.8,8.4-7.3,15.5-9.3,23.9c-0.9,3.9-1.2,8.2,0.1,12
				c1.3,3.9,4.2,6.5,6.1,10.1c3,5.6-2.7,11-5.6,15.4c-1.8,2.8-3.5,6-3.2,9.4c0.3,4.5,3.3,8.2,6.5,11.1c1.4,1.3,3.6-0.8,2.1-2.1
				c-2.8-2.5-5.8-5.9-5.7-9.9c0.1-2.9,1.8-5.5,3.4-7.8c3.2-4.6,8-10,5.7-16c-1.4-3.8-4.7-6.4-6.2-10.2c-1.5-3.8-1.2-8-0.2-11.8
				c2.2-8.4,7.8-15.6,9.3-24.3c1.3-7.7-1.4-15.6-8.2-19.8C363.3,90.2,361.8,92.8,363.5,93.8L363.5,93.8z"/>
		</g>
	</g>
	<g>
		<g>
			<path class="st5" d="M154.3,163.5c5.9,3.7,8.1,10.8,6.7,17.4c-1.8,8.4-7.3,15.5-9.3,23.9c-0.9,3.9-1.2,8.2,0.1,12
				c1.3,3.9,4.2,6.5,6.1,10.1c3,5.6-2.7,11-5.6,15.4c-1.8,2.8-3.5,6-3.2,9.4c0.3,4.5,3.3,8.2,6.5,11.1c1.4,1.3,3.6-0.8,2.1-2.1
				c-2.8-2.5-5.8-5.9-5.7-9.9c0.1-2.9,1.8-5.5,3.4-7.8c3.2-4.6,8-10,5.7-16c-1.4-3.8-4.7-6.4-6.2-10.2c-1.5-3.8-1.2-8-0.2-11.8
				c2.2-8.4,7.8-15.6,9.3-24.3c1.3-7.7-1.4-15.6-8.2-19.8C154.2,159.9,152.7,162.5,154.3,163.5L154.3,163.5z"/>
		</g>
	</g>
	<ellipse class="st3" cx="252.8" cy="168" rx="102.3" ry="122.4"/>
	<path class="st5" d="M276.6,148.2c0-3.2,8.8-5.9,19.6-5.9s19.6,2.6,19.6,5.9H276.6z"/>
	<path class="st5" d="M185.7,148.2c0-3.2,8.8-5.9,19.6-5.9c10.8,0,19.6,2.6,19.6,5.9H185.7z"/>
	<ellipse class="st6" cx="217.6" cy="173.7" rx="5.4" ry="5.7"/>
	<ellipse class="st6" cx="285.1" cy="173.7" rx="5.4" ry="5.7"/>
	<g>
		<path class="st5" d="M194.9,38.5c8.6-2,17.5-3.5,26.5-3.9c19.7-1,40,0.3,58.4,6.5s34.7,17.5,42,32.5l0.5,1.4
			c-13,13.8-32.7,22-51.9,29.7c-35.8,14.5-72.2,29.2-111.8,34.3c-2,0.3-4.1,0.5-5.9-0.1c-2.5-0.7-4.1-2.7-5.5-4.6
			c-12.6-17.5-16.6-39.9-3.7-57.9C158,56.5,175.2,43.9,194.9,38.5z"/>
	</g>
	<g>
		<ellipse class="st3" cx="150.6" cy="173.3" rx="27.8" ry="34.3"/>
		<ellipse class="st3" cx="355.1" cy="173.3" rx="27.8" ry="34.3"/>
	</g>
	<g>
		<path class="st5" d="M297.1,84.1c7.7,25.8,44.1,37.9,51.4,63.8c6.2-5.8,6.7-14.8,6.6-22.9c-0.2-10-0.8-20.2-4.7-29.5
			c-3.9-9.4-11.4-17.9-21.7-21.3s-23.4-0.3-28.9,8.4L297.1,84.1z"/>
	</g>
	<path class="st7" d="M350.5,181.4c0,0,8.3-8.9,18-7C368.6,174.4,354.6,167,350.5,181.4z"/>
	<path class="st7" d="M156.7,181.4c0,0-8.3-8.9-18-7C138.7,174.4,152.6,167,156.7,181.4z"/>
	<g>
		<g>
			<path class="st5" d="M351,163.5c5.9,3.7,8.1,10.8,6.7,17.4c-1.8,8.4-7.3,15.5-9.3,23.9c-0.9,3.9-1.2,8.2,0.1,12
				c1.3,3.9,4.2,6.5,6.1,10.1c3,5.6-2.7,11-5.6,15.4c-1.8,2.8-3.5,6-3.2,9.4c0.3,4.5,3.3,8.2,6.5,11.1c1.4,1.3,3.6-0.8,2.1-2.1
				c-2.8-2.5-5.8-5.9-5.7-9.9c0.1-2.9,1.8-5.5,3.4-7.8c3.2-4.6,8-10,5.7-16c-1.4-3.8-4.7-6.4-6.2-10.2c-1.5-3.8-1.2-8-0.2-11.8
				c2.2-8.4,7.8-15.6,9.3-24.3c1.3-7.7-1.4-15.6-8.2-19.8C350.8,159.9,349.3,162.5,351,163.5L351,163.5z"/>
		</g>
	</g>
	<g>
		<ellipse class="st4" cx="255.1" cy="252.2" rx="15.3" ry="18.4"/>
		<path class="st0" d="M245.5,253.8c0,0,8.4-3.3,19.3,0C264.8,253.8,254.7,247.7,245.5,253.8z"/>
	</g>
	<path class="st7" d="M252.8,217.6c-4.4,0-8-2.4-8.5-5.5c0,0.3-0.1,0.5-0.1,0.8c0,3.5,3.8,6.3,8.6,6.3c4.7,0,8.6-2.8,8.6-6.3
		c0-0.3,0-0.5-0.1-0.8C260.8,215.1,257.2,217.6,252.8,217.6z"/>
	<path class="st6" d="M210.3,166c0,0,1.5,6.1,5.5,6.5l2.3-1.4C218,171.1,213.9,171.9,210.3,166z"/>
	<path class="st6" d="M208.9,171c0,0,2.5,3.6,5.1,2.9l1.1-1.5C215.1,172.4,212.7,174,208.9,171z"/>
	<ellipse class="st6" cx="285.1" cy="173.5" rx="5.4" ry="5.7"/>
	<path class="st6" d="M292.4,165.8c0,0-1.5,6.1-5.5,6.5l-2.3-1.4C284.6,170.9,288.7,171.8,292.4,165.8z"/>
	<path class="st6" d="M293.7,170.8c0,0-2.5,3.6-5.1,2.9l-1.1-1.5C287.5,172.2,289.9,173.8,293.7,170.8z"/>
	<path class="st8" d="M301.8,38.4c0,0,14.7,3.8,14.9,15.1C316.7,53.5,320.6,39.5,301.8,38.4z"/>
	<path class="st8" d="M365.6,75.5c0,0-5.6-3-10.5-0.5c0,0,10.2,1,13.6,5.1C368.7,80.1,368.5,78.4,365.6,75.5z"/>
	<path class="st0" d="M176.8,570.3L176.8,570.3c-19.8,4-39.3-9-43.3-28.8l-30.1-149.7c-4-19.8,9-39.3,28.8-43.3l0,0
		c19.8-4,39.3,9,43.3,28.8L205.6,527C209.5,546.8,196.6,566.3,176.8,570.3z"/>
	<path class="st0" d="M323.2,566.4L323.2,566.4c19.8,4,39.3-9,43.3-28.8l30.1-149.7c4-19.8-9-39.3-28.8-43.3l0,0
		c-19.8-4-39.3,9-43.3,28.8l-30.1,149.7C290.5,542.9,303.4,562.4,323.2,566.4z"/>
	<polygon class="st9" points="254.7,678.6 244.6,683.2 245.2,683.6 	"/>
	<polygon class="st7" points="254.7,678.6 254.7,678.6 254.7,678.6 	"/>
	<path class="st7" d="M226.7,286.3c0,0,18.5,9,52.3,0l0,2c0,0-26.3,10.1-52.3,0V286.3z"/>
</g>
</svg>
