<?xml version="1.0" encoding="utf-8"?>
<!-- Generator: Adobe Illustrator 27.7.0, SVG Export Plug-In . SVG Version: 6.00 Build 0)  -->
<svg version="1.1" id="레이어_1" xmlns="http://www.w3.org/2000/svg" xmlns:xlink="http://www.w3.org/1999/xlink" x="0px"
	 y="0px" viewBox="0 0 500 700" style="enable-background:new 0 0 500 700;" xml:space="preserve">
<style type="text/css">
	.st0{fill:#EFB7AD;}
	.st1{fill:url(#SVGID_1_);}
	.st2{fill:#656EB3;}
	.st3{fill:#D8AAA4;}
	.st4{fill:#555F93;}
	.st5{fill:#5B5C5F;}
	.st6{fill:none;stroke:#5B5C5F;stroke-miterlimit:10;}
</style>
<g>
	<path d="M189.7,69.5c-15,14.2-29.9,28.4-44.9,42.6c-4.8,4.5-9.6,9.1-12.9,14.9c-10.7,19-1.3,44.7-12.5,63.5
		c-9.6,16.1-31.9,22.2-39.5,39.4c-10,22.8,11.9,49.4,4.3,73.1c-3.8,11.9-14.4,20.3-21.1,30.9c-8.5,13.4-10.6,29.7-11.5,45.5
		c-0.1,2.2-0.2,4.4,0.7,6.4c1.3,2.8,4.4,4.2,7.2,5.4c57.6,24.2,119.6,38.2,182.1,41c3.4,0.2,7.2,0.2,10-1.8
		c3.7-2.7,4.4-7.9,4.7-12.5c8-122.9,16-246.3,5.9-369c-30,10.7-59.7,22.2-89,34.7L189.7,69.5z"/>
</g>
<g>
	<path d="M310.3,50.1c15,14.2,29.9,28.4,44.9,42.6c4.8,4.5,9.6,9.1,12.9,14.9c10.7,19,1.3,44.7,12.5,63.5
		c9.6,16.1,31.9,22.2,39.5,39.4c10,22.8-11.9,49.4-4.3,73.1c3.8,11.9,14.4,20.3,21.1,30.9c8.5,13.4,10.6,29.7,11.5,45.5
		c0.1,2.2,0.2,4.4-0.7,6.4c-1.3,2.8-4.4,4.2-7.2,5.4c-57.6,24.2-119.6,38.2-182.1,41c-3.4,0.2-7.2,0.2-10-1.8
		c-3.7-2.7-4.4-7.9-4.7-12.5c-8-122.9-16-246.3-5.9-369c30,10.7,59.7,22.2,89,34.7L310.3,50.1z"/>
</g>
<path class="st0" d="M412.2,628.6l-9.6-132.3c-1.5-20.2-14.5-35.7-29-34.4l-5.2,0.4c-14.5,1.2-25.2,18.7-23.7,38.9l9.6,132.3
	L412.2,628.6z"/>
<linearGradient id="SVGID_1_" gradientUnits="userSpaceOnUse" x1="303.4242" y1="433.8853" x2="404.7818" y2="433.8853">
	<stop  offset="0" style="stop-color:#656EB3"/>
	<stop  offset="0.9955" style="stop-color:#555F93"/>
</linearGradient>
<path class="st1" d="M395.2,393c-0.7-10-4.3-18.9-9.5-25.1l0.2-0.2c0,0-29.1-30.5-68.9-30.1l-13.5,16.5l33.8,43.7c0,0,0,0.1,0,0.1
	l9.6,132.3l58-4.8L395.2,393z"/>
<path class="st2" d="M128.3,368.7c0,0,27.6-30.5,65.5-30.1l12.8,16.5l-36.7,50L128.3,368.7z"/>
<path class="st0" d="M103.3,629.6l9.1-132.3c1.4-20.2,13.8-35.7,27.6-34.4l5,0.4c13.8,1.2,23.9,18.7,22.5,38.9l-9.1,132.3
	L103.3,629.6z"/>
<path class="st2" d="M110.4,526.3l9.1-132.3c1.4-20.2,13.8-35.7,27.6-34.4l5,0.4c13.8,1.2,23.9,18.7,22.5,38.9l-9.1,132.3
	L110.4,526.3z"/>
<line class="st2" x1="395.9" y1="274.3" x2="403" y2="273.1"/>
<path class="st2" d="M308,512.9h-50.4c-37,0-67.2-30.2-67.2-67.2v0c0-37,30.2-67.2,67.2-67.2H308c37,0,67.2,30.2,67.2,67.2v0
	C375.2,482.7,345,512.9,308,512.9z"/>
<path class="st2" d="M375.2,446.6L375.2,446.6c0,37-30.2,67.2-67.2,67.2h-50.4c-37,0-67.2-30.2-67.2-67.2v0"/>
<path class="st2" d="M236.6,617.9L236.6,617.9c-37,0-67.2-30.2-67.2-67.2v0c0-37,30.2-67.2,67.2-67.2h0c37,0,67.2,30.2,67.2,67.2v0
	C303.8,587.7,273.5,617.9,236.6,617.9z"/>
<path class="st2" d="M155,394.4c15.3-15.6,83.6-53.8,83.6-53.8l32.2,333.7l0,0l-7.4,4.8l-8.1-4.3l0,0l0,0l-64.1-34.5
	C156,591.9,155,394.4,155,394.4z"/>
<path class="st2" d="M349.4,394.4c-12.2-15.6-66.3-53.8-66.3-53.8l-25.5,333.7l0,0l5.9,4.8l6.4-4.3l0,0l0,0l50.9-34.5
	C348.5,591.9,349.4,394.4,349.4,394.4z"/>
<ellipse class="st0" cx="157.3" cy="165.2" rx="27.8" ry="34.3"/>
<ellipse class="st0" cx="352.1" cy="166.4" rx="27.8" ry="34.3"/>
<path class="st3" d="M353.5,174.1c0,0,8.3-8.9,18-7C371.5,167.1,357.6,159.6,353.5,174.1z"/>
<path class="st3" d="M160.6,170.9c0,0-8.3-8.9-18-7C142.5,163.9,156.5,156.5,160.6,170.9z"/>
<path class="st0" d="M259.6,369.6L259.6,369.6c-15.7,0-28.6-12.9-28.6-28.6v-72.3c0-15.7,12.9-28.6,28.6-28.6h0
	c15.7,0,28.6,12.9,28.6,28.6V341C288.1,356.7,275.3,369.6,259.6,369.6z"/>
<path class="st0" d="M340.7,341H240.6l1.7-3.6l-11.3-8.4c-3.2,2.9-41.3,10-50.6,11.7c-1.3,0.2-2,0.4-2,0.4
	c0,52.1,36.4,94.3,81.2,94.3c2.2,0,4.3-0.1,6.4-0.3c-0.6-5.9-3.8-10.7-3.8-10.7c5.5,3.1,6.8,7,6.5,10.4
	C309.2,429.4,340.7,389.5,340.7,341z"/>
<path class="st3" d="M262.2,424.3c0,0,3.1,4.8,3.8,10.7c0.9-0.1,1.8-0.2,2.7-0.3C269,431.3,267.7,427.4,262.2,424.3z"/>
<path class="st0" d="M340.7,341c0,0-0.7-0.1-2-0.4c-9.3-1.7-47.4-8.8-50.6-11.7l-11.3,8.4l11.3,24.5h30.6"/>
<path class="st4" d="M346.2,500.6c0,0-27.1,17.3-113.2,11.2c0,0,57.3,16.7,112.4-0.7L346.2,500.6z"/>
<ellipse class="st0" cx="259.6" cy="165.2" rx="102.3" ry="122.4"/>
<g>
	<path d="M324.6,52.3c-3.8-11.4-13.5-20.4-24.9-25.5s-24.3-6.4-36.8-5.7c-28.7,1.6-56.6,14.1-75.9,34.3s-29.7,47.9-27.8,75.1
		c16.4,1.8,33-3.6,46.9-12.1s25.5-19.9,36.8-31.2c6.2-6.2,12.7-12.6,21-15.8c13.8-5.4,29.5-1.1,44.4-0.6c2.1,0.1,4.2,0,6-0.8
		c6.6-3.1,3.6-12.8,6.9-19.1L324.6,52.3z"/>
</g>
<g>
	<path d="M314,71.1c-4.3,13.9-1.4,29.5,7.4,41.3c8.5,11.3,22.4,19.7,25.5,33.2c4.7-3.1,9.3-6.1,14-9.2c2.9-1.9,5.8-3.9,7.4-6.8
		c1.4-2.5,1.6-5.4,1.6-8.2c0.5-28.8-15.3-57.4-40.6-73.7c-2.2-1.4-4.6-2.8-7.3-2.7c-4.2,0.2-7.3,3.9-8.7,7.7
		c-2.2,5.5-2.4,11.6-0.7,17.2L314,71.1z"/>
</g>
<path d="M202.9,138.7c0.3-2,9.3-3,20.1-2.3c10.7,0.7,19.2,2.9,18.8,4.9L202.9,138.7z"/>
<path d="M322.9,138.7c-0.3-2-9.3-3-20.1-2.3c-10.7,0.7-19.2,2.9-18.8,4.9L322.9,138.7z"/>
<g>
	<ellipse class="st5" cx="234" cy="169.7" rx="5.4" ry="5.7"/>
	<path class="st5" d="M226.7,162c0,0,1.5,6.1,5.5,6.5l2.3-1.4C234.5,167.1,230.4,168,226.7,162z"/>
</g>
<g>
	<ellipse class="st5" cx="289.3" cy="171.6" rx="5.4" ry="5.7"/>
	<path class="st5" d="M296.7,163.9c0,0-1.5,6.1-5.5,6.5l-2.3-1.4C288.9,169.1,293,169.9,296.7,163.9z"/>
</g>
<path class="st3" d="M266.6,211.3c-2.5,2.7-7.1,2.5-10.6-0.2c0.2,0.3,0.5,0.6,0.8,0.8c3.6,3.4,8.7,3.8,11.4,0.9s2.1-8-1.5-11.4
	c-0.3-0.3-0.6-0.5-0.9-0.7C268.7,204.1,269.1,208.7,266.6,211.3z"/>
<path class="st6" d="M285.9,238c0,6.6-10.3,12-23,12s-23-5.4-23-12"/>
</svg>
