<svg width="80" height="80" viewBox="0 0 80 80" fill="none" xmlns="http://www.w3.org/2000/svg">
<path d="M80 40C80 62.0914 62.0914 80 40 80C17.9086 80 0 62.0914 0 40C0 17.9086 17.9086 0 40 0C62.0914 0 80 17.9086 80 40Z" fill="#6F6F6F"/>
<path d="M57.4396 25.8786H51.3473L48.3516 21.7237C48.1912 21.5012 47.9738 21.3187 47.7189 21.1925C47.4639 21.0663 47.1793 21.0002 46.8901 21H32.8242C32.535 21.0002 32.2503 21.0663 31.9954 21.1925C31.7405 21.3187 31.5231 21.5012 31.3626 21.7237L28.3648 25.8786H22.2747C20.8758 25.8786 19.5341 26.3926 18.5449 27.3075C17.5557 28.2224 17 29.4633 17 30.7572V53.524C17 54.8179 17.5557 56.0588 18.5449 56.9737C19.5341 57.8886 20.8758 58.4026 22.2747 58.4026H57.4396C58.8385 58.4026 60.1802 57.8886 61.1694 56.9737C62.1586 56.0588 62.7143 54.8179 62.7143 53.524V30.7572C62.7143 29.4633 62.1586 28.2224 61.1694 27.3075C60.1802 26.3926 58.8385 25.8786 57.4396 25.8786ZM59.1978 53.524C59.1978 53.9553 59.0126 54.3689 58.6828 54.6739C58.3531 54.9789 57.9059 55.1502 57.4396 55.1502H22.2747C21.8084 55.1502 21.3612 54.9789 21.0315 54.6739C20.7017 54.3689 20.5165 53.9553 20.5165 53.524V30.7572C20.5165 30.3259 20.7017 29.9123 21.0315 29.6073C21.3612 29.3023 21.8084 29.131 22.2747 29.131H29.3077C29.5972 29.1312 29.8823 29.0652 30.1377 28.939C30.393 28.8127 30.6107 28.6301 30.7714 28.4073L33.7648 24.2524H45.9473L48.9429 28.4073C49.1036 28.6301 49.3212 28.8127 49.5766 28.939C49.8319 29.0652 50.1171 29.1312 50.4066 29.131H57.4396C57.9059 29.131 58.3531 29.3023 58.6828 29.6073C59.0126 29.9123 59.1978 30.3259 59.1978 30.7572V53.524ZM39.8571 32.3834C37.9445 32.3834 36.0749 32.908 34.4846 33.8908C32.8943 34.8735 31.6548 36.2704 30.9229 37.9047C30.191 39.5391 29.9995 41.3374 30.3726 43.0724C30.7458 44.8074 31.6668 46.4011 33.0192 47.6519C34.3716 48.9028 36.0947 49.7546 37.9706 50.0997C39.8464 50.4448 41.7908 50.2677 43.5578 49.5908C45.3248 48.9138 46.8351 47.7674 47.8977 46.2966C48.9603 44.8257 49.5275 43.0965 49.5275 41.3275C49.5246 38.9562 48.5048 36.6828 46.6919 35.006C44.879 33.3293 42.421 32.3861 39.8571 32.3834ZM39.8571 47.0192C38.64 47.0192 37.4502 46.6854 36.4382 46.06C35.4263 45.4346 34.6375 44.5456 34.1717 43.5056C33.706 42.4656 33.5841 41.3212 33.8215 40.2171C34.059 39.113 34.6451 38.0989 35.5057 37.3029C36.3663 36.5069 37.4629 35.9648 38.6566 35.7452C39.8503 35.5255 41.0876 35.6383 42.2121 36.0691C43.3366 36.4998 44.2977 37.2294 44.9739 38.1654C45.6501 39.1014 46.011 40.2018 46.011 41.3275C46.011 42.837 45.3626 44.2847 44.2086 45.3521C43.0545 46.4195 41.4892 47.0192 39.8571 47.0192Z" fill="white"/>
</svg>
