<svg width="189" height="5" viewBox="0 0 189 5" fill="none" xmlns="http://www.w3.org/2000/svg">
<g clip-path="url(#clip0_138_1793)">
<path d="M99.6719 3.28677C99.8344 3.23269 99.9969 3.14254 100.167 3.13052C100.523 3.09447 101.196 2.74591 100.84 3.50913C100.74 3.72547 100.964 3.72547 101.165 3.71346C101.351 3.58124 101.536 3.44903 101.722 3.31682L101.738 2.56562C101.699 2.45745 101.475 2.35528 101.823 2.27115C102.697 2.0548 103.409 1.75432 103.517 0.888937C103.563 0.504322 103.765 1.04519 103.958 0.979081C103.919 0.834851 104.082 0.624514 103.749 0.576437C103.54 0.540379 103.378 0.624514 103.285 0.756726C103.161 0.918985 103.006 1.09326 102.999 1.26754C102.968 1.6161 102.79 1.78437 102.318 1.77235C102.256 1.60408 102.658 1.44783 102.357 1.26754C101.954 1.03317 101.653 1.37572 101.273 1.41778C101.312 1.3036 101.359 1.23749 101.351 1.17139C101.32 0.654562 100.732 0.22187 100.043 0.227879C98.7745 0.227879 97.5056 0.251918 96.2368 0.245908C95.9196 0.245908 95.556 0.558408 95.2697 0.161773C95.2233 0.0896575 94.9138 0.101677 94.8752 0.318023C94.8442 0.486292 94.9371 0.792782 94.5502 0.690619C94.1557 0.588456 94.7591 0.336052 94.527 0.149754C93.9003 0.0956674 93.204 0.179802 92.9023 0.546388C92.6315 0.870907 92.2988 0.9911 91.9352 1.06922C91.7341 1.11129 91.6103 1.14134 91.5484 1.26754C91.3627 1.65216 91.3704 1.65216 90.9604 1.42379C90.589 1.21946 90.4885 1.23749 90.2022 1.59807C90.0629 1.77235 89.9624 1.57403 89.8386 1.58004C89.6142 1.59206 89.5523 1.2435 89.5059 1.32764C89.2119 1.87451 88.1907 1.39975 87.9276 2.0548C87.8502 2.2411 87.8116 2.64975 87.3164 2.6798C87.1462 2.58365 87.417 2.27716 87.0998 2.27716C86.8677 2.27716 86.6278 2.43341 86.3957 2.51754C86.3106 2.30119 86.1946 2.08485 86.1404 1.86249C86.0708 1.56802 85.684 1.94663 85.5989 1.67019C85.8464 1.59807 86.0863 1.52595 86.3261 1.45384C86.5814 1.34567 86.829 1.2435 87.0843 1.13533C87.0843 1.11129 87.0766 1.08725 87.0766 1.06321C87.0766 0.780763 86.3493 0.82884 86.6046 0.51033C86.7052 0.390138 87.1617 0.444224 87.4557 0.420186L87.4247 0.444224C87.417 0.372109 87.4247 0.245907 87.3938 0.239897C86.4963 0.0596088 85.5911 0.113695 84.6937 0.209849C84.5234 0.227878 84.4461 0.408167 84.4925 0.570426C85.212 0.780762 85.1192 1.15937 84.8484 1.58605C84.5931 1.98269 84.3532 1.76033 84.0979 1.60408C83.4558 1.73629 84.2295 2.20504 83.8039 2.38533C83.5332 2.28317 83.4016 2.10288 83.2005 1.90456C83.2701 2.35528 82.3726 2.59567 82.8601 3.14254C83.2701 3.59927 84.0051 3.44302 84.7091 3.73749C83.5486 3.73749 84.1134 4.33244 83.9664 4.65095C83.92 4.75312 84.214 4.78917 84.33 4.72908C85.0341 4.34446 85.9238 4.08605 86.0863 3.26874C86.1636 3.54518 86.1172 3.79158 86.1868 4.01393C86.2178 4.11009 86.4886 4.16418 86.6588 4.23629C86.6201 3.98389 87.1152 4.21826 87.0766 3.95384C87.0379 3.64735 86.829 3.89975 86.7052 3.88172C86.535 3.85768 86.3725 3.74951 86.4112 3.66538C86.4654 3.54518 86.651 3.45504 86.7748 3.34687C87.0147 3.69543 87.8889 3.44302 87.8734 3.88773C87.8425 4.63293 88.446 4.21826 88.8405 4.34446C88.6858 4.11009 88.2061 4.1822 88.3067 3.95985C88.3763 3.8036 88.7245 3.72547 89.0185 3.7435C89.2893 3.75552 89.5136 3.75552 89.4904 4.03797C89.444 4.78317 90.2564 4.76514 90.7979 4.77716C91.1306 4.78317 91.6954 5.08365 91.8656 4.69903C92.0977 4.17619 92.4845 3.9298 93.1421 3.8036C93.2814 3.77355 93.382 3.63533 93.498 3.79158C93.645 3.99591 93.4361 4.00793 93.2427 4.04398C92.8559 4.1161 92.4536 4.19422 92.4226 4.56682C92.9951 4.81922 93.7224 3.70745 94.2098 4.71706C94.2175 4.73509 94.3413 4.74711 94.38 4.72908C94.821 4.46466 95.5483 4.53677 95.7958 4.03797C96.0047 3.60528 96.7165 3.28076 96.9718 3.25672C97.8229 3.16658 98.728 3.3649 99.6178 3.21466C99.641 3.21466 99.6797 3.28677 99.7106 3.32283L99.6797 3.3048L99.6719 3.28677ZM100.206 2.15697C100.484 2.12692 100.43 2.34927 100.523 2.45144C100.608 2.54759 100.43 2.67379 100.368 2.64975C99.7338 2.43341 99.1149 3.03437 98.4882 2.66778C98.8054 1.91057 99.5946 2.22307 100.206 2.15697Z" fill="#FF0000"/>
<path d="M52.8958 3.56354C52.6095 3.5395 52.2846 3.71979 52.1144 3.29911C51.9519 2.90248 51.5651 3.5395 51.1783 3.25104C51.6192 3.17892 51.8049 2.57195 52.4161 3.06474C52.5244 3.15488 52.6714 2.9806 52.6947 2.83036C52.7179 2.71017 52.8881 2.60801 52.9964 2.49983C53.2053 2.92051 53.7855 2.37964 54.0176 2.74022C54.2575 2.67411 54.8145 2.75224 54.5901 2.44575C54.4586 2.26546 54.8532 1.70056 54.1956 1.88084C53.3291 2.12123 53.6463 1.69455 53.7391 1.44815C53.8165 1.25584 53.9248 1.03349 53.7546 0.913296C53.5457 0.757047 53.3213 0.991422 53.1124 1.05753C52.9267 1.11762 52.6869 1.14767 52.5863 1.35801C52.7875 1.43613 52.9964 1.52027 53.2053 1.59839C53.6076 1.75464 53.2904 2.1032 53.2517 2.12123C52.9809 2.24743 52.9113 2.18733 52.8958 1.90488C52.8958 1.77267 52.1221 1.99503 52.0834 1.4782C52.0757 1.30392 52.0448 0.985412 51.5109 0.967383C50.9771 0.949354 51.1241 1.32796 50.8688 1.43613C50.8146 1.83277 50.1647 1.77267 50.0951 1.75464C49.6 1.61642 49.4143 1.95296 49.1203 2.09118C48.687 1.76666 49.422 1.55632 49.2209 1.25584C49.1899 1.20777 49.3214 1.14166 49.3833 1.21979C49.8398 1.80873 50.1183 1.21979 50.4665 1.12363C50.8456 0.588777 49.9791 1.00945 50.0023 0.726998C50.0023 0.528681 50.6057 0.636854 50.4201 0.312335C50.3582 0.210171 50.2266 0.114018 50.0487 0.150076C49.3214 0.294306 48.6019 0.0839695 47.8747 0.126037C47.3718 0.156085 46.5362 0.00584388 46.4279 0.168103C45.956 0.865219 45.6001 0.354401 45.1436 0.186132C45.0508 0.408488 45.1668 0.979402 44.5556 0.546709C43.7665 -0.000165936 43.7046 0.306324 43.7123 0.889257C43.7123 1.06354 43.6427 1.35801 43.2404 1.25584C43.0702 1.20777 43.5963 0.955363 43.163 0.919305C42.9 0.895267 42.6215 0.99142 42.3584 0.979401C42.0567 0.961372 42.281 0.805122 42.3197 0.733007C42.3507 0.666901 42.2578 0.402478 42.4667 0.552719C42.7298 0.745026 42.8303 0.474594 43.0005 0.522671C43.047 0.180123 43.4261 0.925315 43.4183 0.450555C43.4183 0.258247 43.2327 0.114017 43.0005 0.138055C41.7472 0.264257 40.5016 0.0539205 39.256 0.138055C39.0239 0.150074 38.6989 0.198151 38.9697 0.474593C39.1167 0.624834 39.1322 0.763055 38.9001 0.769064C38.7376 0.769064 38.3508 0.781084 38.4591 0.474593C38.5055 0.348391 38.7299 0.21017 38.4127 0.156084C38.2193 0.126035 38.0955 0.276276 38.0491 0.426516C37.9175 0.859209 37.7473 1.26185 37.0201 1.22579C37.1052 1.48421 37.4301 1.38204 37.6235 1.47219C37.9175 1.61642 37.8556 1.83878 37.8556 2.05512C37.8556 2.34358 37.6235 2.16329 37.4843 2.17531C37.4843 2.21738 37.4843 2.26546 37.4843 2.30753C37.2058 2.49983 37.7628 2.65608 37.5152 2.87844C37.3992 2.9806 37.523 3.19094 37.7164 3.227C37.964 3.27507 38.1419 3.07676 38.1651 2.95055C38.2347 2.58998 38.4282 2.24743 38.2734 1.80272C38.7995 2.11522 39.2096 2.77027 39.6506 1.89286C39.6506 1.88685 40.107 1.67652 40.1457 2.02507C40.2153 2.602 41.0432 2.97459 41.8014 2.78229C41.9329 2.74623 42.1263 2.7282 42.2269 2.78229C42.3584 2.84238 42.3739 3.02267 42.2501 3.09479C41.724 3.4193 41.8865 3.98421 41.4687 4.34479C41.3604 4.44094 41.3062 4.68132 41.5074 4.66329C41.8168 4.63325 41.7704 4.9818 42.0799 4.89166C42.4745 4.77748 41.9561 4.61522 42.134 4.50704C42.3352 4.38685 42.018 4.03829 42.4203 4.0443C42.8381 4.0443 42.6679 4.28469 42.606 4.45897C42.5364 4.64527 42.6988 4.72339 42.8845 4.7294C43.0315 4.7294 43.1553 4.63926 43.1475 4.50704C43.1243 4.14046 43.5344 3.65368 43.9135 3.61762C43.9831 3.61161 44.0914 3.65368 44.1301 3.69575C44.3313 3.94815 44.3158 3.93613 44.5324 3.81594C44.7413 3.69575 44.8883 3.32916 45.221 3.61161C45.3138 3.68974 45.1127 3.96618 45.0817 4.15248C45.0585 4.31474 44.8187 4.28469 44.7723 4.38084C44.6717 4.6032 44.633 4.73541 45.0663 4.84959C45.5459 4.96979 45.6775 4.75344 45.9173 4.58517C46.0179 4.51305 46.3041 4.20055 46.2577 4.50104C46.1726 5.00584 46.5672 4.67531 46.7064 4.75945C47.2171 5.05993 47.8669 4.20056 48.3234 4.88565C48.3311 4.89767 48.5555 4.86161 48.5632 4.83156C48.6948 4.22459 48.9501 4.70536 49.1435 4.7895C49.7083 5.0419 50.3736 4.89166 50.4587 4.48902C51.2866 5.21017 52.2459 5.07796 52.7101 4.18253C52.8339 3.94815 53.0583 4.05632 53.2517 4.04431C53.1279 3.88806 53.0041 3.73181 52.8803 3.58157L52.8958 3.56354ZM49.7005 2.48181C50.1957 2.46979 50.598 2.49382 51.0158 2.29551C50.9384 2.68012 50.9384 3.02267 51.0467 3.34118C50.2189 3.40729 50.3195 2.71017 49.7005 2.48181ZM46.7761 0.835171C46.7761 0.835171 46.9463 1.07556 47.0469 1.07556C47.4569 1.09358 47.6039 1.33397 47.805 1.5383C47.4414 1.71257 47.1397 1.4782 46.8457 1.40007C46.4743 1.29791 46.1649 1.04551 45.809 0.84719C46.1726 0.492623 46.4666 0.967382 46.7761 0.829161L46.7761 0.835171Z" fill="#FF0000"/>
<path d="M132.831 3.8518C132.746 3.77368 132.537 3.7256 132.684 3.57536C132.816 3.44315 132.94 3.43714 133.149 3.52127C133.435 3.63546 133.768 3.73762 133.659 4.02007C133.543 4.32055 133.512 4.74724 132.862 4.68714C132.948 4.74724 133.033 4.82536 133.133 4.86142C133.853 5.13786 134.564 4.39267 135.33 4.8494C135.493 4.94555 135.57 4.66911 135.508 4.54892C135.431 4.39267 135.4 4.2845 135.593 4.20637C136.151 4.21839 135.764 4.99363 136.328 4.82536C136.824 4.67512 137.249 5.09579 137.667 4.80132C137.628 4.70517 137.628 4.58498 137.543 4.53089C137.11 4.24844 136.398 4.0381 137.149 3.49123C136.793 3.40709 137.365 3.05253 136.932 3.01046C136.576 2.9744 136.653 3.19075 136.677 3.35301C136.692 3.43113 136.855 3.5393 136.622 3.54531C136.537 3.54531 136.359 3.42512 136.367 3.38906C136.437 3.1607 136.553 2.93834 136.243 2.75204C136.398 2.63185 136.143 2.29531 136.684 2.35541C137.118 2.39748 137.373 2.67993 137.783 2.70397L137.744 2.722C137.466 2.14507 136.893 1.98281 135.949 2.05493C136.576 1.80853 136.599 1.18954 137.357 1.26166C137.528 0.937141 137.125 0.774881 137.017 0.534497C136.592 0.48642 135.88 0.732814 135.802 0.390266C135.725 0.0356987 135.547 0.131852 135.33 0.113824C134.936 0.0897853 134.588 0.408294 134.154 0.203968C134.116 0.185939 133.845 0.384256 134.038 0.522477C134.139 0.594593 134.464 0.492429 134.356 0.732814C134.34 0.762862 134.046 0.804929 133.938 0.919112C133.953 0.678727 133.52 0.834977 133.458 0.546516C133.35 0.0657464 133.265 0.071756 132.94 0.258054C132.878 0.294112 132.924 0.498438 132.777 0.366227C132.089 -0.222715 131.454 0.143871 130.82 0.414304C130.634 0.492429 130.433 0.594592 130.611 0.804929C130.804 1.03329 131.006 0.907092 131.238 0.834977C131.478 0.762862 131.408 0.612621 131.478 0.492429C131.555 0.366227 131.679 0.203968 131.872 0.294112C131.965 0.336179 131.98 0.528487 131.98 0.654688C131.98 1.30974 131.331 1.05132 130.897 1.12945C130.325 1.2256 130.348 0.907092 130.247 0.648679C130.193 0.504448 130.216 0.294112 129.946 0.282092C129.745 0.270073 129.628 0.414304 129.59 0.558534C129.451 1.01527 128.893 1.06935 128.483 1.12344C128.097 1.17152 127.068 1.60421 127.524 0.582573C127.632 0.330169 127.478 0.143871 126.959 0.173919C126.449 0.203967 125.915 0.240025 125.404 0.209977C124.445 0.14988 123.501 0.0657455 122.557 0.252043C122.333 0.474399 122.712 0.798918 122.348 0.997236C122.348 1.23762 122.658 1.43594 122.526 1.69435C122.642 1.69435 122.766 1.69435 122.882 1.70036C123.114 1.42993 123.137 1.40589 123.478 1.55012C123.687 1.64026 123.625 1.49603 123.694 1.46599C124.058 1.31575 124.004 1.00325 124.151 0.750841C124.29 1.45998 124.46 2.14507 124.236 2.8482C124.429 2.69195 124.979 2.81815 124.801 2.34339C124.677 2.01887 125.203 2.15108 125.404 2.04291C125.644 1.91671 125.83 2.09099 125.853 2.31935C125.613 2.31334 125.381 2.30132 125.157 2.29531C125.381 2.55373 125.249 2.90228 125.543 3.14267L125.714 3.14267C125.83 3.0405 126.039 2.94435 126.039 2.85421C126.031 2.4095 126.425 2.26526 126.851 2.21118C127.222 2.1631 126.603 2.62584 127.122 2.61983C127.191 2.61983 127.16 2.87825 126.959 2.83618C126.472 2.722 126.217 2.73401 126.441 3.20877C126.464 3.26286 126.333 3.36502 126.271 3.44315L126.248 3.41911C126.596 3.40709 127.153 3.88786 127.199 3.16671C127.199 3.07055 127.323 3.07656 127.354 3.14267C127.424 3.28089 127.71 3.2869 127.609 3.56334C127.532 3.7857 126.866 3.95397 127.393 4.2845C127.725 4.14627 127.911 4.20637 127.903 4.51887C127.903 4.63906 127.424 4.71719 127.803 4.8494C128.097 4.95156 128.042 4.66911 128.151 4.55493C128.329 4.37464 128.638 4.19435 128.932 4.33257C129.427 4.56695 129.427 4.31454 129.435 4.06815C129.435 3.89988 129.365 3.70757 129.706 3.7256C129.992 3.73762 130.124 3.86983 130.155 4.09219C130.232 4.59099 131.122 5.02969 131.686 4.8494C131.849 4.79531 132.127 4.68714 131.895 4.52488C131.795 4.45877 131.447 4.53089 131.617 4.31454C131.733 4.17031 131.996 4.15829 132.213 4.35661C132.383 4.50685 132.661 4.58498 132.893 4.69315C133.265 4.39267 133.133 4.11623 132.847 3.83978L132.831 3.8518ZM133.404 1.71839C133.721 1.92272 133.946 1.96478 134.224 1.6643C134.433 1.42993 134.797 1.36382 135.152 1.49603C135.392 1.58618 135.686 1.62224 135.717 1.90469C135.748 2.18714 135.392 2.24123 135.245 2.24724C134.982 2.25926 135.029 2.64387 134.688 2.48161C134.673 2.4756 134.495 2.61382 134.503 2.67392C134.51 2.74603 134.619 2.81214 134.773 2.80012C135.733 2.70397 135.47 3.31695 135.648 3.70757C135.044 2.76406 133.876 3.26887 133.002 3.08858C132.561 2.99844 132.282 2.8482 132.019 2.63786C131.725 2.40349 132.019 2.20517 132.22 2.06094C132.615 1.79051 132.599 1.58017 132.166 1.34579C131.934 1.21959 132.011 0.973198 132.151 1.02128C132.615 1.17753 132.754 0.895073 132.978 0.648679C132.801 1.14147 132.986 1.45397 133.404 1.71839ZM126.224 0.816947L126.333 0.961178C125.899 1.02127 126.642 1.79051 125.845 1.50805C125.652 1.43594 125.203 1.27969 125.017 1.03329C125.389 0.678727 125.853 0.949159 126.224 0.822957L126.224 0.816947Z" fill="#FF0000"/>
<path d="M108.337 3.35908C107.695 3.51533 107.022 3.15475 106.387 3.4312C106.248 3.47927 106.117 3.52735 105.977 3.57543C105.977 3.48528 105.985 3.39514 105.993 3.311L105.993 3.13672C106.008 2.98047 105.977 2.86629 105.722 2.86629C105.459 2.86629 105.436 2.98648 105.459 3.14273L105.428 3.16677L105.242 3.14874C105.134 2.99249 105.119 2.80019 104.894 2.69802C104.832 1.82663 103.981 2.48168 103.571 2.28336C103.664 2.08504 103.896 1.97086 103.989 1.75451C104.237 1.20163 104.221 2.04898 104.415 1.82663C104.538 1.67639 104.616 1.50211 104.693 1.32783C104.716 1.27374 104.631 1.15956 104.554 1.23168C104.275 1.4961 104.152 1.23168 103.966 1.15355C104.082 1.12951 104.283 1.11749 104.299 1.06942C104.531 0.294176 105.482 0.648743 105.707 0.774945C106.333 1.13552 106.124 0.642734 106.264 0.528551C106.504 0.630714 106.326 1.0574 106.527 0.955234C106.852 0.780955 107.053 0.86509 107.331 0.919176C107.393 0.931195 107.563 0.817013 107.633 0.907157C108.314 1.82062 108.716 0.883119 109.188 0.732878C109.413 0.660763 109.676 0.738888 109.722 0.684801C110.031 0.318215 110.325 0.252109 110.782 0.54658C111.068 0.726869 110.898 -0.0904389 111.401 0.336244C112.453 -0.210631 112.538 0.420379 112.662 1.02134C112.755 0.943215 112.848 0.901148 112.855 0.847061C112.933 0.438408 112.67 -0.246688 113.784 0.294177C113.892 0.348263 114.72 0.372302 115.176 0.173985C115.3 0.119898 115.478 0.149946 115.625 0.131917C116.136 0.0658116 116.592 0.155956 116.886 0.492495C117.111 0.750908 116.909 1.02134 116.701 1.20764C116.352 1.52615 115.935 1.71846 115.323 1.57423C114.147 1.29177 113.915 1.41797 113.884 2.23528C114.341 2.16918 114.039 1.50812 114.573 1.6223C114.913 1.69442 114.635 2.13913 114.813 2.38552C114.851 2.43961 114.751 2.57783 114.89 2.6199C115.819 2.92639 115.633 3.56942 115.664 4.14634C115.594 4.30259 115.532 4.45283 115.463 4.60908C114.163 4.70523 112.886 4.27254 111.563 4.4949C111.633 4.71124 112.051 4.48889 112.02 4.6872C111.997 4.8735 111.788 4.86148 111.525 4.81341C111.084 4.73528 110.612 4.88552 110.132 4.8074C109.776 4.7473 109.498 4.65115 109.25 4.38071C109.157 4.27855 108.863 4.27855 108.724 4.23047C108.298 4.06821 107.579 3.89394 108.322 3.36509C108.647 2.89033 108.972 3.32903 109.304 3.38312C109.343 3.14874 109.397 2.92639 109.273 2.69201C108.948 3.25091 108.229 2.52374 107.896 3.01052C108.028 3.1187 108.182 3.2449 108.337 3.3711L108.337 3.35908Z" fill="#FF0000"/>
<path d="M140.707 0.835086C140.854 1.51417 140.266 1.44206 139.725 1.41802C139.632 1.41802 139.539 1.41802 139.446 1.41802C139.261 1.41802 139.044 1.41802 139.075 1.62835C139.098 1.80864 139.09 2.05504 139.477 1.82667C139.524 1.80263 139.856 1.95287 139.887 2.05504C139.957 2.31345 139.493 2.24734 139.377 2.46369C139.323 2.56585 139.191 2.31946 139.145 2.29542C138.735 2.11513 138.866 1.4721 138.147 1.58028C137.768 1.91081 137.907 2.34951 137.76 2.72811L137.798 2.71009C137.187 2.99254 137.419 3.45528 137.419 3.85191C137.419 4.05023 137.744 4.02619 137.891 4.13436C138.224 3.76177 139.268 4.36874 139.261 3.5334C139.261 3.24494 139.477 3.40119 139.609 3.44326C140.259 3.62355 139.849 4.21249 140.266 4.49494C140.444 4.60912 139.972 4.77138 140.236 4.86754C140.39 4.92763 140.584 4.87956 140.769 4.72331C141.009 4.531 141.396 4.11634 141.729 4.36874C142.139 4.67523 142.324 4.36874 142.502 4.29061C143.005 4.08028 142.99 4.04422 143.431 4.45287C143.57 4.58509 143.733 4.62114 143.918 4.57307C143.972 4.56105 143.996 4.46489 144.034 4.41081C143.322 4.1584 143.941 3.87595 144.011 3.61754C144.112 3.25696 144.522 3.7798 144.723 3.47932C144.8 3.37114 145.04 3.5334 144.97 3.64158C144.854 3.80985 145.071 4.17042 144.738 4.13436C144.088 4.05624 144.251 4.36273 144.251 4.60912C144.251 5.0298 144.661 4.8435 144.924 4.87355C145.017 4.88557 145.04 4.84951 144.994 4.77739L144.506 4.68725C144.769 4.58509 144.994 4.42283 145.202 4.42884C145.489 4.44085 145.458 4.84951 145.821 4.87355C145.976 4.47691 146.286 4.13436 146.239 3.70167C146.208 3.41321 146.386 3.19086 146.835 3.43124C146.912 2.56586 147.346 2.29542 148.39 2.45768C148.444 2.46369 148.491 2.51778 148.545 2.52379C148.785 2.55985 149.226 2.38557 149.21 2.49374C149.179 2.78821 149.009 3.11273 148.498 3.1548C148.537 3.28701 148.645 3.50936 148.591 3.5334C148.251 3.70167 148.467 3.89999 148.599 3.97811C148.862 4.12835 148.978 3.79783 149.024 3.79783C149.458 3.76177 149.914 3.62956 150.34 3.85191C150.456 3.91201 150.084 4.39278 150.703 4.05624C151.299 3.73172 150.394 3.74975 150.595 3.56345C151.26 3.76177 151.438 4.05624 151.353 4.87956C151.562 4.72932 151.833 4.62715 151.902 4.4709C152.127 3.93605 152.421 3.89398 152.87 4.31465C153.094 4.51898 153.125 4.23052 153.233 4.2185C153.728 4.1584 153.342 3.72571 153.496 3.67162C154.231 3.5334 153.597 4.20648 153.976 3.97211C154.479 3.65961 155.144 3.76778 155.57 3.43124C155.779 3.23893 156.134 3.04663 155.546 2.87235C154.711 3.20287 153.937 2.78821 153.133 2.74614L153.164 2.72812C153.117 2.95648 152.792 2.81826 152.637 2.97451C152.893 3.20888 153.574 2.85432 153.558 3.42523C153.218 3.47331 152.777 3.23893 152.374 3.56345C152.181 3.7197 152.305 3.30504 152.104 3.24494C152.576 2.82427 152.196 2.07908 153.109 1.80263C153.566 1.6584 152.893 1.58629 152.955 1.43004L152.978 1.45408C152.56 1.29182 152.227 1.80263 151.81 1.5322C152.258 1.406 152.057 1.41802 152.034 1.23172C151.98 0.678837 151.198 0.823068 151.059 0.558644C150.734 -0.0363073 150.386 0.31225 149.999 0.420423C150.123 0.690856 150.525 0.462491 150.672 0.666818L150.177 1.16562C150.084 0.877154 149.736 0.77499 149.651 0.576673C149.396 0.00575963 148.932 0.300231 148.676 0.46249C148.05 0.859125 147.91 1.7185 146.727 1.5923C146.317 1.55023 146.819 1.88677 146.587 2.01898C146.417 2.11513 147.021 2.25336 146.603 2.41561C146.34 2.51177 146.185 2.3435 146.03 2.27739C145.62 2.10311 145.442 2.0911 145.141 2.22331C144.955 2.30744 145.001 2.60792 144.553 2.48172C143.972 2.31946 144.498 2.7161 144.452 2.71009C143.98 2.66802 143.562 3.13677 143.338 3.0286C143.021 2.89037 142.812 2.48172 143.083 2.0971C143.152 2.00095 143.121 1.86273 143.137 1.74855C143.191 1.406 142.881 1.43605 142.603 1.43605C141.829 1.5322 141.427 0.883163 140.707 0.859124L140.707 0.835086ZM141.234 2.83629C141.504 2.43965 141.767 2.031 142.208 1.72451C142.263 1.68845 142.549 1.64638 142.487 1.85071C142.433 2.04302 142.92 2.18124 142.711 2.18725C141.659 2.22932 141.914 2.89638 141.651 3.37114C141.528 3.16682 141.048 3.11273 141.234 2.83629Z" fill="#FF0000"/>
<path d="M11.4504 1.1537C11.4272 1.35201 11.1641 1.2799 11.0017 1.24384C10.8702 1.21379 10.7696 1.17172 10.7618 1.31596C10.7618 1.38206 10.6767 1.51427 10.9088 1.50225C11.2957 1.48422 11.0326 1.74264 11.1409 1.85081C11.3266 1.80874 11.373 2.18735 11.4427 2.00105C11.6129 1.55634 11.9533 1.86283 11.9842 1.93495C12.2009 2.42773 12.7347 2.24144 13.1525 2.30754C13.284 2.22942 13.4078 2.22942 13.5393 2.30754C14.2356 2.30754 13.5857 1.91091 13.8333 1.7186C14.2047 1.82677 14.4987 1.91091 14.6921 2.30153C14.9087 2.74023 14.166 2.48182 14.3439 2.80634C15.0016 2.83038 15.5044 2.55394 15.9068 2.17533C16.046 2.04312 16.0383 1.61644 16.3168 1.85682C16.5799 2.08519 16.9667 1.69456 16.9357 1.97701C16.9125 2.16932 17.1524 2.50586 16.5876 2.64408C16.3245 2.71019 16.2007 3.12485 16.0073 3.38326L16.5721 3.50346C16.4561 3.65971 16.1698 3.5335 16.1156 3.72581C16.077 3.91812 15.9454 4.06836 15.7288 4.17052C15.6824 4.17052 15.636 4.17653 15.5896 4.18254C15.4426 4.471 15.7133 4.63326 15.9532 4.72942C16.2008 4.83158 16.2317 4.57918 16.2936 4.471C16.4329 4.21259 16.7733 4.4049 16.9203 4.29071C17.075 4.17052 17.3767 4.38687 17.4386 4.06235C17.5469 3.52749 17.9106 3.96019 18.1427 4.02028C18.2355 4.04432 18.1194 4.25466 18.4134 4.30874C19.0865 4.42293 19.0788 4.45297 18.6301 4.84961L22.2276 4.6573L22.0574 4.18855C21.8795 4.1585 21.6861 4.1585 21.5313 4.09841C21.2373 3.99023 21.2219 3.68975 21.2451 3.53951C21.276 3.35322 21.6474 3.47341 21.8718 3.46139C22.0652 3.26307 22.2044 2.99865 22.63 3.17293C22.746 3.07677 22.8698 2.98062 22.9858 2.88447C22.7615 2.85442 22.452 2.72822 22.3128 2.80033C21.2451 3.38927 21.6706 2.57197 21.5159 2.30754L21.307 2.13927C21.0826 1.971 21.0594 1.83879 21.1832 1.56235C21.4385 1.00346 22.0806 0.696966 22.6145 0.0539374C21.9027 0.312351 21.3379 0.0599464 20.8582 0.456581C20.7654 0.534706 19.7674 0.997446 19.3186 0.264273C19.0943 -0.102313 18.1891 0.0960041 18.073 0.534706C18.0421 0.660908 17.9957 0.684946 17.8951 0.684946C17.6552 0.684946 17.7171 0.594802 17.7636 0.46259C17.8874 0.15009 17.6475 0.0298982 17.3303 0.150091C16.8506 0.330379 16.4329 0.174129 15.9764 0.150091C15.5122 0.120042 14.9397 -0.0782754 14.5528 0.354417C14.5064 0.402494 14.2666 0.414513 14.2279 0.372446C13.9726 0.138071 13.7637 -0.0181793 13.3459 0.240234C13.1293 0.372446 12.8894 0.047927 12.5722 0.102013C12.3479 0.138071 12.1854 0.240234 11.992 0.294321C12.1235 0.438551 12.2241 0.61283 12.3943 0.721004C12.58 0.835186 12.7424 0.907301 12.7038 1.12365C12.6883 1.19576 12.6883 1.2799 12.5954 1.24985C12.3633 1.17172 11.9842 1.13567 12.0152 0.877253C12.0616 0.510667 11.0326 0.636868 11.5046 0.132061C11.2879 0.14408 10.9785 0.0058588 10.9475 0.324368C10.9321 0.492638 10.9475 0.660907 10.9553 0.829176C11.2338 0.829176 11.4814 0.913311 11.4504 1.14769L11.4504 1.1537ZM18.5682 3.00466C18.5527 2.93254 18.661 2.88446 18.7307 2.95658C18.808 3.03471 19.0092 2.95658 19.0247 3.1549C19.0401 3.4674 19.1639 3.7799 19.2722 4.20658C18.4057 3.95418 18.6765 3.41932 18.5682 3.01067L18.5682 3.00466Z" fill="#FF0000"/>
<path d="M64.0522 2.00764C63.9052 1.70115 63.472 1.9776 63.2708 1.77928C63.9594 1.605 64.1141 1.34659 63.7737 0.961971C63.6808 0.859807 63.6112 0.823749 63.8665 0.763653C64.1528 0.697547 64.1296 0.643461 64.0445 0.246826C64.0445 0.210769 64.0445 0.180721 64.0367 0.144663C64.2766 0.156682 64.6557 0.0965858 64.733 0.19274C64.9729 0.481201 65.1895 0.409086 65.4448 0.252836C65.7001 0.0905764 65.8084 0.0845668 65.9322 0.379038C66.0251 0.595384 66.1489 0.925913 66.6363 0.865817C66.5434 0.943942 66.4506 1.02207 66.35 1.10019C67.3635 1.62303 66.1024 1.94154 66.0406 1.95957C65.027 2.15187 66.4583 2.26606 66.0638 2.47038C65.9013 2.55452 66.2959 2.66269 66.3577 2.65668C66.6672 2.61461 66.6053 2.4163 66.6363 2.22399C66.7136 1.70716 66.8684 1.20236 67.789 1.29851L67.7581 1.27447C68.0753 1.45476 67.3326 1.605 67.7968 1.88745C68.9263 2.57856 68.5318 1.62303 68.818 1.3526C68.8567 1.47279 68.8567 1.57495 68.9186 1.64707C69.0424 1.79731 69.2203 1.89346 69.4602 1.83937C69.6613 1.7913 69.6149 1.65308 69.6149 1.53889C69.6226 1.31053 69.5298 1.26846 69.2203 1.32856C69.0269 1.36461 68.9728 1.11822 68.8877 0.97399L68.8644 0.998029C69.3286 0.998029 69.7542 0.781683 70.2571 1.14827C70.5897 1.38865 70.6826 0.859808 70.876 0.6675C71.317 0.228798 70.6516 0.336971 70.4969 0.192741C70.7677 -0.0115865 71.0539 0.186731 71.3247 0.192741C71.6806 0.19875 71.7193 0.367019 71.5259 0.637452C71.4872 0.691538 71.4794 0.775673 71.4949 0.841778C71.5027 0.907884 71.5491 0.98 71.6651 0.901875C72.3305 0.445144 73.3285 0.625433 73.9861 0.186731C73.9397 0.457164 74.9455 0.769664 73.9552 1.03409C74.0403 1.13024 74.195 1.22639 74.1873 1.31654C74.1796 1.45476 74.9145 1.80933 73.9784 1.76125C73.6999 1.74322 73.8469 2.19394 73.8701 2.43433L73.901 2.4163C73.5838 2.38625 73.1815 2.44034 72.9572 2.30812C72.6013 2.1038 72.4001 2.39226 72.3073 2.38024C71.2396 2.23601 72.4852 2.83096 72.0442 2.84899C71.8431 3.0413 71.9127 3.24562 72.021 3.44995C71.2319 3.2937 70.6284 3.5401 70.0946 3.97279C69.8625 4.1651 69.5685 4.26125 69.2203 4.30332C68.6865 4.36341 68.1217 4.38745 67.6885 4.69995C67.6343 4.74202 67.5105 4.90428 67.4254 4.75404C66.9922 3.94274 66.9303 4.8562 66.675 4.85019C66.4815 4.55572 66.3655 4.1711 65.8781 4.70596C65.6073 5.00043 65.1586 4.94034 64.7717 4.73601C64.9574 4.50764 65.2437 4.39346 65.5454 4.28529C65.9477 3.92471 66.0483 3.58817 65.7543 3.51005C65.0038 3.30572 64.9033 2.69875 64.4545 2.31413C64.3153 2.19394 64.3617 1.94755 64.0213 1.9776L64.0445 1.99562L64.0522 2.00764Z" fill="#FF0000"/>
<path d="M155.956 3.72562C155.748 4.03812 155.593 4.36864 155.399 4.7172C155.802 4.72922 156.011 4.54893 156.065 4.39869C156.305 3.68956 157.512 3.37706 157.326 2.49965C157.318 2.45158 157.419 2.37345 157.488 2.3374C157.674 2.25326 159.376 2.80014 159.453 2.9624C159.675 3.41913 160.119 3.69156 160.784 3.7797C160.699 3.52129 160.359 3.25086 160.769 3.01648C160.861 2.9624 161.063 2.81816 161.163 2.9624C161.318 3.19076 161.465 3.45518 161.125 3.68956C161.078 3.71961 160.962 3.80374 161.125 3.84581C161.31 3.88788 161.465 3.88788 161.55 3.68956C161.689 3.37105 161.921 3.23884 162.27 3.56336L162.432 3.71961C162.533 3.61143 162.486 3.29292 162.602 3.38908C163.012 3.72562 163.376 3.34701 163.74 3.42514C163.747 3.28091 163.763 3.13667 163.77 2.99244C163.43 2.54773 163.484 2.4636 164.142 2.42754C164.173 2.27129 164.304 2.17514 164.49 2.13307C165.171 1.98884 164.97 1.73643 164.459 1.31576C165.271 1.67033 165.418 1.30374 165.589 0.973213C165.302 0.804944 164.939 0.594608 164.637 0.70879C163.933 0.973213 163.461 0.684752 163.012 0.384271C162.803 0.24605 162.602 0.203982 162.37 0.161915C162.54 0.492444 161.952 0.504463 161.945 0.762876C161.945 0.847011 162.231 0.810953 162.084 0.937155C162.007 0.997251 161.852 0.997251 161.759 0.907107C161.651 0.798934 161.566 0.672732 161.457 0.540521C161.125 0.792924 160.908 1.24966 160.413 1.10542C160.065 1.00326 159.956 0.660713 160.173 0.294127C160.312 0.0657611 159.902 0.113838 159.724 0.113838C158.889 0.119847 158.053 0.528501 157.21 0.113837C157.156 0.0897991 156.97 0.0657608 156.978 0.22802C157.001 0.85302 156.305 0.534511 156.219 0.456386C155.539 -0.162605 155.585 0.53451 155.5 0.714799C155.368 0.997251 154.773 1.24364 154.44 1.11744C154.254 1.04533 154.564 0.768885 154.239 0.85903C154.022 0.919126 154.1 1.0934 154.177 1.22562C154.231 1.32177 154.363 1.39989 154.177 1.49004C153.69 0.883068 153.388 0.865039 153.009 1.41191L152.986 1.38788C153.55 1.41191 154.045 1.49605 154.03 2.06095C154.37 1.79052 154.703 1.47802 155.19 1.41191C155.647 1.35182 156.134 1.41191 156.552 0.895087C156.459 1.60422 156.026 1.86264 155.469 1.9648C155.005 2.04893 154.517 2.02489 154.038 2.05494C153.736 2.18715 153.349 2.12706 153.078 2.36143C152.846 2.56576 152.637 2.70398 153.21 2.68595L153.179 2.70398C153.574 2.5297 154.03 2.46961 154.425 2.33739C155.183 2.08499 155.492 2.25326 155.593 2.83018C156.181 3.00446 155.825 3.19677 155.616 3.38908C155.778 3.46119 156.266 3.2809 155.995 3.70158L155.956 3.72562ZM161.929 1.31576C161.96 1.25566 162.386 1.23163 162.533 1.30975C163.012 1.56216 162.393 1.89869 162.664 2.18716C162.2 1.97081 161.682 1.79653 161.937 1.31576L161.929 1.31576Z" fill="#FF0000"/>
<path d="M72.0211 3.45582C71.9128 3.25149 71.8431 3.05318 72.0443 2.85486C72.199 2.95101 72.6245 2.57842 72.5859 3.03515C72.5704 3.20342 72.6555 3.30558 72.8953 3.28755C73.1661 3.26952 73.1429 3.11327 73.1352 2.97505C73.1352 2.84885 73.0965 2.72265 73.0887 2.63851C73.3208 2.39212 73.8547 3.05919 73.9011 2.41616L73.8702 2.43419C74.1796 2.53034 74.1255 2.83082 74.373 2.95702C75.0616 2.74068 73.4988 1.92337 74.8991 1.88731C74.6593 2.38611 74.8991 2.72265 75.5413 2.86087C75.9049 2.939 75.9977 3.19741 76.0751 3.39573C76.1525 3.60005 76.2299 3.73226 76.4929 3.78635C76.609 3.81039 76.7018 3.72625 76.6476 3.69621C76.3072 3.52193 76.8024 3.04717 76.4078 3.0652C76.0055 3.08323 76.0674 2.85486 75.9359 2.75871C75.7115 2.59044 75.4794 2.37409 75.5954 2.07361C75.8894 2.14573 76.1757 2.22385 76.4697 2.29597C76.2221 2.71664 76.4697 2.95101 76.9803 3.07722C77.1196 2.81279 77.3594 2.59044 77.7695 2.28395C77.1815 2.46424 76.8333 1.99549 76.4465 2.32C76.462 1.97145 77.166 1.9414 77.0499 1.53275C77.2898 1.54476 77.4445 1.61087 77.4213 1.83323C77.3981 2.0676 77.4755 2.1277 77.754 1.96544C77.9165 1.86928 78.3729 1.89332 78.1331 1.64693C77.9551 1.46664 77.7695 1.07001 77.2588 1.26231C76.9726 1.05198 76.9803 1.05799 77.3207 0.895726C77.3749 0.871688 77.429 0.787553 77.4136 0.751495C77.2434 0.306784 77.3904 0.0663995 78.0402 0.120486C78.6205 0.168563 79.193 0.252698 79.0847 0.853659C79.0151 1.20823 79.3787 1.27433 79.5953 1.45462C79.2472 1.54476 78.9532 2.26592 78.5741 1.40053C78.311 1.83323 78.3342 2.10366 78.8294 2.28996C79.4096 2.5063 79.193 1.8813 79.5721 1.89933C79.6108 2.35606 79.7887 2.84284 79.2626 3.23948C79.1621 3.3176 79.1466 3.38972 79.2626 3.47385C79.4561 3.60606 79.5102 3.44981 79.6108 3.38371C79.8661 3.22145 80.0518 3.16135 80.4309 3.17938C80.6707 3.18539 80.6088 2.99308 80.7558 2.92698C80.8951 2.86688 80.9725 2.70462 80.7713 2.65654C79.7501 2.41015 80.6785 2.18779 80.779 1.96544C80.8177 1.8813 80.9183 1.8152 81.0343 1.70101C81.073 1.95342 81.1194 2.16375 81.1427 2.36808C81.1659 2.60246 81.4676 2.63851 81.5991 2.63251C81.9473 2.60847 81.7771 2.40414 81.7074 2.25991C81.5218 1.8813 81.6455 1.65294 82.2954 1.62289C81.7229 2.10366 82.3418 2.58443 82.1794 3.0652C82.1175 3.2515 82.1484 3.25751 83.394 3.93058C82.4502 3.8164 81.6378 3.8765 80.8641 3.60005C80.9028 3.73827 80.9415 3.86448 80.9802 3.99068C80.8951 4.14693 81.0266 4.21904 81.1659 4.29116C81.0653 4.47145 81.3206 4.7539 80.9338 4.84404C80.6243 4.91616 80.6166 4.71784 80.5547 4.54957C80.5083 4.40534 80.2839 4.39933 80.1678 4.44741C79.2472 4.85606 78.5354 4.52553 77.7849 3.90654C77.8468 4.14092 77.8468 4.21303 77.8855 4.27313C78.0093 4.47145 78.1176 4.71183 77.8236 4.83202C77.5064 4.96424 77.2511 4.81399 77.1273 4.54957C76.8565 3.97265 76.5006 4.20101 76.3614 4.56159C76.2453 4.85606 76.0519 4.93419 75.7889 4.84404C75.4562 4.72986 75.2086 4.64573 74.814 4.75991C74.52 4.84404 74.7676 4.46544 74.551 4.38731C74.3653 4.86207 74.3963 4.82 73.8547 4.55558C73.6226 4.4414 73.2048 4.71784 72.9185 4.45943C72.5317 4.86207 72.1062 4.75991 71.5491 4.65774C71.2474 4.60366 70.9689 4.63972 70.7677 4.41135C71.1778 4.27914 70.6517 3.52794 71.5491 3.70823C71.7735 3.7563 72.0752 3.75029 72.0288 3.4438L72.0211 3.45582Z" fill="#FF0000"/>
<path d="M176.211 2.99917C176.428 2.80086 176.637 2.59052 176.869 2.40422C176.939 2.34413 177.101 2.29004 177.186 2.31408C177.356 2.36816 177.318 2.51239 177.279 2.62057C177.194 2.92706 177.163 3.2035 177.666 3.30566C177.859 3.15542 178.053 3.00518 178.254 2.85494C178.408 2.266 178.269 1.59292 179.128 1.22634C179.19 1.94148 179.917 1.67706 180.451 1.72514C180.157 1.2624 180.9 0.637395 180.08 0.25278C178.795 -0.0176529 177.503 0.204702 176.211 0.180664C175.886 0.174654 176.149 0.56528 175.824 0.384991C175.306 0.102539 175.252 0.0905197 175.082 0.523212C174.942 0.889798 174.749 0.745568 174.409 0.739558C174.037 0.733548 174.734 1.17826 174.262 1.32249C174.115 1.36456 174.169 1.22033 174.115 1.20831C173.565 1.10614 173.318 0.895808 173.558 0.439077C173.65 0.270808 173.589 0.0965291 173.264 0.114558C173.124 0.126577 172.83 0.156626 172.9 0.210712C173.287 0.511193 172.9 0.769606 172.877 1.04004C172.869 1.13018 173.356 1.10013 172.946 1.28042C172.652 1.41263 172.691 1.23235 172.583 1.1422C172.211 0.817683 172.366 0.481144 172.73 -0.00563427C172.119 0.348933 171.732 0.0664811 171.322 0.102539C170.378 0.186673 171.569 0.607346 171.144 0.769606C171.035 0.811673 170.935 0.949894 170.857 0.937875C170.602 0.901817 170.409 0.781625 170.192 0.661433C169.836 0.457106 170.099 0.306865 170.231 -0.0176541C169.728 0.318884 169.295 0.378981 168.923 0.264798C168.235 0.0484518 167.322 0.445086 167.043 0.294846C165.952 -0.288087 166.03 0.409029 165.79 0.811673C166.184 0.985952 166.711 0.871769 167.074 1.13018C167.585 0.973933 167.894 1.11215 168.01 1.52081C168.583 1.63499 169.132 1.75518 169.488 2.18187C169.836 2.60254 170.478 2.27802 170.927 2.48235C171.306 1.54485 171.476 2.46432 171.763 2.54244C171.948 2.36816 172.134 2.18788 172.32 2.00759C172.149 1.92946 171.979 1.82129 172.25 1.71312C172.467 1.62898 172.575 1.72513 172.691 1.92946C172.954 2.38619 173.488 2.46432 174.107 2.42225C174.672 2.38018 175.306 2.34413 175.43 2.98114C175.693 3.0773 175.948 3.0773 176.211 2.98114L176.211 2.99917ZM175.708 2.32009C175.175 2.22393 174.904 1.78523 174.78 1.42465C174.71 1.23235 175.291 1.1422 175.554 1.14821C176.157 1.16023 175.971 1.56889 176.01 1.85735C175.879 2.00759 176.258 2.41624 175.708 2.31408L175.708 2.32009Z" fill="#FF0000"/>
<path d="M37.4845 2.16392C37.4845 2.20599 37.4845 2.25407 37.4845 2.29614C37.1286 2.37426 37.028 1.93556 36.7572 2.0257C36.03 2.26609 35.558 2.73484 35.2872 3.29373C35.2021 3.47402 35.1557 3.59421 34.9004 3.60623C34.7225 3.53412 34.5677 3.38988 34.3279 3.44998C34.4362 2.95118 33.794 3.19157 33.5697 2.99325C33.4072 2.84902 33.4149 3.04133 33.4227 3.10142C33.4227 3.19157 33.5155 3.35984 33.5078 3.35984C32.9817 3.50407 33.4536 4.03892 32.9198 4.16512C32.68 3.98484 33.09 3.8346 33.0436 3.6483C32.9894 3.43195 32.8579 3.29373 32.5639 3.30575C32.2699 3.31777 32.1848 3.41993 32.239 3.67835C32.3163 4.06296 32.2235 4.48964 32.943 4.48964C32.943 4.80815 32.5716 4.57979 32.502 4.72402C32.4092 4.91633 32.2158 4.91633 32.061 4.85623C31.8676 4.77811 31.8986 4.61585 31.9991 4.48964C32.1771 4.26729 32.1616 4.08099 31.8753 3.93075C31.7051 3.84061 31.5272 3.86464 31.3647 3.95479C31.0088 4.15311 31.3415 4.33339 31.3957 4.51969C31.4266 4.62186 31.6278 4.74205 31.473 4.82017C31.3415 4.88628 31.0398 4.91633 30.9624 4.85022C30.6761 4.62186 30.4905 4.41152 30.1578 4.82618C30.034 4.98243 29.7632 4.76609 29.593 4.712C29.1133 4.56176 28.7342 4.47762 28.4016 4.57378C28.3783 4.30936 28.2004 4.11104 27.9683 3.93075C28.9973 3.60623 27.7207 3.5221 27.86 3.28772C27.8445 3.17955 27.6279 3.12546 27.7517 2.98123C27.8677 2.84902 27.4654 2.89109 27.6279 2.7108C28.564 3.07137 29.0747 2.41032 29.7477 2.12787C29.9334 2.04974 30.1733 2.03772 30.3667 2.11585C30.5911 2.19998 30.7922 2.13388 30.9237 1.97162C31.0166 1.84541 30.9547 1.79133 30.7767 1.7132C29.8561 1.31056 29.1211 1.32859 28.8348 1.98363C28.4789 2.79493 28.3087 1.64109 28.0998 2.00166C27.9141 1.82138 27.7439 1.65912 28.0225 1.42474C28.4093 1.10022 28.4093 1.0882 28.0844 0.49325C28.0225 0.379068 28.0766 0.318971 28.1617 0.246856C28.3165 0.114644 28.4867 0.0966155 28.6259 0.246856C28.711 0.337 29.0824 0.397096 28.711 0.589404C28.5099 0.691567 28.4789 0.901904 28.7497 0.974019C29.2216 1.09421 28.858 0.793731 28.9431 0.721616C29.0205 0.65551 29.2139 0.571375 29.2449 0.589404C29.8019 0.962 30.6994 0.529308 30.8696 0.661519C31.62 1.25647 32.0842 0.715606 32.649 0.553347C33.0436 0.847818 32.8502 1.48484 33.6161 1.56296C33.8791 1.62907 33.9333 1.82738 34.0494 1.98964C34.2892 2.30815 34.6451 2.03772 34.9468 2.0858C35.1093 2.10984 35.0397 1.98363 35.0319 1.89349C35.0164 1.61104 34.823 1.55695 34.4903 1.55695C33.9178 1.56296 34.2505 1.31657 34.3279 1.1483L34.5445 0.980029C34.9468 1.59301 35.5193 1.70719 36.2234 1.28051C35.9835 1.14229 35.7205 1.20239 35.4188 1.22041C35.5735 0.931953 35.736 0.697577 36.0686 0.727626C36.4013 0.757674 36.3858 1.04614 36.4245 1.24445C36.4787 1.50287 36.4245 1.70118 36.9661 1.587C37.5618 1.45479 37.0899 2.0858 37.4922 2.16392L37.4845 2.16392Z" fill="#FF0000"/>
<path d="M9.07503 2.44557L8.98219 2.44557C9.05182 3.04053 8.23173 3.13067 7.94547 3.51529C7.87584 3.61144 7.28785 3.79774 7.97642 3.89389C8.14663 3.91793 8.02284 4.06817 7.93 4.09221C7.62053 4.16432 7.31106 4.26048 7.03254 4.00206C6.90102 3.87586 6.95517 3.59942 6.59154 3.64149C6.65344 3.53331 6.73854 3.32899 6.76175 3.32899C7.28785 3.44317 7.41164 3.03452 7.28785 2.92033C7.0016 2.63788 6.89328 3.17274 6.6225 3.12466C6.3285 2.98644 6.7076 2.57779 6.18924 2.57779C5.85656 2.57779 5.76372 2.86625 5.78693 2.96841C5.83335 3.15471 5.8024 3.56336 6.36718 3.36505C6.39039 3.35904 6.52192 3.53932 6.60702 3.62947C6.54513 3.85182 6.75402 4.18235 6.35171 4.2725C6.01903 4.34461 5.55483 4.40471 5.4001 4.04413C5.2531 3.7136 4.96684 4.04413 4.82758 3.91793C4.76568 3.86985 4.4098 3.82779 4.67284 3.75567C4.99005 3.65952 5.06741 3.58139 4.9591 3.35303C4.45621 3.50327 4.35564 2.86625 3.86823 3.01649C3.7135 3.06456 3.61292 3.1487 3.86823 3.22081C4.40206 3.37105 3.41176 3.67154 3.96107 3.82178L3.70576 3.85783C3.63613 3.53932 3.00945 3.7136 2.9785 3.36504C2.9785 3.2749 2.97077 3.20279 3.16419 3.30495C3.4195 3.44317 3.51234 3.31697 3.37308 3.11865C3.3344 3.06456 3.23381 3.01649 3.15644 3.00447C2.72319 2.92634 3.82954 2.42154 2.95529 2.53572C2.49109 2.59581 2.69224 3.05255 2.49109 3.30495C2.44467 2.99245 2.29767 2.67995 2.55298 2.37947C2.66903 2.24125 2.62261 1.8987 3.04813 2.20519C3.17192 2.29533 3.48913 1.9648 3.47365 1.94077C3.32665 1.74245 3.15645 1.53211 2.77735 1.5862C2.55299 1.46601 2.32862 1.34581 2.22804 1.11745C2.41372 0.985237 2.88566 1.30375 2.84698 0.834997L2.02689 0.834997L2.05783 0.853026C2.26672 0.378266 1.77157 0.534516 1.58589 0.594613C1.27643 0.684757 1.2919 0.576584 1.30737 0.426343C1.31511 0.348218 2.32862 0.143892 2.35956 0.209998C2.63035 0.810959 3.45045 0.666728 4.06938 0.997257C3.58971 0.462401 4.25506 0.414325 4.4949 0.222017C4.75021 0.0236994 5.00552 0.0898052 5.16799 0.390286C5.23762 0.510478 5.52389 0.390286 5.7173 0.197979C5.8643 0.0537478 6.22018 0.0837953 6.28981 0.155911C6.67665 0.570574 7.1718 0.522498 7.70563 0.426344C7.94547 0.384277 8.03057 0.828988 8.35551 0.552546C8.40193 0.696777 8.58762 0.913123 8.28588 0.943171C7.74431 0.997257 7.86811 1.31577 7.783 1.55615C7.45806 1.55014 7.10991 1.66432 6.82365 1.46C6.58381 1.28572 6.50644 1.3338 6.4755 1.57418C6.45229 1.76048 6.20471 2.14509 6.42908 2.09101C6.99386 1.9588 7.45032 2.39149 7.96868 2.16312C8.12341 2.32538 8.28589 2.48764 8.44836 2.66192C8.59536 2.4636 8.54119 2.05495 9.08276 2.27731L9.08276 2.45158L9.07503 2.44557Z" fill="#FF0000"/>
<path d="M115.463 4.60895C115.532 4.4527 115.594 4.30246 115.664 4.14621C116.089 3.85775 115.965 3.40102 116.221 3.04645C116.314 2.92025 116.36 2.78203 116.538 2.74597C116.755 2.7039 116.716 2.87818 116.786 2.96833C116.933 3.14862 117.861 2.98636 118.078 2.77602C118.31 2.54765 118.565 2.33732 118.813 2.12097C119.416 2.34333 119.996 2.59573 120.615 2.77602C120.994 2.88419 121.095 3.8878 121.814 3.02842C121.838 3.00439 122.054 3.01641 122.07 3.05246C122.201 3.29285 122.689 3.40102 122.534 3.74958C122.108 3.73756 121.722 4.17025 121.273 3.74958C121.056 4.56088 122.124 3.97193 122.217 4.42866C121.335 5.14381 120.151 4.86737 119.068 4.86737C118.488 4.86737 119.099 4.42265 118.797 4.23636C118.751 4.19429 118.673 4.2003 118.604 4.2604C117.791 5.04765 116.67 4.87939 115.594 4.84333C115.548 4.84333 115.501 4.68708 115.463 4.60895Z" fill="#FF0000"/>
<path d="M180.459 1.72473C180.165 1.26199 180.907 0.636992 180.087 0.252377C180.49 0.132184 180.784 -0.0841621 181.101 0.474732C181.248 0.739155 181.526 1.52641 182.493 1.2019C182.455 0.96752 181.882 0.679059 182.169 0.612953C182.594 0.51079 182.749 -2.6899e-05 183.43 0.222329C183.847 0.35454 184.443 0.0240111 184.992 0.180261C184.938 0.450694 184.753 0.306463 184.598 0.288434C184.188 0.246367 183.793 0.2043 184.064 0.721127C184.281 1.13579 183.693 1.11776 183.445 1.21391C183.492 1.65863 184.18 0.997569 184.103 1.53843C184.722 1.5805 184.567 1.77882 184.265 2.01319C184.25 2.02521 184.242 2.06127 184.257 2.0793C184.327 2.15742 184.397 2.12137 184.459 2.07329C184.304 2.62016 183.708 3.00478 183.499 3.55766C183.406 3.79805 182.95 4.05646 182.478 3.96632C181.952 3.86415 181.898 4.18266 181.774 4.42305C181.673 4.61536 181.588 4.77762 181.263 4.60935C180.915 4.42906 181.201 4.24276 181.325 4.17665C181.704 3.97834 181.944 3.79805 181.573 3.46151C181.534 3.10093 181.155 3.0829 180.83 2.99877C180.975 2.55807 180.918 2.22153 180.66 1.98915C180.59 1.90502 180.528 1.82089 180.459 1.73074L180.459 1.72473Z" fill="#FF0000"/>
<path d="M167.082 1.14786C167.593 0.991614 167.902 1.12984 168.018 1.53849C167.623 1.96517 167.709 2.61421 168.165 2.91469C168.792 3.33536 168.003 3.28729 167.856 3.44955C168.266 4.03248 168.854 3.31733 169.31 3.56373C169.295 3.84017 169.008 3.92431 168.753 4.02647C168.111 3.69594 167.623 4.24883 167.028 4.19474C167.554 3.75003 166.757 3.78608 166.587 3.62383C166.741 3.49762 166.827 3.49762 166.958 3.53969C167.136 3.59378 167.415 3.66589 167.446 3.40147C167.492 3.02887 167.136 3.3594 167.043 3.27527C166.417 2.7344 166.2 3.61181 165.658 3.49161C166.378 3.68993 166.324 4.09257 166.107 4.60339C166.525 4.45315 166.579 4.00844 167.043 4.17671C167.523 4.36902 167.09 4.45315 166.966 4.57334C166.502 5.01806 165.852 5.00003 165.612 4.48921C165.488 4.2308 165.155 4.39306 165.063 4.20075C164.993 4.0445 165.395 3.92431 164.97 3.67791C164.846 4.49522 163.747 4.2969 163.237 4.75964C163.005 4.10459 163.43 3.71397 164.134 3.44955L164.289 3.31733C164.413 3.17911 164.537 3.03488 164.668 2.89666C165.434 2.71036 164.947 3.31733 165.295 3.45556C165.635 2.89065 165.457 2.22959 165.852 1.68873C166.045 1.42431 166.347 1.25003 166.695 1.26205C166.904 1.26205 166.896 1.37022 167.082 1.15387L167.082 1.14786Z" fill="#FF0000"/>
<path d="M53.2673 4.03286C53.1435 3.87661 53.0198 3.72036 52.896 3.57012C53.1977 3.26964 53.8166 3.27564 54.0255 2.88502C54.4588 2.88502 54.8688 2.83694 55.2789 2.72276C55.5264 2.65064 55.8359 2.42829 55.9133 2.88502C55.952 3.09536 56.362 3.0593 56.4548 2.98117C57.1821 2.41026 57.6773 2.39223 57.9016 3.38382C57.8861 2.89103 58.1028 2.75882 58.5747 2.89704C58.536 3.11339 58.4045 3.29367 58.2111 3.44992C59.1163 3.73238 57.8707 4.03887 58.2266 4.32733C58.2498 4.34536 58.2652 4.3754 58.2575 4.39343C58.1724 4.71795 57.7624 5.01843 57.5303 4.85016C57.0119 4.47757 56.1144 5.2468 55.8437 4.44752C55.7199 4.09295 55.658 3.59415 55.2711 3.47997C54.7915 3.34175 55.4645 4.03887 54.8611 4.03887C54.8224 4.03887 54.7915 4.10497 54.7528 4.13502C54.5826 3.99079 54.4356 3.61819 54.2112 4.10497C54.1106 4.32733 53.9249 4.41146 53.6387 4.31531L53.4375 4.15906L53.2673 4.02685L53.2673 4.03286Z" fill="#FF0000"/>
<path d="M105.242 3.143C105.304 3.14901 105.366 3.15502 105.428 3.16102C105.436 3.25718 105.444 3.35333 105.451 3.4555C105.451 3.56367 105.405 3.68987 105.622 3.71391L105.622 3.88819C105.506 3.87617 105.297 3.87617 105.32 3.9603C105.413 4.24876 105.204 4.2728 104.941 4.30285C104.538 4.35093 104.678 4.17064 104.647 3.99035C104.608 3.77401 104.291 3.8942 104.097 3.87617C103.765 3.84612 103.865 4.00838 103.935 4.12857C104.051 4.32088 103.509 4.24276 103.711 4.49516C103.858 4.68747 103.626 4.80165 103.424 4.86175C103.161 4.93386 103.068 4.77761 102.952 4.62737C102.844 4.48314 102.898 4.20069 102.372 4.47713C101.831 4.76559 102.016 4.05646 101.745 3.87016C102.148 3.67184 101.684 3.49756 101.722 3.30526L101.738 2.55405C102.326 2.38578 102.999 2.52401 103.571 2.27761C103.981 2.47593 104.832 1.82088 104.894 2.69227C104.546 2.70429 104.237 2.79444 103.85 2.7103C103.401 2.61415 103.146 2.84852 103.169 3.23314C103.169 3.31126 103.045 3.41343 103.239 3.42545C103.339 3.43146 103.54 3.50958 103.509 3.28122C103.486 3.11896 103.742 2.80045 103.811 2.90261C104.198 3.46751 104.786 3.02881 105.242 3.143Z" fill="#FF0000"/>
<path d="M21.8795 3.45543C22.0729 3.25711 22.2122 2.99269 22.6377 3.16697C22.9858 3.34725 22.4598 3.53355 22.5681 3.73187C22.9781 3.65374 23.071 3.29918 23.4501 3.30519C23.5274 3.30519 23.8756 3.191 23.6822 3.44341C23.5429 3.61769 23.5506 3.6898 23.8059 3.71985C23.9761 3.74389 24.0767 3.69581 24.1309 3.54557C24.1696 3.44942 23.9529 3.13091 24.3707 3.28716C25.0129 3.52153 25.5854 3.41336 26.1656 3.16697C26.4596 3.26312 26.4364 3.68379 26.9084 3.59966C26.6917 3.96024 26.0109 3.96625 25.8716 4.51913C26.359 4.21264 26.8851 4.36288 27.3029 4.26072C27.86 4.1285 27.8058 4.33283 27.8213 4.58524C27.7671 4.63331 27.6743 4.73548 27.6588 4.72947C27.0322 4.48908 26.3513 4.75951 25.7479 4.61528C25.0825 4.45903 25.1057 4.40495 24.5177 4.72346C24.0612 4.75951 24.626 4.18259 24.038 4.25471C23.6899 4.29677 23.6357 4.47105 23.4655 4.63331C23.3882 4.70543 22.9936 5.09004 22.8234 4.60326C22.746 4.38091 22.3128 4.42899 22.2818 4.17658C22.5371 4.15855 22.6609 4.12249 22.4365 3.90615C22.2663 3.74389 21.8331 3.77394 21.895 3.44942L21.8795 3.45543Z" fill="#FF0000"/>
<path d="M122.519 3.7203C122.913 3.35972 123.416 3.01116 122.751 2.53039C122.596 2.41621 122.403 2.38015 122.256 2.48232C121.815 2.77679 121.83 2.78881 121.358 2.50636C121.443 2.33809 122.132 2.57246 121.838 2.10972C121.815 2.06765 122.279 1.83929 122.519 1.70107C122.635 1.70107 122.758 1.70107 122.874 1.70708C123.362 1.82727 123.455 2.07366 123.478 2.46429C123.501 2.79482 123.393 3.26958 124.004 3.44987C124.02 3.58809 124.027 3.72631 124.043 3.86453C123.996 4.08688 123.71 4.3453 124.205 4.49554C124.314 4.52559 124.399 4.60371 124.491 4.6578C124.368 4.71789 124.244 4.83208 124.112 4.83809C123.633 4.86212 123.153 4.8441 122.573 4.8441C123.029 4.44145 123.13 4.05083 122.519 3.7203Z" fill="#FF0000"/>
<path d="M168.753 4.03244C169.008 3.93028 169.294 3.84614 169.31 3.5697C169.031 2.9447 169.797 3.28124 170.029 3.12499C170.277 2.95672 170.37 3.12499 170.308 3.32331C170.277 3.41345 170.215 3.53364 170.385 3.55167C170.478 3.56369 170.617 3.50359 170.687 3.4435C170.788 3.35936 170.834 3.23917 170.919 3.14302C171.097 2.95672 171.352 2.99278 171.592 3.03484C171.639 3.04085 171.708 3.17907 171.693 3.19109C171.546 3.30528 171.53 3.53364 171.144 3.43148C170.95 3.37739 170.942 3.64182 171.089 3.78605C171.322 4.05648 170.803 4.43508 171.314 4.68749C171.407 4.72956 171.291 4.86177 171.144 4.86778C170.13 4.91585 169.14 4.70552 168.119 4.77763C168.428 4.50119 168.799 4.63941 169.171 4.55528C169.047 4.36297 168.668 4.28484 168.753 4.02042L168.753 4.03244Z" fill="#FF0000"/>
<path d="M33.6082 1.55634C32.8423 1.47821 33.0357 0.841196 32.6411 0.546725C32.6334 0.318359 32.1692 0.498648 32.2156 0.282302C32.2465 0.126052 32.4786 0.120042 32.6721 0.120042C33.4535 0.114033 34.2271 0.264273 35.0085 0.132061C35.1787 0.102013 35.3412 0.210187 35.3567 0.31836C35.3644 0.402494 35.1865 0.486629 35.1246 0.588792C35.0008 0.793119 34.4051 0.570763 34.5366 0.985427L34.32 1.1537C33.9177 1.11764 33.7552 1.33398 33.6082 1.56836L33.6082 1.55634Z" fill="#FF0000"/>
<path d="M62.791 2.67405C61.9555 2.51179 61.3365 2.54184 61.5067 3.43127C61.5299 3.55146 61.4139 3.79785 61.1586 3.79785C60.9729 3.79785 60.9033 3.63559 60.88 3.48535C60.8104 2.97453 60.47 2.53583 60.029 2.06107C61.0657 2.21732 61.8471 1.87477 62.7446 1.80266C62.5744 2.10314 62.2727 2.42165 62.7678 2.69809L62.791 2.67405Z" fill="#FF0000"/>
<path d="M188.056 2.99887C187.197 2.47003 186.803 1.57459 185.719 1.22003C185.673 1.20801 185.65 1.06979 185.689 1.02171C185.866 0.787335 185.836 1.11185 185.936 1.08782C186.47 0.949594 186.748 1.03974 186.834 1.53253C186.849 1.63469 187.483 1.50849 187.808 1.41834C188.249 1.29214 188.543 1.41834 188.837 1.65272C189.139 1.88709 188.977 2.0794 188.799 2.28373C188.389 2.22964 188.04 2.00128 187.592 2.04334C187.607 2.40392 188.652 2.47003 188.056 3.00488L188.056 2.99887Z" fill="#FF0000"/>
<path d="M65.5454 4.2973C65.2514 4.40548 64.9574 4.52567 64.7717 4.74802C64.6247 4.79009 64.5937 4.45355 64.292 4.736C64.0135 4.99442 63.4797 4.86822 63.2785 4.45355C63.5338 4.24923 63.7505 4.03288 63.851 3.75043C64.0367 3.51605 64.3539 3.14947 64.6015 3.34177C64.9496 3.61221 65.7852 3.66629 65.5376 4.2973L65.5454 4.2973Z" fill="#FF0000"/>
<path d="M175.43 2.9987C175.693 3.09485 175.948 3.09485 176.211 2.9987C176.552 3.02274 177.054 2.9987 176.513 3.38932C176.134 3.66577 176.172 3.97226 176.219 4.30279C176.211 4.54317 176.033 4.60327 175.747 4.59726C175.422 4.58524 175.422 4.41697 175.453 4.26072C175.523 3.92418 175.314 3.6898 175.058 3.45543C174.788 3.44942 174.501 3.45543 174.362 3.22706C174.308 3.13692 174.362 3.05279 174.509 3.02274C174.811 2.96865 175.105 2.68019 175.422 3.00471L175.43 2.9987Z" fill="#FF0000"/>
<path d="M172.869 4.00803C173.155 3.85779 173.039 3.68952 172.9 3.52125C173.078 3.43711 172.877 3.16067 173.202 3.14865C172.854 3.5573 174.153 3.04649 173.619 3.59336C173.581 3.63543 173.666 4.02005 174.13 3.97798C174.401 3.95394 174.602 4.21235 174.602 4.41067C174.602 4.52485 174.347 4.71115 174.138 4.45875C174.084 4.39865 174.014 4.3686 173.975 4.48279C173.736 5.19192 173.31 4.84336 172.807 4.65105C172.397 4.4948 172.993 4.26644 172.66 4.17029L172.877 4.00803L172.869 4.00803Z" fill="#FF0000"/>
<path d="M101.173 3.84615C101.637 4.08654 101.428 4.47115 101.629 5C100.848 4.15264 99.9351 4.95793 99.2697 4.52524C99.378 4.42308 99.4012 4.06851 99.3471 3.88221C99.2774 3.63582 99.4322 3.44351 99.6952 3.29928L99.6643 3.28125C100.028 3.69591 100.384 4.11659 101.165 3.84014L101.173 3.84615Z" fill="#FF0000"/>
<path d="M86.3107 1.43595C86.566 1.32778 86.8135 1.22562 87.0689 1.11744C87.6104 1.00927 87.7574 0.780904 87.4402 0.402298L87.4093 0.426337C87.6646 0.462394 87.9044 -0.0364035 87.9973 0.282106C88.0592 0.498452 88.2216 0.600615 88.2913 0.762875C88.3222 0.828981 88.709 1.24364 88.0592 1.05735C88.1597 1.34581 87.711 1.50206 87.7729 1.7785C87.7806 1.83259 87.7497 1.91672 87.7033 1.94677C87.4325 2.091 86.4035 1.71239 86.3107 1.44196L86.3107 1.43595Z" fill="#FF0000"/>
<path d="M177.666 3.31107C177.859 3.16083 178.053 3.01059 178.254 2.86035C178.393 3.25699 178.69 3.40122 179.144 3.29304L179.352 3.46131C179.399 3.58151 179.577 3.71973 179.329 3.80987C178.811 3.99617 179.144 4.15843 179.329 4.3267C179.198 4.4529 179.066 4.57309 178.896 4.73535C178.966 4.00218 178.672 3.86396 177.132 3.87598C177 3.5154 177.65 3.59953 177.658 3.32309L177.666 3.31107Z" fill="#FF0000"/>
<path d="M142.603 1.41216C141.829 1.50832 141.427 0.85928 140.708 0.835241C140.584 0.721059 140.692 0.438607 140.305 0.510722C140.174 0.534761 139.988 0.660962 139.949 0.432597C140.181 0.408559 139.996 0.0539916 140.359 0.126107C140.978 0.252309 142.023 -0.270528 142.023 0.817213C142.023 0.913366 142.17 1.35808 142.603 1.41216Z" fill="#FF0000"/>
<path d="M13.1523 3.57547C13.7326 3.69566 14.1813 3.30503 14.7384 3.31104C15.1716 3.31705 14.8157 3.47931 14.8312 3.56345C14.4598 3.73172 14.3283 3.96609 14.3283 4.30263C14.3283 4.41681 14.4289 4.73532 14.0111 4.7233C13.5392 4.71128 13.9956 4.48893 13.8873 4.37474C13.632 4.11633 13.3612 4.04422 13.0595 4.31465C12.897 4.45888 12.9125 4.75335 12.4174 4.66921C12.7578 4.32066 12.7655 3.86994 13.1523 3.56345L13.1523 3.57547Z" fill="#FF0000"/>
<path d="M23.1791 1.83859C23.5891 2.091 23.7903 2.45759 24.0378 2.79412C23.6278 3.05254 23.4653 1.94076 22.9934 2.69797C22.4054 2.7821 22.1346 2.1571 21.5234 2.29533L21.3145 2.12706C21.3223 1.80855 21.771 1.47201 21.8793 1.42994C22.4363 1.2136 22.3744 1.79052 22.6917 1.94677C22.8619 2.0309 22.5292 2.31335 22.9392 2.2773C23.357 2.23523 23.1404 1.99484 23.1791 1.83859Z" fill="#FF0000"/>
<path d="M124.956 4.03235C125.428 3.85206 125.992 3.70182 125.536 3.14893L125.706 3.14893C126.054 3.0648 126.016 3.40735 126.255 3.44942L126.232 3.42538C125.915 3.90615 126.139 4.17658 126.781 4.29677C126.418 4.16456 126.054 4.46504 126.008 4.53115C125.799 4.84966 125.59 4.98788 125.149 4.8136C124.654 4.61528 124.994 4.29677 124.956 4.03235Z" fill="#FF0000"/>
<path d="M13.5391 2.30212C13.632 2.56654 12.5875 2.7288 13.4308 3.08337C13.5159 3.11942 13.0517 3.3538 13.1755 3.59418C12.4405 3.48 12.4792 4.30933 11.5121 4.27327C12.5643 3.93072 12.1078 3.23962 12.5256 2.78289C12.2394 2.6026 11.5663 2.93914 11.6359 2.36822C12.1233 2.44635 12.6649 2.78289 13.16 2.30212C13.2916 2.22399 13.4154 2.22399 13.5469 2.30212L13.5391 2.30212Z" fill="#FF0000"/>
<path d="M105.629 3.88821L105.629 3.71393C105.691 3.5697 105.846 3.59374 105.985 3.58172C106.124 3.53365 106.256 3.48557 106.395 3.43749C106.898 3.43749 107.169 3.72595 107.169 4.02042C107.169 4.38701 106.418 4.30288 106.357 4.6935C106.001 4.58533 106.48 4.40504 106.248 4.34494C105.993 4.27283 105.861 4.47115 105.761 4.59735C105.66 4.72355 105.761 5.01802 105.413 4.84975C105.312 4.80167 105.204 4.45312 105.506 4.36297C105.947 4.23677 105.792 4.08052 105.622 3.89422L105.629 3.88821Z" fill="#FF0000"/>
<path d="M122.333 1.00395C121.342 1.26236 121.25 1.20827 121.373 0.493129C120.894 0.481109 121.18 0.94385 120.847 1.00395C120.716 0.871734 120.87 0.661398 120.646 0.547215C120.321 0.384956 120.669 0.174619 120.708 0.186638C121.319 0.415004 121.969 -0.113842 122.549 0.258754C122.325 0.48111 122.704 0.805629 122.34 1.00395L122.333 1.00395Z" fill="#FF0000"/>
<path d="M0.425501 2.06143C1.09086 2.03139 2.13531 2.58427 2.16626 3.00494C2.16626 3.05302 2.16626 3.58187 1.73301 3.11913C1.64017 3.01696 0.951595 3.1672 0.557023 2.99893C0.673074 2.74653 1.00576 2.93884 1.19144 2.81264C1.13728 2.59629 0.773663 2.48812 0.858766 2.20566C0.649875 2.46408 0.263038 2.59629 0.324932 2.96288C-0.185691 2.55422 -0.0619084 2.28379 0.440978 2.06143L0.425501 2.06143Z" fill="#FF0000"/>
<path d="M56.4316 0.714919C56.6714 0.841121 56.9113 0.967323 57.1511 1.09352C56.8184 1.70651 55.89 1.38199 55.4258 1.7666C55.333 1.50819 54.9075 1.65242 54.7837 1.44809C54.745 1.388 54.745 1.28583 54.7837 1.24376C54.9616 1.05747 55.2402 1.12357 55.4568 1.15362C55.6734 1.18968 55.8668 1.32189 56.068 1.41804C56.3156 1.08752 55.2866 0.654823 56.2305 0.402419C56.3001 0.510592 56.362 0.612756 56.4316 0.720929L56.4316 0.714919Z" fill="#FF0000"/>
<path d="M180.822 2.99319C181.147 3.07732 181.526 3.09535 181.565 3.45593C181.255 3.40785 181.209 3.54006 181.194 3.73838C181.17 3.97275 181.116 4.25521 180.76 4.29126C179.731 4.38742 180.513 4.62179 180.698 4.83814C180.226 4.95232 179.801 4.83814 179.321 4.73598C180.033 4.69992 180.273 4.3153 180.466 3.89463C180.729 3.8766 181.023 3.79848 180.969 3.58814C180.915 3.40184 180.644 3.29367 180.343 3.42588C180.234 3.47396 180.11 3.40184 180.079 3.29367C180.373 3.25761 180.49 2.95713 180.83 2.9992L180.822 2.99319Z" fill="#FF0000"/>
<path d="M9.0751 2.26585C9.70177 2.22379 10.3903 2.44013 10.9319 2.01345C11.0557 2.27186 10.7075 2.46417 10.7694 2.71057L10.7694 3.02307C10.6379 3.12523 10.4677 3.37763 10.4368 3.32355C10.2665 3.05311 9.78688 3.13725 9.67856 2.88484C9.58572 2.66249 9.9803 2.78869 10.0422 2.63845C9.76367 2.45215 9.32267 2.72859 9.08283 2.44614L9.08283 2.27186L9.0751 2.26585Z" fill="#FF0000"/>
<path d="M36.9504 4.41113C36.8885 4.09863 37.5771 3.91834 37.3373 3.50368C37.4224 3.48565 37.5075 3.44959 37.5926 3.44959C37.7009 3.44959 37.8479 3.4556 37.7396 3.60584C37.5152 3.91834 37.9871 4.06257 38.0103 4.28493C38.0336 4.47122 38.4978 4.38709 38.2734 4.62146C38.1032 4.80175 37.8633 4.96401 37.5848 4.86786C37.345 4.78372 36.8498 4.88589 36.9427 4.41113L36.9504 4.41113Z" fill="#FF0000"/>
<path d="M120.871 0.974025C120.522 1.29253 121.049 1.3947 121.141 1.62306C120.747 1.86946 120.205 1.77931 119.749 1.94758C119.447 2.06177 119.555 1.50287 119.207 1.40672C119.285 1.16633 119.362 1.13027 119.625 1.21441C120.12 1.38268 120.437 0.992054 120.871 0.968015L120.871 0.974025Z" fill="#FF0000"/>
<path d="M172.869 4.00798L172.652 4.17024C172.683 4.43466 171.902 3.94187 172.188 4.47673C172.281 4.645 171.987 4.62096 171.894 4.65101C171.639 4.72913 171.515 4.51879 171.422 4.3986C171.275 4.2123 171.438 3.91182 171.089 3.78562C171.77 3.41903 172.389 3.37096 172.861 4.00798L172.869 4.00798Z" fill="#FF0000"/>
<path d="M10.3672 0.534931C10.1351 0.534931 9.97261 0.625075 9.84109 0.763296C9.77146 0.835412 9.91846 1.02171 9.67862 0.967623C9.61673 0.955604 9.60899 0.763296 9.57031 0.631085C9.33047 0.805364 9.58578 1.14791 9.11384 1.20801C9.10611 0.811373 8.9978 0.456806 8.31697 0.564979C8.94364 -0.378531 9.89525 0.486854 10.8159 0.210412C10.5683 0.3907 10.4678 0.462816 10.3672 0.534931Z" fill="#FF0000"/>
<path d="M62.5591 4.80771L59.1394 4.80771C59.1394 4.68151 59.2632 4.59737 59.4025 4.60939C60.3154 4.66949 61.1974 4.44713 62.1181 4.48319C62.621 4.50122 62.2032 4.96997 62.5591 4.80771Z" fill="#FF0000"/>
<path d="M54.4508 0.114266C54.6829 0.186382 55.1317 -0.035974 55.1239 0.384699C55.1239 0.751285 54.8454 1.02773 54.3967 0.949603C54.1336 0.907535 53.8087 0.595035 53.77 0.378689C53.7081 0.0121027 54.18 0.150324 54.4586 0.108256L54.4508 0.114266Z" fill="#FF0000"/>
<path d="M63.1238 3.29965C62.8375 3.14941 62.5203 3.00518 62.7834 2.67465L62.7601 2.69869C63.3094 2.60855 63.6344 2.25398 64.0444 2.00759L64.0212 1.98956C64.4932 2.38619 63.9593 2.64461 63.7969 2.9511C63.3172 2.75879 63.3868 3.25158 63.0928 3.28764L63.1238 3.30566L63.1238 3.29965Z" fill="#FF0000"/>
<path d="M63.8511 3.75C63.7505 4.03245 63.5339 4.2488 63.2786 4.45312C63.0465 4.4351 62.6132 4.45312 62.6828 4.26683C62.7989 3.94231 62.4739 3.47356 63.1238 3.29928L63.0929 3.28125C63.1161 3.65986 63.5339 3.65385 63.8511 3.74399L63.8511 3.75Z" fill="#FF0000"/>
<path d="M67.7736 1.28613C67.6808 1.08181 67.3791 1.10584 67.2166 0.979642C67.1547 0.757286 67.2707 0.516902 67.0464 0.300556C67.7427 0.264498 68.1682 0.781325 68.8181 0.649114C68.8258 0.763296 68.8336 0.883489 68.8413 0.997671L68.8645 0.973633C68.4931 1.08782 67.8897 0.655123 67.7272 1.26209L67.7581 1.28613L67.7736 1.28613Z" fill="#FF0000"/>
<path d="M185.99 4.41121C185.596 4.35111 185.449 4.6576 185.147 4.72972C184.915 4.7838 184.683 5.02419 184.42 4.79582C184.319 4.70568 184.335 4.50736 184.474 4.48933C184.853 4.44727 184.637 3.82227 185.186 4.05664C185.441 4.16481 185.82 4.08669 185.99 4.41121Z" fill="#FF0000"/>
<path d="M24.2856 1.84525C23.9298 1.98948 23.5429 1.16016 23.2025 1.86328C22.4985 1.73708 23.3031 1.23828 22.8698 1.04597C23.3263 0.859675 23.365 1.11208 23.4269 1.35246C23.4269 1.37049 23.6048 1.39453 23.659 1.36448C24.1232 1.13011 24.1773 1.17218 24.2779 1.83924L24.2856 1.84525Z" fill="#FF0000"/>
<path d="M162.254 3.56981L162.417 3.72606C162.494 4.32102 162.301 4.74169 161.403 4.77775C161.303 4.77775 161.187 4.89794 161.163 4.72967C161.156 4.63953 161.063 4.50731 161.357 4.52534C161.72 4.54938 161.844 4.40515 161.713 4.10467C161.566 3.76813 162.146 3.80419 162.246 3.57582L162.254 3.56981Z" fill="#FF0000"/>
<path d="M1.3616 1.50285C1.19139 1.0341 1.23781 0.709578 2.03469 0.853809L2.00375 0.83578C1.37707 1.44275 2.34416 1.53891 2.56079 1.87544C1.92638 2.19996 1.46991 2.26607 1.57823 1.47881C1.57823 1.4728 1.52407 1.44876 1.5086 1.45477C1.45444 1.46679 1.40802 1.48482 1.35387 1.50285L1.3616 1.50285Z" fill="#FF0000"/>
<path d="M34.3432 3.42509C34.3432 3.80971 34.3123 4.20033 34.3587 4.58495C34.3819 4.80129 34.5831 4.56091 34.6914 4.60899C34.6914 4.72317 34.6991 4.89745 34.4902 4.86139C33.91 4.76523 33.8945 4.33855 33.7862 4.00201C33.6856 3.69552 33.7165 3.35899 34.3432 3.42509Z" fill="#FF0000"/>
<path d="M10.754 3.02262L10.754 2.71012C11.4658 2.4457 11.5509 3.11878 12.0151 3.20892L11.9455 3.3832C11.52 2.96253 11.783 3.85796 11.3266 3.5695C11.0635 3.40724 10.9784 3.17887 10.754 3.02262Z" fill="#FF0000"/>
<path d="M81.1427 4.30871C80.9957 4.23659 80.8719 4.16448 80.957 4.00823C81.3052 4.03227 81.661 4.03828 82.0092 4.08034C82.2258 4.11039 82.6513 3.97818 82.574 4.32674C82.5121 4.59717 82.1562 4.72337 81.839 4.80751C81.6301 4.86159 81.6997 4.69933 81.6997 4.63323C81.6997 4.26664 81.6997 4.26664 81.1504 4.30871L81.1427 4.30871Z" fill="#FF0000"/>
<path d="M1.36157 1.49662C0.94379 1.57474 0.727157 1.8572 0.425425 2.06152C0.332585 1.7971 -0.247658 1.59277 0.278438 1.25023C0.812271 0.907677 1.05211 1.27426 1.35384 1.50263L1.36157 1.49662Z" fill="#FF0000"/>
<path d="M81.6686 0.823648C81.4287 0.877735 81.2198 0.781581 81.1657 0.63134C81.0264 0.270763 80.802 0.469081 80.5854 0.541196C80.655 0.433023 80.2837 0.1686 80.8639 0.210667C81.3204 0.240715 81.9239 0.150571 82.1792 0.390956C82.4886 0.685427 81.6299 0.505138 81.6686 0.817638L81.6686 0.823648Z" fill="#FF0000"/>
<path d="M60.0292 0.198617C60.5321 0.00630983 60.9576 0.372896 61.4064 0.150541C61.5533 0.0784253 61.6926 0.264723 61.5533 0.360877C61.3212 0.535156 61.2748 0.889723 60.8802 0.883714C60.5321 0.883714 60.8184 0.565204 60.6404 0.46905C60.4702 0.372896 60.2768 0.306791 60.0292 0.198617Z" fill="#FF0000"/>
<path d="M26.9237 1.44847C27.1868 1.61674 27.3957 0.997753 27.6201 1.44246C27.682 1.56266 27.7516 1.81506 27.4266 1.83309C27.1326 1.85112 26.8077 1.97131 26.6762 1.54463C26.5756 1.23213 26.9237 1.14799 26.947 0.931647C27.094 0.955685 27.4034 0.87756 27.2023 1.13597C27.1172 1.24415 26.916 1.29823 26.9315 1.45448L26.9237 1.44847Z" fill="#FF0000"/>
<path d="M176.683 4.36313C176.931 4.32707 177.101 4.3451 177.202 4.285C177.789 3.94246 177.998 4.38116 178.316 4.5975C178.416 4.66361 178.362 4.83789 178.347 4.83188C178.037 4.65159 177.503 4.87395 177.341 4.60351C177.171 4.32707 176.908 4.62755 176.683 4.36313Z" fill="#FF0000"/>
<path d="M56.4315 0.714844C56.3618 0.606671 56.3 0.504507 56.2303 0.396334C56.006 -0.114483 56.5553 0.167969 56.7255 0.137921C56.973 0.0898438 57.3289 0.0537861 57.4372 0.30018C57.5146 0.492488 57.1897 0.504507 57.0349 0.600661C56.8415 0.714844 56.6326 0.684796 56.4315 0.714844Z" fill="#FF0000"/>
<path d="M184.466 2.06168C184.907 1.79726 185.317 2.47034 185.766 2.09173C185.782 2.10976 185.805 2.12178 185.813 2.14582C185.843 2.23596 185.89 2.37418 185.758 2.39221C185.41 2.4463 185.503 2.95712 185.054 2.8249C184.83 2.7588 185.147 2.40423 184.76 2.30808C184.644 2.27803 184.567 2.14582 184.474 2.05567L184.466 2.06168Z" fill="#FF0000"/>
<path d="M24.9121 0.132129C24.8348 0.42059 25.4924 0.600879 25.0824 0.907369C24.7187 0.58886 24.7265 1.28597 24.4866 1.05761C24.0688 0.654965 24.5949 0.41458 24.9121 0.132129Z" fill="#FF0000"/>
<path d="M147.431 3.43124C147.438 2.99855 147.446 2.98653 147.988 3.08268C148.22 3.12475 148.112 2.9685 148.181 2.92643C148.313 2.8483 148.406 2.64398 148.607 2.7822C148.676 2.83028 148.568 3.02859 148.537 3.1608C148.259 3.4733 147.841 3.43725 147.431 3.43124Z" fill="#FF0000"/>
<path d="M153.829 4.50743C154.339 4.49541 154.339 3.99661 154.757 3.93652C154.904 3.91248 155.09 4.21296 155.013 4.23099C154.587 4.33916 154.788 4.83796 154.363 4.862C154.162 4.87401 154.138 4.53147 153.829 4.50743Z" fill="#FF0000"/>
<path d="M138.332 0.40292C138.255 0.270709 137.984 0.234651 137.977 0.276718C137.814 0.745468 137.342 0.511093 137.002 0.56518C137.296 0.204603 138.456 -0.0658296 138.789 0.168545C138.858 0.216622 138.828 0.342824 138.843 0.438978L138.332 0.40893L138.332 0.40292Z" fill="#FF0000"/>
<path d="M143.733 1.7666C143.655 1.43607 143.647 1.02742 142.99 1.18968C142.657 1.2678 142.696 1.00338 142.696 0.961313C142.696 0.750977 142.874 0.925256 142.967 0.907227C143.338 0.835111 143.624 0.895208 143.887 1.12357C144.174 1.38199 144.197 1.58631 143.74 1.7666L143.733 1.7666Z" fill="#FF0000"/>
<path d="M105.993 3.31085C105.761 3.24474 105.622 3.39498 105.451 3.45508C105.444 3.35892 105.436 3.26277 105.428 3.16061L105.459 3.13657C105.637 3.04642 105.815 3.05844 105.993 3.13657L105.993 3.31085Z" fill="#FF0000"/>
<path d="M15.7443 4.15234C15.7443 3.94201 15.8835 3.79778 16.1311 3.70763C16.0924 3.89994 15.9609 4.05018 15.7443 4.15234Z" fill="#FF0000"/>
<path d="M163.732 3.01119C163.941 2.84292 164.25 2.71672 164.111 2.41624C164.382 2.51239 164.359 2.82489 164.676 2.88499C164.552 3.02321 164.428 3.16744 164.297 3.30566C164.111 3.20951 163.918 3.10735 163.732 3.01119Z" fill="#FF0000"/>
<path d="M180.265 2.44561C180.358 2.74609 179.6 2.95042 180.103 3.29898L179.352 3.44922L179.143 3.28095C179.112 3.13071 179.871 2.95042 179.112 2.78215C179.043 2.76412 179.228 2.27133 179.693 2.28936C179.886 2.29537 180.08 2.38552 180.273 2.43359L180.265 2.44561Z" fill="#FF0000"/>
<path d="M163.785 2.64431C163.785 2.64431 163.832 2.60224 163.848 2.60224C163.871 2.60224 163.887 2.63229 163.902 2.65032L163.84 2.69238L163.785 2.64431Z" fill="#FF0000"/>
</g>
<defs>
<clipPath id="clip0_138_1793">
<rect width="189" height="4.99998" fill="white" transform="translate(189 5) rotate(-180)"/>
</clipPath>
</defs>
</svg>
